<svg width="131" height="54" viewBox="0 0 131 54" fill="none" xmlns="http://www.w3.org/2000/svg">
<path d="M46.6055 31.7305H52.207V37.293H46.6055V31.7305Z" fill="#146CE7"/>
<path d="M55.4023 31.7305H61.0039V37.293H55.4023V31.7305Z" fill="#146CE7"/>
<path d="M46.6055 40.4688H52.207V46.0312H46.6055V40.4688Z" fill="#146CE7"/>
<path d="M55.4023 40.4688H61.0039V46.0312H55.4023V40.4688Z" fill="#146CE7"/>
<path d="M23.2539 46.5625L53.8047 19.7461L84.3555 46.5625L53.8047 16.3828L23.2539 46.5625Z" fill="#146CE7"/>
<path d="M101.426 0.835938L77.6133 24.4961L53.8047 0.835938L0.964844 53.3359H13.6836L53.8047 13.4727L93.9219 53.3359H106.645L81.0781 27.9336L101.426 7.71875L123.273 29.4258H130.203L101.426 0.835938Z" fill="#3F88EE"/>
<path d="M97.5039 17.6602H100.555V20.6914H97.5039V17.6602Z" fill="#146CE7"/>
<path d="M102.293 17.6602H105.344V20.6914H102.293V17.6602Z" fill="#146CE7"/>
<path d="M97.5039 22.4219H100.555V25.4492H97.5039V22.4219Z" fill="#146CE7"/>
<path d="M102.293 22.4219H105.344V25.4492H102.293V22.4219Z" fill="#146CE7"/>
<path d="M101.426 9.30469L84.7852 25.7383L101.426 11.1328L118.062 25.7383L101.426 9.30469Z" fill="#146CE7"/>
</svg>
