<svg width="946" height="684" viewBox="0 0 946 684" fill="none" xmlns="http://www.w3.org/2000/svg">
<g opacity="0.2">
<path opacity="0.2" d="M554.28 631.03C554.248 632.109 554.124 633.182 553.91 634.24C546.95 633.133 539.95 632.133 532.91 631.24C532.91 630.96 532.91 630.67 532.91 630.38C532.975 627.381 533.838 624.454 535.41 621.9C537.47 618.64 540.6 616.6 544.05 616.71C547.5 616.82 550.49 619.05 552.34 622.42C553.739 625.067 554.409 628.039 554.28 631.03Z" fill="#181D31"/>
<path opacity="0.2" d="M554.854 613.942C555.099 606.208 550.509 599.787 544.602 599.601C538.696 599.414 533.709 605.532 533.465 613.266C533.221 620.999 537.811 627.42 543.717 627.607C549.624 627.793 554.61 621.675 554.854 613.942Z" fill="#181D31"/>
<path opacity="0.2" d="M555.4 596.821C555.644 589.088 551.054 582.667 545.148 582.48C539.241 582.294 534.255 588.412 534.011 596.145C533.766 603.879 538.356 610.3 544.263 610.486C550.169 610.673 555.156 604.555 555.4 596.821Z" fill="#181D31"/>
<path opacity="0.2" d="M555.936 579.701C556.18 571.967 551.59 565.547 545.684 565.36C539.777 565.173 534.791 571.291 534.546 579.025C534.302 586.759 538.892 593.179 544.798 593.366C550.705 593.553 555.691 587.435 555.936 579.701Z" fill="#181D31"/>
<path opacity="0.2" d="M556.471 562.58C556.716 554.847 552.126 548.426 546.219 548.239C540.313 548.053 535.326 554.171 535.082 561.904C534.838 569.638 539.428 576.059 545.334 576.245C551.241 576.432 556.227 570.314 556.471 562.58Z" fill="#181D31"/>
<path opacity="0.2" d="M509.38 443.79C507.972 441.883 506.702 439.878 505.58 437.79L533.84 434.06L503.42 433.33C500.705 426.891 499.333 419.966 499.386 412.978C499.439 405.99 500.917 399.087 503.73 392.69L543.85 415.14L507.1 386.3C510.807 380.304 515.711 375.136 521.505 371.121C527.299 367.105 533.859 364.327 540.775 362.96C547.691 361.593 554.814 361.667 561.701 363.177C568.587 364.688 575.087 367.601 580.797 371.736C586.506 375.872 591.302 381.14 594.884 387.212C598.466 393.284 600.757 400.029 601.615 407.026C602.473 414.023 601.879 421.122 599.871 427.88C597.862 434.637 594.481 440.908 589.94 446.3C592.13 449.266 593.991 452.461 595.49 455.83L558.4 473.63L597.73 461.8C600.207 469.972 600.606 478.634 598.891 486.999C597.177 495.365 593.402 503.171 587.91 509.71C593.62 517.457 597.035 526.655 597.763 536.252C598.492 545.849 596.506 555.457 592.031 563.977C587.556 572.498 580.773 579.587 572.459 584.435C564.145 589.283 554.634 591.692 545.015 591.389C535.395 591.086 526.055 588.082 518.063 582.72C510.07 577.358 503.748 569.856 499.819 561.07C495.89 552.284 494.512 542.57 495.844 533.038C497.176 523.507 501.163 514.542 507.35 507.17C500.528 497.911 497.016 486.628 497.379 475.134C497.742 463.639 501.958 452.6 509.35 443.79H509.38Z" fill="#078080"/>
<path opacity="0.1" d="M599.91 478.37C599.56 489.871 595.331 500.916 587.91 509.71C593.62 517.457 597.035 526.655 597.763 536.252C598.492 545.849 596.506 555.457 592.031 563.977C587.556 572.498 580.773 579.587 572.459 584.435C564.145 589.283 554.634 591.692 545.015 591.389C535.395 591.086 526.055 588.082 518.063 582.72C510.07 577.358 503.748 569.856 499.819 561.07C495.89 552.284 494.512 542.57 495.844 533.038C497.176 523.507 501.163 514.542 507.35 507.17C500.78 498.24 600.09 472.62 599.91 478.37Z" fill="black"/>
</g>
<g opacity="0.2">
<path opacity="0.2" d="M402.28 631.03C402.248 632.109 402.124 633.182 401.91 634.24C394.95 633.133 387.95 632.133 380.91 631.24C380.91 630.96 380.91 630.67 380.91 630.38C380.975 627.381 381.838 624.454 383.41 621.9C385.47 618.64 388.6 616.6 392.05 616.71C395.5 616.82 398.49 619.05 400.34 622.42C401.739 625.067 402.409 628.039 402.28 631.03Z" fill="#181D31"/>
<path opacity="0.2" d="M402.844 613.946C403.088 606.212 398.498 599.792 392.591 599.605C386.685 599.418 381.699 605.536 381.454 613.27C381.21 621.004 385.8 627.424 391.706 627.611C397.613 627.798 402.599 621.68 402.844 613.946Z" fill="#181D31"/>
<path opacity="0.2" d="M403.389 596.825C403.633 589.092 399.043 582.671 393.137 582.485C387.23 582.298 382.244 588.416 382 596.15C381.755 603.883 386.345 610.304 392.252 610.491C398.158 610.677 403.145 604.559 403.389 596.825Z" fill="#181D31"/>
<path opacity="0.2" d="M403.925 579.705C404.169 571.971 399.579 565.551 393.673 565.364C387.766 565.177 382.78 571.295 382.535 579.029C382.291 586.763 386.881 593.183 392.788 593.37C398.694 593.557 403.68 587.439 403.925 579.705Z" fill="#181D31"/>
<path opacity="0.2" d="M404.46 562.585C404.705 554.851 400.115 548.43 394.208 548.244C388.302 548.057 383.315 554.175 383.071 561.909C382.827 569.642 387.417 576.063 393.323 576.25C399.23 576.436 404.216 570.318 404.46 562.585Z" fill="#181D31"/>
<path opacity="0.2" d="M357.38 443.79C355.972 441.883 354.702 439.878 353.58 437.79L381.84 434.06L351.42 433.33C348.705 426.891 347.333 419.966 347.386 412.978C347.439 405.99 348.917 399.087 351.73 392.69L391.85 415.14L355.1 386.3C358.807 380.304 363.711 375.136 369.505 371.121C375.299 367.105 381.859 364.327 388.775 362.96C395.691 361.593 402.815 361.667 409.701 363.177C416.587 364.688 423.087 367.601 428.797 371.736C434.506 375.872 439.302 381.14 442.884 387.212C446.466 393.284 448.757 400.029 449.615 407.026C450.473 414.023 449.879 421.122 447.871 427.88C445.862 434.637 442.481 440.908 437.94 446.3C440.13 449.266 441.991 452.461 443.49 455.83L406.4 473.63L445.73 461.8C448.207 469.972 448.606 478.634 446.891 486.999C445.177 495.365 441.402 503.171 435.91 509.71C441.62 517.457 445.035 526.655 445.764 536.252C446.492 545.849 444.506 555.457 440.031 563.977C435.556 572.498 428.774 579.587 420.459 584.435C412.145 589.283 402.634 591.692 393.015 591.389C383.395 591.086 374.055 588.082 366.063 582.72C358.07 577.358 351.748 569.856 347.819 561.07C343.89 552.284 342.512 542.57 343.844 533.038C345.176 523.507 349.163 514.542 355.35 507.17C348.528 497.911 345.016 486.628 345.379 475.134C345.742 463.639 349.958 452.6 357.35 443.79H357.38Z" fill="#078080"/>
<path opacity="0.1" d="M447.91 478.37C447.56 489.871 443.331 500.916 435.91 509.71C441.62 517.457 445.035 526.655 445.764 536.252C446.492 545.849 444.506 555.457 440.031 563.977C435.556 572.498 428.774 579.587 420.459 584.435C412.145 589.283 402.634 591.692 393.015 591.389C383.395 591.086 374.055 588.082 366.063 582.72C358.07 577.358 351.748 569.856 347.819 561.07C343.89 552.284 342.512 542.57 343.844 533.038C345.176 523.507 349.163 514.542 355.35 507.17C348.78 498.24 448.09 472.62 447.91 478.37Z" fill="black"/>
</g>
<g opacity="0.2">
<path opacity="0.2" d="M817.48 641.97C817.404 644.013 817.16 646.047 816.75 648.05C803.35 645.91 789.853 643.997 776.26 642.31C776.26 641.77 776.26 641.22 776.26 640.66C776.387 634.885 778.051 629.248 781.08 624.33C785.08 618.06 791.08 614.13 797.71 614.33C804.34 614.53 810.11 618.84 813.71 625.33C816.425 630.442 817.726 636.187 817.48 641.97Z" fill="#181D31"/>
<path opacity="0.2" d="M818.568 609.047C819.039 594.153 810.197 581.789 798.821 581.429C787.444 581.07 777.839 592.851 777.369 607.745C776.898 622.638 785.739 635.003 797.116 635.362C808.493 635.722 818.097 623.94 818.568 609.047Z" fill="#181D31"/>
<path opacity="0.2" d="M819.607 576.086C820.078 561.193 811.237 548.828 799.86 548.468C788.483 548.109 778.879 559.891 778.408 574.784C777.937 589.677 786.779 602.042 798.156 602.402C809.532 602.761 819.137 590.979 819.607 576.086Z" fill="#181D31"/>
<path opacity="0.2" d="M820.657 543.126C821.127 528.233 812.286 515.868 800.909 515.508C789.532 515.149 779.928 526.931 779.457 541.824C778.987 556.717 787.828 569.082 799.205 569.441C810.582 569.801 820.186 558.019 820.657 543.126Z" fill="#181D31"/>
<path opacity="0.2" d="M820.524 508.665C820.971 493.765 812.106 481.409 800.723 481.067C789.34 480.726 779.751 492.528 779.304 507.429C778.857 522.33 787.722 534.686 799.104 535.027C810.487 535.369 820.077 523.566 820.524 508.665Z" fill="#181D31"/>
<path opacity="0.2" d="M731.03 281.51C728.332 277.839 725.889 273.987 723.72 269.98L778.12 262.8L719.57 261.39C714.34 248.995 711.694 235.663 711.794 222.21C711.894 208.757 714.737 195.466 720.15 183.15L797.4 226.36L726.66 170.84C733.813 159.324 743.26 149.405 754.415 141.7C765.569 133.995 778.191 128.671 791.493 126.058C804.795 123.445 818.493 123.599 831.733 126.512C844.973 129.425 857.471 135.034 868.448 142.988C879.425 150.943 888.647 161.073 895.537 172.748C902.428 184.423 906.84 197.392 908.499 210.846C910.158 224.301 909.028 237.953 905.179 250.952C901.331 263.95 894.846 276.017 886.13 286.4C890.343 292.114 893.927 298.267 896.82 304.75L825.41 339.04L901.12 316.24C905.891 331.954 906.668 348.611 903.38 364.701C900.093 380.791 892.844 395.807 882.29 408.39C893.281 423.305 899.852 441.012 901.254 459.486C902.655 477.96 898.83 496.455 890.215 512.857C881.6 529.259 868.543 542.906 852.537 552.238C836.532 561.569 818.223 566.208 799.706 565.624C781.188 565.04 763.208 559.257 747.822 548.936C732.436 538.615 720.265 524.173 712.7 507.261C705.136 490.348 702.483 471.649 705.045 453.3C707.608 434.951 715.282 417.693 727.19 403.5C714.064 385.677 707.307 363.96 708.003 341.836C708.7 319.711 716.809 298.463 731.03 281.5V281.51Z" fill="#078080"/>
<path opacity="0.1" d="M905.33 348.07C904.674 370.199 896.57 391.459 882.33 408.41C893.321 423.325 899.892 441.032 901.294 459.506C902.695 477.98 898.87 496.475 890.255 512.877C881.64 529.279 868.583 542.926 852.577 552.258C836.572 561.589 818.263 566.228 799.746 565.644C781.228 565.06 763.248 559.277 747.862 548.956C732.476 538.635 720.305 524.193 712.74 507.281C705.176 490.368 702.523 471.669 705.085 453.32C707.648 434.971 715.322 417.713 727.23 403.52C714.49 386.31 905.68 337 905.33 348.07Z" fill="black"/>
</g>
<path d="M31.82 643.73L42.31 643.7H57.1L75.8 339.92L260.99 30.89L252.94 22.25V0.369995L52.66 332.76L31.82 643.73Z" fill="#7B7B7B"/>
<path opacity="0.1" d="M43.43 643.7H57.1L75.8 339.92L260.99 30.89L252.94 22.25L61.92 335.29L43.43 643.7Z" fill="black"/>
<path d="M0.910004 646.26L480.76 682.98L481.17 683.01L945.56 654.45L945.91 654.43V634.82L434.21 625.43L7.3 625.02H4.17999L3.84 627.22L0.910004 646.26Z" fill="#7B7B7B"/>
<path opacity="0.1" d="M0.910004 646.26L480.76 682.98L481.17 683.01L945.56 654.45L945.91 654.07V635.23H945.5L480.76 650.75L7.3 625.02H7.23L6.39 625.57L3.84 627.22L0.910004 646.26Z" fill="black"/>
<path opacity="0.1" d="M0.910004 646.26L480.76 682.98V650.75L6.39 625.57L3.84 627.22L0.910004 646.26Z" fill="black"/>
<path d="M252.88 21.84L464.43 248.9L457.89 648.3L475.86 650.47L476.16 650.51H494.13L496.28 266.05L892.41 398.37L899.09 633.97L913.55 635.59L918.45 636.14L907.11 382.03L493.01 236.65L265.95 0.600006H252.88V21.84Z" fill="#7B7B7B"/>
<path opacity="0.1" d="M494.65 258.7L496.28 266.05L892.41 398.37L899.09 633.97L913.55 635.59L902.21 393.47L494.65 258.7Z" fill="black"/>
<path opacity="0.1" d="M252.88 21.84L464.43 248.9L457.89 648.3L475.86 650.47L480.76 235.83L252.88 0.600006V21.84Z" fill="black"/>
<path d="M495.42 418.99L640.71 447.6L640.76 447.61L895.23 497.74L906.88 493.07L906.84 492.25L906.08 476L495.57 393.05L495.42 418.99Z" fill="#7B7B7B"/>
<path opacity="0.1" d="M640.76 447.61L895.23 497.74L906.88 493.07L906.84 492.25L640.76 447.61Z" fill="black"/>
<path d="M650.49 317.56L654.42 533.9L656.45 644.89L674.34 644.29L685.6 643.91L682.1 320.69L674.34 318.11L672.64 317.56H650.49Z" fill="#7B7B7B"/>
<path opacity="0.1" d="M650.65 317.51V317.56L654.42 533.9L656.45 644.89L674.34 644.29V317.51H650.65Z" fill="black"/>
<path d="M370.26 372.81C371.31 373.38 372.313 374.032 373.26 374.76C374.38 375.741 375.387 376.844 376.26 378.05C380.55 383.6 384.51 390.05 384.09 397.05C384.099 398.068 383.907 399.079 383.524 400.023C383.141 400.966 382.576 401.825 381.86 402.55C380.09 404.06 377.55 404.13 375.23 404.13C372.71 404.13 370.06 404.13 367.88 402.83C365.7 401.53 363.88 399 361.3 399.06C360.936 399.12 360.564 399.12 360.2 399.06C359.31 398.77 359.13 397.6 358.55 396.86C357.55 395.53 355.44 395.86 353.87 396.44C352.3 397.02 350.56 397.89 349.01 397.22C348.11 396.745 347.375 396.01 346.9 395.11C343.19 389.11 342.4 381.9 341.7 374.93C341.27 370.69 337.99 356.23 347.04 359.52C351.04 360.96 354.78 363.84 358.42 365.95L370.26 372.81Z" fill="#181D31"/>
<path d="M361.32 374.24C362.128 374.821 363.108 375.116 364.103 375.076C365.098 375.036 366.051 374.664 366.81 374.02C368.299 372.674 369.248 370.833 369.48 368.84C370.48 368.53 370.99 369.84 371.63 370.64C372.75 372 375.03 371.98 376.05 373.43C376.76 374.43 376.6 375.82 377.1 376.95C377.75 378.41 379.36 379.17 380.46 380.35C381.499 381.639 382.249 383.136 382.66 384.74L384.3 389.66C385.085 391.706 385.589 393.849 385.8 396.03C385.903 397.12 385.789 398.22 385.462 399.266C385.136 400.312 384.605 401.282 383.9 402.12C381.7 404.49 378.09 404.74 374.9 404.67C373.835 404.693 372.771 404.568 371.74 404.3C368.91 403.42 367.1 400.57 366.35 397.7C365.6 394.83 365.68 391.82 365.24 388.88C364.765 385.992 363.925 383.176 362.74 380.5C361.86 378.42 359.44 375.32 359.48 373.11C360.2 373.11 360.72 373.77 361.32 374.24Z" fill="#181D31"/>
<path d="M364.91 364.11C364.443 362.69 364.17 361.213 364.1 359.72C364.1 356.72 365.47 353.9 366.85 351.22L355.42 352.77C354.04 352.96 352.5 353.24 351.72 354.39C351.424 354.96 351.269 355.593 351.269 356.235C351.269 356.877 351.424 357.51 351.72 358.08C352.293 359.221 352.749 360.417 353.08 361.65C353.106 362.729 353.23 363.803 353.45 364.86C353.806 365.636 354.304 366.338 354.92 366.93C358.19 370.55 360.64 374.82 363.08 379.05C363.01 378.93 369.97 373.54 369.69 371.78C369.53 370.78 367.52 369.58 366.88 368.62C365.996 367.227 365.332 365.705 364.91 364.11Z" fill="#BE6F72"/>
<path d="M462.91 325.04V334.89L294.24 367.79L285.49 373.09H255.3V367.54L421.02 327.5L462.91 325.04Z" fill="#7B7B7B"/>
<path opacity="0.1" d="M462.91 334.89L294.24 367.79L285.49 373.09H255.3L422.25 337.36L462.91 334.89Z" fill="black"/>
<path d="M327.49 604.66C325.611 602.384 323.016 600.811 320.129 600.198C317.242 599.584 314.233 599.965 311.59 601.28C311.024 601.546 310.526 601.936 310.13 602.42C309.13 603.82 309.77 605.75 309.86 607.48C310.09 611.7 306.73 615.13 303.71 618.08C302.09 619.66 300.44 621.35 299.71 623.5C298.98 625.65 299.52 628.38 301.48 629.5C302.335 629.929 303.266 630.187 304.22 630.26C307.416 630.884 310.694 630.975 313.92 630.53C317.11 629.92 320.24 628.11 321.62 625.17C321.886 624.373 322.327 623.645 322.91 623.04C324.67 621.65 327.37 623.28 329.37 622.29C331.02 621.47 331.09 620.18 331.11 618.48C331.17 613.78 330.47 608.46 327.49 604.66Z" fill="#078080"/>
<path d="M351.49 604.48C352.72 607.72 352.89 611.25 353.05 614.71C353.14 616.71 353.2 618.85 352.12 620.54C351.04 622.23 348.93 623.12 346.91 623.54C342.74 624.4 337.91 623.59 335.22 620.28C333.16 617.75 332.73 614.28 333.11 611C333.43 608.31 334.11 605.16 332.18 603.25C331.68 602.74 331.03 602.38 330.57 601.83C329.57 600.61 329.73 598.77 330.27 597.27C330.973 595.835 331.5 594.321 331.84 592.76C331.92 592.02 345.38 593.28 346.62 593.89C348.31 594.72 348.05 596.11 348.56 597.79C349.27 600.13 350.63 602.24 351.49 604.48Z" fill="#078080"/>
<path d="M353.96 460.82C356.6 462.53 357.62 465.89 358.03 469.01C359.16 477.56 357.18 486.2 357.03 494.83C356.89 506.92 360.39 519.23 357.4 530.94C355.61 537.94 357.13 545.94 355.45 553.01C354.95 555.11 354.03 557.09 353.55 559.19C352.55 563.74 353.6 568.5 355.01 572.95C355.46 574.149 355.746 575.404 355.86 576.68C355.792 578.644 355.294 580.57 354.4 582.32L348.4 596.51C347.73 598.1 345.09 598.36 343.4 598.57C340.22 598.95 336.67 599.22 334.14 597.25C331.61 595.28 331 591.98 330.61 588.9C329.862 582.987 329.528 577.029 329.61 571.07C329.72 569.515 329.582 567.952 329.2 566.44C328.65 564.73 327.44 563.25 327.11 561.44C326.69 559.1 327.88 556.8 328.32 554.44C328.622 552.284 328.588 550.095 328.22 547.95C327.83 544.75 327.38 541.55 326.87 538.37C326.15 533.92 327.18 529.53 327.87 525.07C328.52 520.88 327.69 516.61 326.87 512.45C326.941 515.826 326.52 519.195 325.62 522.45C325.09 524.04 324.33 525.56 323.87 527.18C321.82 534.45 326.19 542.08 325.57 549.61C325.28 553.13 323.9 556.61 324.29 560.08C324.56 562.62 325.74 564.95 326.55 567.37C327.36 569.79 327.78 572.56 326.55 574.82C323.3 580.96 325.73 589.31 328.64 595.61C329.231 596.727 329.745 597.883 330.18 599.07C331.04 601.91 330.32 604.96 330.55 607.92C329.713 608.057 328.855 608.001 328.042 607.757C327.229 607.513 326.483 607.086 325.86 606.51C325.42 606.05 325.06 605.51 324.63 605.03C323.429 603.885 322.006 602.997 320.45 602.42C319.536 601.909 318.495 601.669 317.45 601.73C316.351 602.037 315.362 602.651 314.6 603.5C313.611 604.37 312.562 605.168 311.46 605.89C310.991 606.251 310.442 606.494 309.86 606.6C309.567 606.645 309.268 606.597 309.004 606.463C308.74 606.328 308.525 606.114 308.39 605.85C308.328 605.683 308.29 605.508 308.28 605.33C307.909 602.311 307.712 599.272 307.69 596.23C307.69 591 301.43 587.4 300.64 582.23C300.01 578.06 301.18 573.81 300.79 569.61C300.6 567.45 300 565.33 300.04 563.17C300.04 561.77 300.36 560.4 300.47 559.01C300.562 557.467 300.538 555.919 300.4 554.38L300.09 549.55C299.79 544.78 299.46 539.91 297.58 535.55C295.351 530.459 294.031 525.017 293.68 519.47C293.48 515.97 293.61 512.47 293.21 508.96C292.85 505.79 292.05 502.64 292.28 499.46C292.47 497 293.28 494.62 293.47 492.16C293.86 487.43 292.06 482.83 290.65 478.3C289.24 473.77 288.2 468.75 290.05 464.38C290.314 463.663 290.754 463.023 291.33 462.52C292.039 462.051 292.847 461.75 293.69 461.64C310.847 458.036 328.434 456.914 345.91 458.31C348.759 458.472 351.524 459.334 353.96 460.82Z" fill="#181D31"/>
<path d="M297.19 354.61C306.038 354.61 313.21 347.438 313.21 338.59C313.21 329.742 306.038 322.57 297.19 322.57C288.342 322.57 281.17 329.742 281.17 338.59C281.17 347.438 288.342 354.61 297.19 354.61Z" fill="#BE6F72"/>
<path d="M294.09 358.6C294.32 359.516 294.32 360.474 294.09 361.39C293.838 362.03 293.483 362.624 293.04 363.15C291.489 365.15 289.773 367.017 287.91 368.73C288.859 370.85 290.568 372.538 292.7 373.46C294.817 374.361 297.037 374.996 299.31 375.35C300.445 375.648 301.625 375.73 302.79 375.59C303.863 375.32 304.88 374.86 305.79 374.23L314.69 368.9C316.033 368.173 317.276 367.275 318.39 366.23C320.022 364.552 320.946 362.311 320.97 359.97C321.011 359.551 320.898 359.131 320.65 358.79C320.309 358.493 319.881 358.314 319.43 358.28C316.3 357.59 313.83 355.05 312.43 352.17C311.164 349.218 310.345 346.093 310 342.9L300.51 347.9C299.1 348.65 297.7 349.4 296.24 350.05C295.31 350.47 293.43 350.82 292.77 351.67C291.51 353.24 293.76 356.71 294.09 358.6Z" fill="#BE6F72"/>
<path d="M287.97 365.82C286.619 366.928 285.564 368.354 284.9 369.97C284.28 371.97 284.9 374.08 285.46 376.06C288.085 384.499 290.09 393.119 291.46 401.85C292.3 407.85 292.61 413.94 293.02 420.01C293.86 432.39 295.08 452.13 296.71 464.43C302.71 464.7 308.56 462.95 314.51 462.31C325.63 461.13 337.08 463.83 347.97 461.31C345.33 450.88 342.69 433.07 340.05 422.65C338.882 418.545 338.072 414.345 337.63 410.1C337.4 407.05 337.54 403.99 337.58 400.92C337.67 394.92 337.34 388.92 337.01 382.92C336.63 375.92 336.25 368.92 334.59 362.07C334.474 361.197 334.065 360.39 333.43 359.78C332.43 359.05 331.13 359.31 329.94 359.47C326.296 359.933 322.608 359.059 319.56 357.01C318.24 356.11 316.47 355.01 315.24 356.01C314.715 356.613 314.369 357.351 314.24 358.14C313.696 359.555 312.856 360.837 311.776 361.901C310.697 362.965 309.402 363.786 307.98 364.31C305.13 365.342 302.146 365.955 299.12 366.13C298.194 366.329 297.228 366.22 296.37 365.82C294.95 364.95 294.85 361.82 293.06 361.61C291.49 361.43 289.03 364.81 287.97 365.82Z" fill="#181D31"/>
<path d="M311.63 390.24C307.94 386.71 306.32 381.59 303.63 377.24C301.798 374.315 299.458 371.741 296.72 369.64C295.344 368.731 294.081 367.66 292.96 366.45C292.01 365.28 291.29 363.72 289.85 363.27C289.255 363.141 288.637 363.158 288.05 363.32C287.463 363.482 286.924 363.784 286.48 364.2C285.598 365.04 284.764 365.928 283.98 366.86C279.74 371.25 272.29 371.86 268.93 376.94C268.024 378.017 267.407 379.308 267.14 380.69C266.173 388.084 268.084 395.566 272.48 401.59C273.331 402.986 274.638 404.046 276.18 404.59C275.971 406.455 276.218 408.342 276.9 410.09C278.752 416.419 281.027 422.616 283.71 428.64C283.068 430.996 282.62 433.401 282.37 435.83C281.67 441.94 282.32 448.14 281.66 454.26C281.12 459.26 279.66 464.13 279.61 469.14C279.61 469.94 279.68 470.89 280.37 471.3C280.737 471.489 281.148 471.575 281.56 471.55L293.86 471.92C301 472.13 308.21 472.34 315.24 471.02C316.176 470.881 317.084 470.595 317.93 470.17C320.31 468.84 321.1 465.84 321.48 463.17C321.976 459.707 322.174 456.207 322.07 452.71C323.56 457.42 325.33 462.29 329.83 464.33C332.21 465.41 334.93 465.33 337.54 465.26C343.165 465.009 348.772 464.432 354.33 463.53C354.673 463.573 355.02 463.534 355.345 463.418C355.67 463.302 355.964 463.112 356.202 462.862C356.44 462.612 356.616 462.31 356.717 461.98C356.817 461.649 356.839 461.3 356.78 460.96L356.84 455.5C356.96 444.41 354.21 433.81 353.14 422.77C352.8 419.29 352.83 415.77 351.98 412.36C351.63 410.93 351.12 409.53 350.81 408.09C350.543 406.68 350.376 405.253 350.31 403.82L349.53 392.82C349.16 387.73 348.63 382.82 348.24 377.74C348.026 372.793 347.309 367.881 346.1 363.08C345.23 360.08 343.42 356.68 340.29 356.31C338.62 356.12 337 356.85 335.41 357.36C331.502 358.59 327.308 358.573 323.41 357.31C322.206 356.834 320.951 356.499 319.67 356.31C319.025 356.222 318.369 356.307 317.768 356.557C317.167 356.807 316.643 357.211 316.25 357.73C315.862 358.511 315.68 359.379 315.72 360.25C315.25 370.24 314.38 380.53 311.63 390.24Z" fill="#078080"/>
<path d="M295.54 390.54C290.93 385.68 286.2 380.73 280.26 377.64C277.92 376.42 275.26 375.5 272.67 375.96C270.08 376.42 267.67 378.67 267.79 381.3C267.87 382.93 268.86 384.37 269.17 385.97C269.53 387.77 269.01 389.69 269.57 391.43C270.025 392.577 270.705 393.62 271.57 394.5L278.65 402.89C281.65 406.39 284.65 409.94 288.51 412.36C292.37 414.78 297.37 415.91 301.61 414.19C304.627 412.788 307.135 410.486 308.79 407.6C310.55 404.8 311.79 401.74 313.44 398.85C316.008 394.232 319.397 390.122 323.44 386.72C321.36 386.18 318.75 385.42 317.44 383.72C317.067 383.18 316.749 382.603 316.49 382L314.87 378.5C314.319 378.471 313.768 378.557 313.252 378.751C312.736 378.946 312.265 379.245 311.87 379.63C311.175 380.433 310.43 381.191 309.64 381.9C308.23 382.96 306.32 383.25 305.04 384.46C304.545 384.979 304.096 385.542 303.7 386.14C302.732 387.412 301.503 388.463 300.096 389.222C298.688 389.981 297.135 390.43 295.54 390.54Z" fill="#181D31"/>
<path d="M323.81 369.63C327.28 363.3 327.12 355.71 328.11 348.56C328.217 346.666 328.882 344.847 330.02 343.33C332.02 341.07 335.55 341.04 338.57 341.33C339.46 341.43 340.57 341.85 340.52 342.74C340.45 343.059 340.294 343.353 340.07 343.59C337.143 347.368 335.421 351.94 335.13 356.71C336.7 357.8 339.13 355.56 340.64 356.71C341.64 357.55 341.18 359.21 340.58 360.41C339.187 363.19 337.75 365.95 336.27 368.69C335.089 371.105 333.548 373.327 331.7 375.28C330.43 376.5 328.94 377.46 327.65 378.66C324.65 381.47 322.84 385.44 319.74 388.18C319.478 388.464 319.123 388.645 318.74 388.69C318.346 388.662 317.974 388.495 317.69 388.22C316.141 386.96 314.857 385.407 313.91 383.65C312.73 381.47 312.91 380.83 314.77 379.29C318.25 376.54 321.64 373.59 323.81 369.63Z" fill="#BE6F72"/>
<path d="M289.74 386.24C290.34 386.61 291.08 387.03 291.74 386.72C292.01 386.557 292.239 386.335 292.41 386.07C293.553 384.544 294.507 382.886 295.25 381.13C295.378 380.882 295.45 380.609 295.46 380.33C295.46 379.69 294.89 379.22 294.36 378.85C291.52 377.04 288.467 375.589 285.27 374.53C282.63 373.53 279.87 372.66 277.07 372.91C276.018 372.981 274.991 373.263 274.051 373.741C273.111 374.219 272.277 374.882 271.6 375.69C269.6 378.26 272.95 379.04 275.05 379.97C279.91 382.18 285.17 383.46 289.74 386.24Z" fill="#078080"/>
<path opacity="0.1" d="M286.59 403.24C286.556 403.468 286.577 403.701 286.65 403.92C286.723 404.139 286.846 404.338 287.01 404.5C287.3 403.08 286.92 401.58 287.22 400.15C287.66 398 289.75 396.38 289.93 394.22C286.1 393.47 286.62 400.92 286.59 403.24Z" fill="black"/>
<path opacity="0.2" d="M462.91 325.04V334.89L422.25 337.36L421.02 327.5L462.91 325.04Z" fill="black"/>
<path d="M282.77 340.97C285.31 338.9 283.84 334.56 285.56 331.78C286.56 330.26 288.25 329.46 289.91 328.78C291.913 327.843 294.06 327.248 296.26 327.02C297.362 326.914 298.473 327.058 299.512 327.44C300.551 327.823 301.49 328.435 302.26 329.23C302.91 329.97 303.35 330.87 303.96 331.64C304.715 332.538 305.7 333.215 306.809 333.599C307.918 333.983 309.111 334.059 310.26 333.82C311.59 333.52 312.97 332.51 312.88 331.15C312.73 330.323 312.307 329.57 311.68 329.01L308.82 325.84C305.57 322.24 301.96 318.42 297.19 317.52C293.87 316.89 290.47 317.78 287.27 318.85C285.98 319.28 284.53 319.92 284.17 321.23C283.93 322.13 284.29 323.11 284.08 324.02C283.67 325.83 281.35 326.44 280.27 327.96C279.19 329.48 279.52 331.28 279.21 332.96C278.9 334.64 278 336.28 277.89 338.02C277.82 339.07 278.35 341.02 279.53 341.4C280.71 341.78 282.04 339.72 282.77 340.97Z" fill="#181D31"/>
<path d="M311.91 329.71C311.067 325.31 309.249 321.155 306.59 317.55C304.226 314.181 300.937 311.57 297.12 310.03C295.212 309.284 293.16 308.981 291.118 309.142C289.076 309.303 287.097 309.925 285.33 310.96C282.706 312.833 280.665 315.408 279.44 318.39C276.85 323.97 275.89 330.79 278.9 336.15C280.1 334.69 282.16 335.35 283.98 334.82C286.26 334.17 288.19 332.65 290.36 331.7C296.91 328.81 304.91 331.15 311.91 329.71Z" fill="#078080"/>
<path opacity="0.1" d="M280.43 329.4C280.2 327.6 280.05 325.51 281.33 324.23C281.394 324.152 281.475 324.089 281.567 324.047C281.659 324.006 281.759 323.986 281.86 323.99C281.949 324.019 282.032 324.066 282.102 324.128C282.173 324.19 282.23 324.265 282.27 324.35C283.009 325.516 283.638 326.748 284.15 328.03C283.405 327.858 282.625 327.914 281.912 328.19C281.199 328.467 280.585 328.951 280.15 329.58" fill="black"/>
<path opacity="0.1" d="M303.8 324.32L303.44 320.75C303.382 320.456 303.406 320.151 303.51 319.87C303.661 319.635 303.893 319.463 304.163 319.389C304.433 319.315 304.72 319.344 304.97 319.47C305.462 319.743 305.867 320.148 306.14 320.64C306.972 321.918 307.663 323.283 308.2 324.71C306.589 324.4 304.933 324.42 303.33 324.77" fill="black"/>
<path opacity="0.1" d="M312.75 469.21V477.37L305.86 477.83H269.62V469.21H312.75Z" fill="black"/>
<path d="M312.75 469.21V477.83H269.62L155.04 334.3V327.52H179.06L312.75 469.21Z" fill="#7B7B7B"/>
<path opacity="0.1" d="M312.75 469.21V477.83H269.62L155.04 334.3V327.52H179.06L312.75 469.21Z" fill="black"/>
<path opacity="0.1" d="M312.75 469.21V477.83H269.62L155.04 334.3V327.52L270.24 469.21H312.75Z" fill="black"/>
<path d="M170.06 613.07C170.135 613.476 170.126 613.892 170.033 614.294C169.94 614.696 169.765 615.075 169.519 615.406C169.274 615.737 168.962 616.014 168.604 616.22C168.246 616.425 167.85 616.555 167.44 616.6C164.66 617.54 161.71 618.47 159.74 620.6C157.77 622.73 157.38 626.68 159.74 628.41C160.946 629.138 162.331 629.515 163.74 629.5C168.27 629.81 172.99 629.75 177.1 627.83C180.04 626.47 182.81 624.15 186.04 624.36C187.71 624.46 189.49 625.24 190.98 624.48C192.47 623.72 192.89 621.6 192.9 619.83C192.938 616.135 192.381 612.458 191.25 608.94C191.1 608.46 184.74 608.09 183.98 607.94L176.27 606.94C174.81 606.75 171.66 605.65 170.51 606.87C169.36 608.09 170.06 611.62 170.06 613.07Z" fill="#078080"/>
<path d="M216.07 588.11C216.396 589.911 216.926 591.669 217.65 593.35C218.72 596.07 220.09 598.96 222.71 600.28C225.09 601.47 228.01 601.04 230.43 599.91C231.44 599.492 232.325 598.82 233 597.96C233.781 596.599 234.129 595.033 234 593.47C234 589.6 233.77 585.6 232 582.16C230.48 579.16 227.83 576.58 227.79 573.26L218.68 575.02C218.192 575.067 217.728 575.251 217.34 575.55C217.051 575.854 216.851 576.231 216.76 576.64C215.787 580.382 215.553 584.278 216.07 588.11Z" fill="#078080"/>
<path d="M107.28 493.11C106.9 496.33 107.06 499.78 108.74 502.56C110.42 505.34 113.96 507.18 117.02 506.07C117.177 506.03 117.324 505.959 117.453 505.861C117.582 505.763 117.689 505.64 117.77 505.5C117.851 505.162 117.805 504.806 117.64 504.5C116.289 500.895 116.4 496.904 117.95 493.38C118.15 492.92 118.58 492.38 119.05 492.56C119.247 492.66 119.405 492.821 119.5 493.02C119.984 493.858 120.226 494.813 120.2 495.78C120.059 496.656 120.032 497.547 120.12 498.43C120.31 499.29 121.23 500.1 122.03 499.73C122.261 499.588 122.461 499.4 122.618 499.179C122.774 498.957 122.884 498.705 122.94 498.44C125.17 491.99 124.16 484.94 123.14 478.19C123.149 478.035 123.123 477.88 123.065 477.736C123.007 477.592 122.918 477.462 122.805 477.357C122.691 477.251 122.556 477.171 122.408 477.123C122.26 477.075 122.104 477.061 121.95 477.08C117.23 476.61 114.65 475.48 111.95 479.87C109.63 483.57 107.28 488.66 107.28 493.11Z" fill="#078080"/>
<path d="M162.46 476.7C161.06 482.52 159.65 488.41 159.56 494.39C159.585 498.115 159.865 501.834 160.4 505.52L161.45 514.18C161.81 517.1 162.16 520.01 162.67 522.9C162.995 524.389 163.173 525.906 163.2 527.43C163.102 528.932 162.864 530.422 162.49 531.88C161.861 534.942 161.51 538.055 161.44 541.18C161.33 546.18 161.95 551.18 162.34 556.18C163.119 566.144 163.001 576.157 161.99 586.1C161.586 588.784 162.169 591.523 163.63 593.81C164.223 594.531 164.711 595.332 165.08 596.19C165.83 598.48 164.08 600.77 163.63 603.12C163.342 604.952 163.793 606.824 164.885 608.324C165.976 609.824 167.618 610.83 169.45 611.12C177.45 612.07 185.67 611.64 192.88 615.3C193.64 613.08 191.98 610.56 192.74 608.3C193.22 606.9 194.54 605.99 195.44 604.81C196.649 603.012 197.252 600.875 197.16 598.71C197.195 595.884 196.693 593.078 195.68 590.44C194.83 588.24 193.61 586.07 193.68 583.71C193.68 582.55 194.09 581.33 193.62 580.26C193.298 579.645 192.86 579.099 192.33 578.65C189.341 575.376 187.505 571.215 187.1 566.8C186.71 562.419 186.851 558.007 187.52 553.66C188.01 549.52 188.67 545.15 191.3 541.92C190.08 532.126 190.797 522.188 193.41 512.67C193.67 511.79 194.08 510.77 194.98 510.56C195.338 510.523 195.699 510.573 196.033 510.706C196.367 510.838 196.664 511.049 196.9 511.32C198.47 512.79 199.22 514.92 199.9 516.96C200.65 519.17 201.41 521.53 200.84 523.79C200.6 524.79 200.12 525.67 199.84 526.63C199.232 528.559 199.338 530.643 200.14 532.5C200.531 533.179 200.776 533.931 200.86 534.71C200.767 535.379 200.565 536.027 200.26 536.63C199.889 537.813 199.771 539.061 199.914 540.293C200.057 541.525 200.458 542.713 201.09 543.78C202.365 545.903 203.937 547.833 205.76 549.51C204.889 553.348 205.114 557.354 206.41 561.07C206.504 561.237 206.563 561.422 206.585 561.612C206.608 561.802 206.592 561.995 206.54 562.18C206.36 562.56 205.9 562.7 205.54 562.97C204.54 563.79 205.16 565.34 205.83 566.41C207.666 569.347 209.694 572.16 211.9 574.83C213.9 577.22 213.72 581.83 216.7 582.69C217.952 582.96 219.248 582.96 220.5 582.69C223.44 582.24 226.72 581.39 228.16 578.79C228.75 577.72 228.99 576.42 229.91 575.62C230.83 574.82 232.02 574.68 232.53 573.72C233.04 572.76 232.47 571.5 232.64 570.39C232.81 569.28 233.78 568.39 234.09 567.22C234.83 564.52 231.68 562.3 231.25 559.54C230.63 555.54 235.67 552.54 235.46 548.54C235.02 539.85 234.74 531.12 234.29 522.43C233.725 514.646 233.645 506.834 234.05 499.04C234.4 494.19 235.05 489.11 233.27 484.6C230.71 478.24 223.65 474.67 216.82 473.99C209.99 473.31 203.18 474.93 196.41 475.99C185.174 477.722 173.759 477.96 162.46 476.7Z" fill="#181D31"/>
<path d="M182.76 381.12C191.608 381.12 198.78 373.948 198.78 365.1C198.78 356.252 191.608 349.08 182.76 349.08C173.912 349.08 166.74 356.252 166.74 365.1C166.74 373.948 173.912 381.12 182.76 381.12Z" fill="#FBBEBE"/>
<path d="M176.24 384.11C175.696 385.377 174.781 386.45 173.615 387.187C172.45 387.924 171.088 388.291 169.71 388.24C169.13 390.64 170.52 393.06 172.11 394.95C175.412 398.792 179.678 401.684 184.47 403.327C189.262 404.971 194.405 405.307 199.37 404.3C201.302 403.954 203.135 403.19 204.74 402.06C206.904 400.253 208.357 397.737 208.84 394.96C209.3 392.202 209.431 389.399 209.23 386.61C209.286 386.059 209.129 385.508 208.79 385.07C208.39 384.76 207.896 384.598 207.39 384.61C204.01 384.31 200.48 384.18 197.51 382.52C194.54 380.86 192.43 377.11 193.86 374.03C193.63 374.51 187.79 374.74 187.02 374.84C184.61 375.18 182.2 375.56 179.8 376C178.647 376.063 177.507 376.278 176.41 376.64C174.96 377.39 175.5 377.02 175.84 378.38C176.35 380.46 177.1 381.95 176.24 384.11Z" fill="#FBBEBE"/>
<path d="M188.43 393.85C186.272 393.875 184.12 393.636 182.02 393.14C179.9 392.645 178.031 391.398 176.76 389.63C176.02 388.51 175.54 387.1 174.36 386.47C172.43 385.47 170.23 387.16 168.69 388.71C167.288 390.239 165.663 391.547 163.87 392.59C161.73 393.72 159.23 394.12 157.21 395.45C155.632 396.642 154.278 398.105 153.21 399.77L139.04 419.07C133.35 426.83 128.4 435.16 123.33 443.35C118.94 450.44 116.64 458.6 113.33 466.25C113.068 466.718 112.959 467.257 113.02 467.79C113.14 468.31 113.77 468.73 114.21 468.43C112.72 469.91 114.03 472.43 113.68 474.51C113.282 475.965 112.452 477.266 111.3 478.24C113.501 477.953 115.736 478.058 117.9 478.55C120.137 479.184 122.248 480.199 124.14 481.55C125.35 481.36 125.24 479.21 126.14 478.41C126.68 477.94 127.48 478 128.19 477.86C130.86 477.34 131.92 474.13 133.97 472.32C135.68 470.81 138.1 470.32 139.91 468.9C142.85 466.59 143.48 462.48 145.02 459.07C146.33 456.18 148.39 453.66 149.54 450.7C150.29 448.78 150.65 446.7 151.72 444.93C153.43 442.07 156.65 440.55 159.72 439.18C161.66 438.31 163.72 437.41 165.81 437.55C165.7 442.2 165.11 446.78 166.12 451.32C166.47 452.92 166.96 454.48 167.38 456.07C169.29 463.23 169.74 470.69 169.83 478.07C174.425 477.019 179.117 476.456 183.83 476.39C187.54 476.28 191.24 476.76 194.95 476.69C199.35 476.61 203.7 475.76 208.1 475.46C212.5 475.16 217.1 475.46 220.99 477.46C220.674 471.122 220.851 464.77 221.52 458.46L222.58 448.52C222.819 445.632 223.264 442.765 223.91 439.94C224.49 437.66 225.33 435.46 225.97 433.19C228.22 425.19 227.81 416.65 227.38 408.32C227.16 404.04 225.51 399.83 223.57 396.02C222.868 394.605 222.066 393.241 221.17 391.94C218.826 388.71 215.701 386.126 212.089 384.43C208.476 382.734 204.493 381.981 200.51 382.24C200.001 382.256 199.5 382.364 199.03 382.56C198.186 383.1 197.527 383.885 197.14 384.81C195.071 388.529 192.069 391.644 188.43 393.85Z" fill="#181D31"/>
<path d="M168.67 370.41C169.12 369.41 170.33 369.04 171.07 368.24C172.49 366.72 171.85 364.29 172.07 362.24C172.43 359.24 174.92 356.73 177.77 355.66C180.676 354.727 183.769 354.531 186.77 355.09C188.215 355.195 189.61 355.659 190.83 356.44C191.35 356.82 191.83 357.31 192.32 357.66C193.213 358.2 194.282 358.369 195.298 358.132C196.315 357.895 197.198 357.27 197.76 356.39C194.22 352.13 190.3 347.63 184.92 346.32C183.074 345.943 181.194 345.766 179.31 345.79C176.82 345.74 174.25 345.7 171.95 346.65C168.82 347.94 166.62 350.91 165.49 354.11C164.502 357.354 163.973 360.72 163.92 364.11C163.715 366.372 163.715 368.648 163.92 370.91C164.307 373.999 165.454 376.944 167.26 379.48C167.504 379.874 167.849 380.195 168.26 380.41C172.82 382.41 168.3 371.24 168.67 370.41Z" fill="#181D31"/>
<path d="M197.24 353.92C196.69 349.21 193.33 345.32 189.76 342.19C186.883 339.476 183.455 337.413 179.71 336.14C175.94 335.03 171.6 335.27 168.37 337.52C165.77 339.33 164.12 342.21 162.85 345.11C161.182 348.532 160.355 352.304 160.44 356.11C160.69 359.89 162.53 363.72 165.81 365.63C166.99 363.89 169.04 362.99 171.01 362.28C179.596 359.022 188.352 356.232 197.24 353.92Z" fill="#078080"/>
<path opacity="0.1" d="M166.91 351.96C167.23 351.96 167.44 352.29 167.6 352.56C168.414 353.829 169.114 355.167 169.69 356.56C168.52 356.81 166.51 357.09 165.93 356.06C165.62 355.54 165.99 351.91 166.91 351.96Z" fill="black"/>
<path opacity="0.1" d="M189.7 349.7C189.46 349.93 189.18 349.46 189.18 349.12V345.24C189.173 345.132 189.198 345.025 189.25 344.93C189.291 344.883 189.342 344.844 189.399 344.816C189.455 344.789 189.517 344.773 189.58 344.77C190.39 344.68 191.06 345.37 191.58 346.03C192.369 347.1 193.056 348.241 193.63 349.44L189.4 349.31" fill="black"/>
<path d="M242.49 413.95C243.41 413.076 244.393 412.271 245.43 411.54C248.2 409.69 251.55 408.96 254.66 407.78C257.77 406.6 260.93 404.69 262.14 401.59C262.746 399.652 262.943 397.609 262.72 395.59C262.749 394.745 262.599 393.903 262.28 393.12C261.899 392.428 261.357 391.838 260.7 391.4C256.48 388.28 250.82 388.03 245.58 388.35C234.027 389.066 222.704 391.893 212.17 396.69C211.613 396.874 211.125 397.223 210.77 397.69C210.565 398.123 210.472 398.601 210.5 399.08C210.314 402.029 210.697 404.986 211.63 407.79C213.01 411.35 215.85 414.22 217.04 417.85C217.58 419.48 217.76 421.21 218.23 422.85C218.616 424.544 219.617 426.034 221.04 427.03C224.99 429.39 228.72 426.22 231.46 423.76L242.49 413.95Z" fill="#181D31"/>
<path d="M190.76 427.8L185.69 416.74C184.947 415.207 184.305 413.627 183.77 412.01C183.19 410.08 182.91 408.08 182.37 406.14C180.59 399.68 176.1 394.3 173.91 387.97C173.772 387.398 173.489 386.872 173.09 386.44C172.77 386.214 172.405 386.061 172.02 385.992C171.634 385.923 171.238 385.939 170.86 386.04C167.8 386.57 165.41 388.9 162.61 390.22C161.31 390.82 159.91 391.22 158.61 391.91C157.96 392.218 157.384 392.662 156.922 393.213C156.459 393.763 156.121 394.407 155.93 395.1C155.62 396.63 156.38 398.1 157.02 399.59C159.74 405.73 160.36 412.59 160.48 419.31C160.57 423.83 160.34 428.68 157.67 432.31C152.54 439.31 155.82 449.59 157.74 458.06C157.97 459.06 158.24 460.14 158.4 461.2C158.569 462.526 158.646 463.863 158.63 465.2C158.63 469.69 158.38 474.32 156.5 478.39C158.356 479.378 160.402 479.957 162.5 480.09C168.307 480.83 174.137 481.35 179.99 481.65C181.824 481.822 183.673 481.728 185.48 481.37C187.626 480.79 189.517 479.512 190.855 477.737C192.194 475.962 192.903 473.792 192.87 471.57C193.19 474.34 193.78 477.35 195.79 479.27C197.8 481.19 200.73 481.48 203.46 481.63C211.165 482.039 218.89 481.821 226.56 480.98C227.05 480.958 227.531 480.846 227.98 480.65C229.46 479.91 229.54 477.87 229.42 476.23C229.2 473.16 228.97 470.09 228.6 467.04C228.286 465.096 228.126 463.13 228.12 461.16C228.272 459.134 228.607 457.126 229.12 455.16C230.46 448.92 231.52 442.55 231.07 436.16C230.892 434.603 230.829 433.036 230.88 431.47C231.14 427.94 233 424.58 232.65 421.07C231.65 410.75 230.84 400.16 227.96 390.2C227.44 388.42 226.78 386.51 225.23 385.49C223.23 384.15 220.42 384.85 218.13 384C217.055 383.5 216.034 382.894 215.08 382.19C213.008 380.894 210.632 380.163 208.19 380.07C206.35 380 204.3 380.41 203.19 381.89C202.676 382.723 202.336 383.652 202.19 384.62C200.74 390.72 199.04 396.75 197.34 402.78L195.71 408.56L191.34 424.08C190.91 425.73 191.2 426.24 190.76 427.8Z" fill="#078080"/>
<path d="M216.33 367.25L313.06 468.9V477.52H269.93L197.24 382.65" fill="#7B7B7B"/>
<path opacity="0.1" d="M216.33 367.25L313.06 468.9V477.52H269.93L197.24 382.65" fill="black"/>
<path opacity="0.1" d="M198.78 381.31L199.09 381.42L270.55 468.9H313.06V477.52H269.93L197.24 382.65L198.78 381.31Z" fill="black"/>
<path d="M209.91 383.45C206.41 384.98 202.52 386.94 201.47 390.62C201.263 391.266 201.218 391.953 201.34 392.62C201.596 393.405 202.083 394.093 202.739 394.595C203.394 395.097 204.186 395.388 205.01 395.43C206.657 395.47 208.294 395.17 209.82 394.55L230.47 387.73C231.03 387.55 231.67 387.28 231.81 386.73C231.846 386.384 231.776 386.035 231.61 385.73C230.97 384.17 230.34 380.98 229 379.89C227.9 379.01 225.72 379.32 224.39 379.34C219.27 379.38 214.46 381.45 209.91 383.45Z" fill="#078080"/>
<path d="M228.32 388.54C231.799 388.53 235.258 389.066 238.57 390.13C241.897 391.21 244.844 393.223 247.06 395.93C247.705 396.687 248.164 397.584 248.4 398.55C248.6 399.55 251.86 400.15 251.14 400.83C253.33 400.48 252.81 401.51 255.03 401.49C257.25 401.47 259.65 400.9 260.98 399.13C261.904 397.676 262.316 395.955 262.15 394.24C262.179 393.053 261.954 391.873 261.49 390.78C260.49 388.68 258.19 387.55 256.07 386.58L238.21 378.41C237.174 377.859 236.062 377.465 234.91 377.24C233.941 377.148 232.964 377.172 232 377.31L223.91 378.24C225.679 379.385 227.12 380.971 228.089 382.842C229.059 384.713 229.525 386.804 229.44 388.91" fill="#181D31"/>
</svg>
