<svg width="192" height="28" viewBox="0 0 192 28" fill="none" xmlns="http://www.w3.org/2000/svg">
<g filter="url(#filter0_d)">
<path d="M15.7066 14.824C12.0292 15.272 9.42523 15.664 7.89456 16L6.38256 21.992C6.2519 22.5333 6.0559 22.8973 5.79456 23.084C5.5519 23.2707 5.05723 23.364 4.31056 23.364C3.7319 23.364 3.30256 23.2613 3.02256 23.056C2.76123 22.8693 2.63056 22.5427 2.63056 22.076C2.63056 21.8707 2.65856 21.6747 2.71456 21.488L6.55056 6.34C6.7559 5.51867 6.97056 4.97733 7.19456 4.716C7.43723 4.436 7.86656 4.296 8.48256 4.296C8.98656 4.296 9.4439 4.352 9.85456 4.464C10.2839 4.576 10.5079 4.744 10.5266 4.968C10.5266 5.00533 10.4052 5.50933 10.1626 6.48C9.78923 7.91733 9.25723 10.1013 8.56656 13.032C11.3292 12.472 13.9519 12.0893 16.4346 11.884L17.7226 6.676C17.9092 5.92933 18.1612 5.37867 18.4786 5.024C18.8146 4.65067 19.2626 4.408 19.8226 4.296C20.5132 4.42667 20.9612 4.53867 21.1666 4.632C21.3906 4.70667 21.5399 4.828 21.6146 4.996C21.3719 5.68667 21.1852 6.33067 21.0546 6.928C20.9426 7.50667 20.8772 7.852 20.8586 7.964C20.6159 9.27067 20.3266 10.6053 19.9906 11.968C20.7186 12.2853 21.0826 12.7147 21.0826 13.256C21.0826 13.7973 20.5039 14.2547 19.3466 14.628C19.1412 15.3747 18.7586 16.9987 18.1986 19.5C18.0679 20.1907 17.8812 21.0493 17.6386 22.076C17.3772 23.1027 16.9666 23.616 16.4066 23.616C14.6892 23.616 13.8306 23.2147 13.8306 22.412C13.8306 22.244 14.4559 19.7147 15.7066 14.824ZM30.6868 23.588C29.0441 23.588 27.7654 23.028 26.8508 21.908C25.9361 20.788 25.4788 19.36 25.4788 17.624C25.4788 16.168 25.8241 14.796 26.5148 13.508C27.2241 12.22 28.1854 11.184 29.3988 10.4C30.6121 9.616 31.9468 9.224 33.4028 9.224C34.8401 9.224 36.0161 9.7 36.9308 10.652C37.8641 11.5853 38.3308 12.9667 38.3308 14.796C38.3308 16.084 37.9761 17.4187 37.2668 18.8C36.5574 20.1813 35.6054 21.3293 34.4108 22.244C33.2348 23.14 31.9934 23.588 30.6868 23.588ZM31.1068 21.348C31.7041 21.348 32.3014 20.9747 32.8988 20.228C33.5148 19.4813 34.0188 18.5387 34.4108 17.4C34.8028 16.2613 34.9988 15.1507 34.9988 14.068C34.9988 12.4067 34.3081 11.576 32.9268 11.576C32.1614 11.576 31.4614 11.94 30.8268 12.668C30.1921 13.396 29.6881 14.3013 29.3148 15.384C28.9414 16.448 28.7548 17.4467 28.7548 18.38C28.7548 18.9213 28.8761 19.4253 29.1188 19.892C29.3614 20.34 29.6601 20.6947 30.0148 20.956C30.3881 21.2173 30.7521 21.348 31.1068 21.348ZM43.8975 10.204C43.8415 10.148 43.8135 10.0827 43.8135 10.008C43.8135 9.82133 44.0189 9.672 44.4295 9.56C44.8402 9.42933 45.4095 9.364 46.1375 9.364C46.7909 9.364 47.2295 9.55067 47.4535 9.924C47.6775 10.2787 47.8175 10.7453 47.8735 11.324C47.8362 11.4733 47.7989 11.6787 47.7615 11.94L47.6215 12.612C48.1629 11.9773 48.9655 11.3613 50.0295 10.764C51.0935 10.148 51.9242 9.84 52.5215 9.84C53.4549 9.84 54.0989 10.008 54.4535 10.344C54.8269 10.6613 55.0415 11.2773 55.0975 12.192C55.7882 11.5387 56.5815 10.988 57.4775 10.54C58.3735 10.0733 59.1575 9.84 59.8295 9.84C60.5389 9.84 61.1922 9.98933 61.7895 10.288C62.3869 10.568 62.6855 11.0253 62.6855 11.66C62.6855 11.828 62.6762 11.9587 62.6575 12.052C62.6015 12.3507 62.4895 12.7707 62.3215 13.312C62.1722 13.8347 62.0602 14.2173 61.9855 14.46C61.5189 15.972 61.1549 17.2507 60.8935 18.296C60.6509 19.3227 60.5015 20.3307 60.4455 21.32L60.8375 22.692C60.6135 23.1213 60.2962 23.4573 59.8855 23.7C59.4935 23.9613 58.9149 24.092 58.1495 24.092C57.7015 24.092 57.3749 23.9427 57.1695 23.644C56.9642 23.3453 56.8615 22.972 56.8615 22.524C56.8615 22.4307 56.8709 22.328 56.8895 22.216C56.9082 22.104 56.9175 22.0013 56.9175 21.908C56.9549 20.8627 57.1042 19.808 57.3655 18.744C57.6455 17.6613 58.0002 16.448 58.4295 15.104C58.8215 13.928 59.0175 13.2093 59.0175 12.948C59.0175 12.836 58.9989 12.724 58.9615 12.612C58.9429 12.4813 58.9149 12.416 58.8775 12.416C58.4482 12.416 57.7389 12.6213 56.7495 13.032C55.7789 13.4427 55.1255 13.8533 54.7895 14.264C54.4349 15.4027 53.8469 17.7733 53.0255 21.376L52.8575 22.16C52.7642 22.6453 52.6709 22.9813 52.5775 23.168C52.5029 23.3547 52.3442 23.4947 52.1015 23.588C51.8589 23.6813 51.4669 23.728 50.9255 23.728C49.6375 23.728 48.9935 23.4667 48.9935 22.944C49.1429 22.5333 49.5535 20.956 50.2255 18.212C50.6362 16.5133 51.1029 14.6373 51.6255 12.584C51.5135 12.64 51.3082 12.724 51.0095 12.836C50.1135 13.1907 49.3295 13.5547 48.6575 13.928C48.0042 14.3013 47.4722 14.74 47.0615 15.244L46.3335 18.212C46.2215 18.66 46.1189 19.08 46.0255 19.472C45.9322 19.8453 45.8482 20.1627 45.7735 20.424C45.6802 20.7413 45.6149 21.1707 45.5775 21.712C45.5402 22.0853 45.4842 22.356 45.4095 22.524C45.3535 22.692 45.1949 22.832 44.9335 22.944C44.6909 23.0373 44.2989 23.084 43.7575 23.084C43.1415 23.084 42.6749 23.0187 42.3575 22.888C42.0402 22.7573 41.8815 22.4773 41.8815 22.048C41.8815 21.8427 42.1149 20.7507 42.5815 18.772C43.0669 16.7933 43.7202 14.2173 44.5415 11.044L43.8975 10.204ZM71.7177 23.588C69.8884 23.588 68.5537 23.224 67.7137 22.496C66.8737 21.768 66.4537 20.7973 66.4537 19.584C66.4537 17.8107 66.8924 16.168 67.7697 14.656C68.6657 13.144 69.8511 11.9493 71.3257 11.072C72.8191 10.176 74.4244 9.728 76.1417 9.728C77.1871 9.728 78.0644 10.0267 78.7737 10.624C79.4831 11.2027 79.8377 12.0613 79.8377 13.2C79.8377 14.4693 79.3617 15.4773 78.4097 16.224C77.4764 16.952 76.2911 17.4933 74.8537 17.848C73.4351 18.184 71.7271 18.4453 69.7297 18.632C69.6551 18.912 69.6177 19.2013 69.6177 19.5C69.6177 20.0227 69.8324 20.424 70.2617 20.704C70.7097 20.984 71.3351 21.124 72.1377 21.124C72.7351 21.124 73.4164 21.0027 74.1817 20.76C74.9657 20.5173 75.5631 20.116 75.9737 19.556C76.1977 19.2387 76.4777 18.9867 76.8137 18.8C77.1684 18.6133 77.5044 18.52 77.8217 18.52C78.1204 18.52 78.3631 18.6227 78.5497 18.828C78.7364 19.0147 78.8297 19.304 78.8297 19.696C78.6057 20.2933 78.1671 20.9 77.5137 21.516C76.8604 22.1133 76.0297 22.608 75.0217 23C74.0137 23.392 72.9124 23.588 71.7177 23.588ZM70.5137 16.056C71.1671 16.0373 71.9884 15.9347 72.9777 15.748C73.9671 15.5613 74.8631 15.2347 75.6657 14.768C76.4684 14.2827 76.8697 13.648 76.8697 12.864C76.8697 12.64 76.7484 12.4627 76.5057 12.332C76.2631 12.1827 76.0017 12.108 75.7217 12.108C75.1617 12.108 74.5177 12.3227 73.7897 12.752C73.0804 13.1813 72.4177 13.704 71.8017 14.32C71.1857 14.936 70.7564 15.5147 70.5137 16.056ZM105.001 4.296C105.691 4.42667 106.139 4.53867 106.345 4.632C106.569 4.70667 106.718 4.828 106.793 4.996C106.401 6.508 105.887 8.65467 105.253 11.436C104.618 14.1987 104.189 16.056 103.965 17.008C103.554 18.912 103.171 20.6013 102.817 22.076C102.555 23.1027 102.145 23.616 101.585 23.616C99.8672 23.616 99.0085 23.2147 99.0085 22.412C99.0085 22.6547 99.2232 21.7773 99.6525 19.78C100.082 17.7827 100.343 16.5693 100.437 16.14L101.053 13.228L94.8365 22.3C94.5379 22.6733 94.0992 22.86 93.5205 22.86C93.0352 22.86 92.5779 22.7387 92.1485 22.496C91.7379 22.2533 91.5605 22.0107 91.6165 21.768C91.4859 21.1333 91.2432 19.9293 90.8885 18.156C90.5339 16.364 90.1699 14.4973 89.7965 12.556L87.4445 21.992C87.3139 22.5333 87.1085 22.8973 86.8285 23.084C86.5672 23.2707 86.0632 23.364 85.3165 23.364C84.7379 23.364 84.3085 23.2613 84.0285 23.056C83.7672 22.8693 83.6365 22.5427 83.6365 22.076C83.6365 21.8707 83.6645 21.6747 83.7205 21.488L87.5565 6.34C87.7619 5.51867 87.9765 4.97733 88.2005 4.716C88.4432 4.436 88.8725 4.296 89.4885 4.296C89.9925 4.296 90.4405 4.352 90.8325 4.464C91.2245 4.576 91.4299 4.744 91.4485 4.968V5.024L94.0245 18.94L102.901 5.5C103.087 5.08933 103.293 4.81867 103.517 4.688C103.759 4.55733 104.03 4.47333 104.329 4.436C104.627 4.38 104.851 4.33333 105.001 4.296ZM121.758 22.524C121.646 22.86 121.347 23.084 120.862 23.196C120.395 23.3267 119.984 23.392 119.63 23.392C119.312 23.392 119.098 23.308 118.986 23.14C118.874 22.9907 118.78 22.7667 118.706 22.468C118.631 22.1507 118.575 21.9267 118.538 21.796C117.754 22.3373 116.942 22.748 116.102 23.028C115.28 23.3267 114.59 23.476 114.03 23.476C113.47 23.476 112.891 23.3453 112.294 23.084C111.715 22.8413 111.211 22.412 110.782 21.796C110.352 21.1613 110.138 20.3213 110.138 19.276C110.138 18.212 110.464 16.9333 111.118 15.44C111.79 13.928 112.742 12.6213 113.974 11.52C115.224 10.4 116.68 9.84 118.342 9.84C119.182 9.84 120.012 10.0453 120.834 10.456C121.655 10.848 122.327 11.352 122.85 11.968C123.372 12.5653 123.643 13.172 123.662 13.788L123.298 14.768C122.775 16.224 122.364 17.4653 122.066 18.492C121.767 19.5 121.618 20.4053 121.618 21.208C121.618 21.7493 121.664 22.188 121.758 22.524ZM118.566 19.444C118.734 18.9773 118.939 18.3707 119.182 17.624C119.592 16.2053 119.984 15.0107 120.358 14.04C120.283 13.7787 120.115 13.508 119.854 13.228C119.592 12.9293 119.322 12.6867 119.042 12.5C118.762 12.2947 118.566 12.192 118.454 12.192C117.763 12.192 117.026 12.612 116.242 13.452C115.458 14.2733 114.795 15.2533 114.254 16.392C113.731 17.5307 113.47 18.52 113.47 19.36C113.47 19.7333 113.582 20.088 113.806 20.424C114.03 20.7413 114.272 20.9 114.534 20.9C114.963 20.9 115.644 20.7413 116.578 20.424C117.53 20.088 118.192 19.7613 118.566 19.444ZM141.244 10.96C140.908 11.184 140.199 11.6693 139.116 12.416C138.034 13.144 136.97 13.8907 135.924 14.656C134.898 15.4027 134.347 15.86 134.272 16.028C134.496 16.7187 135.299 17.7733 136.68 19.192C138.062 20.592 139.275 21.656 140.32 22.384C140.302 22.7387 140.078 23.1213 139.648 23.532C139.219 23.9427 138.846 24.148 138.528 24.148C138.23 24.148 137.996 24.1107 137.828 24.036C137.418 23.8867 136.783 23.4107 135.924 22.608C135.084 21.8053 134.254 20.9 133.432 19.892C132.611 18.884 132.032 17.988 131.696 17.204C131.155 19.3693 130.763 20.8627 130.52 21.684C130.296 22.5053 130.119 23.0373 129.988 23.28C129.858 23.5227 129.69 23.644 129.484 23.644L128.784 23.672C127.552 23.672 126.908 23.1773 126.852 22.188C127.226 21.2733 127.487 20.5173 127.636 19.92C129.484 13.0693 130.8 7.908 131.584 4.436C131.584 4.19333 131.65 3.82 131.78 3.316C131.93 2.79333 132.116 2.32667 132.34 1.916C132.583 1.50533 132.844 1.3 133.124 1.3C133.591 1.3 134.067 1.45867 134.552 1.776C135.056 2.09333 135.318 2.476 135.336 2.924C134.534 6.004 133.6 9.672 132.536 13.928C133.003 13.3867 133.694 12.752 134.608 12.024C135.542 11.296 136.484 10.652 137.436 10.092C138.388 9.51333 139.144 9.17733 139.704 9.084C139.854 9.084 140.124 9.13067 140.516 9.224C140.927 9.31733 141.188 9.448 141.3 9.616C141.356 9.69067 141.384 9.88667 141.384 10.204C141.384 10.6147 141.338 10.8667 141.244 10.96ZM150.183 23.588C148.354 23.588 147.019 23.224 146.179 22.496C145.339 21.768 144.919 20.7973 144.919 19.584C144.919 17.8107 145.358 16.168 146.235 14.656C147.131 13.144 148.317 11.9493 149.791 11.072C151.285 10.176 152.89 9.728 154.607 9.728C155.653 9.728 156.53 10.0267 157.239 10.624C157.949 11.2027 158.303 12.0613 158.303 13.2C158.303 13.8533 158.089 14.3947 157.659 14.824C157.249 15.2347 156.651 15.608 155.867 15.944C155.083 16.2613 153.814 16.7187 152.059 17.316C150.473 17.8387 149.185 18.2773 148.195 18.632C148.121 18.912 148.083 19.2013 148.083 19.5C148.083 20.0227 148.298 20.424 148.727 20.704C149.175 20.984 149.801 21.124 150.603 21.124C151.107 21.124 151.686 21.0213 152.339 20.816C152.993 20.6107 153.403 20.3493 153.571 20.032C154.206 18.8747 154.785 18.296 155.307 18.296C156.073 18.296 156.586 18.4453 156.847 18.744C157.127 19.024 157.277 19.3413 157.295 19.696C157.071 20.2933 156.633 20.9 155.979 21.516C155.326 22.1133 154.495 22.608 153.487 23C152.479 23.392 151.378 23.588 150.183 23.588ZM148.979 16.056C150.827 15.4587 152.349 14.908 153.543 14.404C154.738 13.8813 155.335 13.368 155.335 12.864C155.335 12.64 155.214 12.4627 154.971 12.332C154.729 12.1827 154.467 12.108 154.187 12.108C153.627 12.108 152.983 12.3227 152.255 12.752C151.546 13.1813 150.883 13.704 150.267 14.32C149.651 14.936 149.222 15.5147 148.979 16.056ZM165.826 21.936C165.807 22.0667 165.77 22.2907 165.714 22.608C165.677 22.9253 165.537 23.1493 165.294 23.28C165.07 23.4107 164.687 23.476 164.146 23.476C163.53 23.476 163.073 23.4107 162.774 23.28C162.475 23.1493 162.317 22.8693 162.298 22.44C162.447 21.6933 162.69 20.368 163.026 18.464C163.138 17.8293 163.315 16.8773 163.558 15.608C163.801 14.32 163.987 13.3867 164.118 12.808C164.305 11.4827 164.566 10.6147 164.902 10.204C165.238 9.77467 165.649 9.56 166.134 9.56C166.787 9.56 167.217 9.65333 167.422 9.84C167.646 10.0267 167.767 10.2693 167.786 10.568L167.562 12.22C168.122 11.492 168.785 10.8947 169.55 10.428C170.315 9.94267 171.006 9.7 171.622 9.7C172.443 9.7 173.087 9.84933 173.554 10.148C174.021 10.428 174.254 10.792 174.254 11.24C174.254 11.576 174.049 11.8373 173.638 12.024C173.246 12.2107 172.723 12.332 172.07 12.388C171.043 12.4813 170.026 12.92 169.018 13.704C168.01 14.488 167.282 15.412 166.834 16.476L165.826 21.936ZM185.795 12.164C185.571 12.052 185.291 11.996 184.955 11.996C184.115 11.996 183.275 12.164 182.435 12.5C181.595 12.836 181.175 13.2653 181.175 13.788C181.175 14.1613 181.343 14.46 181.679 14.684C182.015 14.908 182.547 15.16 183.275 15.44C184.059 15.7573 184.693 16.056 185.179 16.336C185.664 16.616 186.084 17.0267 186.439 17.568C186.812 18.0907 186.999 18.7627 186.999 19.584C186.999 20.928 186.439 21.964 185.319 22.692C184.217 23.4013 182.733 23.756 180.867 23.756C179.952 23.756 179.103 23.616 178.319 23.336C177.535 23.056 176.909 22.7013 176.443 22.272C175.995 21.824 175.752 21.3853 175.715 20.956C175.715 20.508 175.911 20.144 176.303 19.864C176.695 19.5653 177.245 19.3693 177.955 19.276C177.973 19.6493 178.169 20.004 178.543 20.34C178.916 20.6573 179.355 20.9187 179.859 21.124C180.381 21.3107 180.829 21.404 181.203 21.404C181.837 21.404 182.416 21.236 182.939 20.9C183.461 20.5453 183.723 20.1347 183.723 19.668C183.723 18.8093 182.892 18.128 181.231 17.624C180.167 17.3067 179.345 16.8027 178.767 16.112C178.207 15.4213 177.927 14.6933 177.927 13.928C177.927 12.416 178.608 11.3333 179.971 10.68C181.352 10.008 183.107 9.672 185.235 9.672C186.429 9.672 187.353 9.812 188.007 10.092C188.66 10.372 188.987 10.8573 188.987 11.548C188.987 12.0147 188.809 12.4253 188.455 12.78C188.119 13.1347 187.633 13.312 186.999 13.312C186.439 13.312 186.075 13.2747 185.907 13.2C185.757 13.1067 185.673 12.9573 185.655 12.752C185.655 12.5653 185.701 12.3693 185.795 12.164Z" fill="url(#paint0_linear)"/>
<path d="M15.7066 14.824L15.9488 14.8859L16.0394 14.5316L15.6763 14.5758L15.7066 14.824ZM7.89456 16L7.84096 15.7558L7.68998 15.789L7.65216 15.9388L7.89456 16ZM6.38256 21.992L6.14015 21.9308L6.13954 21.9333L6.38256 21.992ZM5.79456 23.084L5.64916 22.8804L5.64214 22.8858L5.79456 23.084ZM3.02256 23.056L3.17042 22.8544L3.16787 22.8526L3.02256 23.056ZM2.71456 21.488L2.95425 21.5599L2.95691 21.5494L2.71456 21.488ZM6.55056 6.34L6.79292 6.40137L6.7931 6.40063L6.55056 6.34ZM7.19456 4.716L7.00564 4.55226L7.00475 4.5533L7.19456 4.716ZM9.85456 4.464L9.78878 4.7052L9.79146 4.7059L9.85456 4.464ZM10.5266 4.968H10.7766V4.9576L10.7757 4.94724L10.5266 4.968ZM10.1626 6.48L10.4045 6.54285L10.4051 6.54063L10.1626 6.48ZM8.56656 13.032L8.32323 12.9747L8.2337 13.3546L8.61623 13.277L8.56656 13.032ZM16.4346 11.884L16.4552 12.1331L16.6341 12.1183L16.6773 11.944L16.4346 11.884ZM17.7226 6.676L17.48 6.61537L17.4799 6.61598L17.7226 6.676ZM18.4786 5.024L18.2927 4.85676L18.2923 4.8573L18.4786 5.024ZM19.8226 4.296L19.869 4.05036L19.8212 4.04131L19.7735 4.05085L19.8226 4.296ZM21.1666 4.632L21.0631 4.85959L21.0751 4.86502L21.0875 4.86917L21.1666 4.632ZM21.6146 4.996L21.8504 5.07887L21.8833 4.9852L21.843 4.89447L21.6146 4.996ZM21.0546 6.928L20.8103 6.87456L20.8091 6.88049L21.0546 6.928ZM20.8586 7.964L21.1044 8.00965L21.1052 8.0051L20.8586 7.964ZM19.9906 11.968L19.7478 11.9081L19.6973 12.1129L19.8907 12.1972L19.9906 11.968ZM19.3466 14.628L19.2698 14.3901L19.1413 14.4315L19.1055 14.5617L19.3466 14.628ZM18.1986 19.5L17.9545 19.4454L17.9529 19.4535L18.1986 19.5ZM17.6386 22.076L17.8809 22.1377L17.8819 22.1335L17.6386 22.076ZM15.6763 14.5758C11.9988 15.0239 9.38435 15.417 7.84096 15.7558L7.94817 16.2442C9.46611 15.911 12.0596 15.5201 15.7368 15.0722L15.6763 14.5758ZM7.65216 15.9388L6.14016 21.9308L6.62497 22.0532L8.13697 16.0612L7.65216 15.9388ZM6.13954 21.9333C6.01356 22.4553 5.8367 22.7467 5.64925 22.8806L5.93987 23.2874C6.27509 23.048 6.49024 22.6114 6.62559 22.0507L6.13954 21.9333ZM5.64214 22.8858C5.56581 22.9446 5.42591 23.0048 5.19521 23.0483C4.96856 23.0911 4.67503 23.114 4.31056 23.114V23.614C4.69276 23.614 5.0199 23.5902 5.28792 23.5397C5.55189 23.4899 5.78065 23.4101 5.94699 23.2822L5.64214 22.8858ZM4.31056 23.114C3.75289 23.114 3.38734 23.0135 3.17041 22.8544L2.87472 23.2576C3.21779 23.5092 3.7109 23.614 4.31056 23.614V23.114ZM3.16787 22.8526C2.99845 22.7315 2.88056 22.5007 2.88056 22.076H2.38056C2.38056 22.5847 2.52402 23.0071 2.87725 23.2594L3.16787 22.8526ZM2.88056 22.076C2.88056 21.8937 2.90538 21.722 2.95402 21.5598L2.47511 21.4162C2.41175 21.6274 2.38056 21.8476 2.38056 22.076H2.88056ZM2.95691 21.5494L6.79291 6.40137L6.30821 6.27863L2.47221 21.4266L2.95691 21.5494ZM6.7931 6.40063C6.89417 5.99634 6.99607 5.66709 7.09796 5.41015C7.20113 5.14999 7.2986 4.97877 7.38438 4.8787L7.00475 4.5533C6.86653 4.71456 6.74467 4.94468 6.63317 5.22584C6.52039 5.51024 6.41229 5.86232 6.30803 6.27937L6.7931 6.40063ZM7.38349 4.87973C7.55493 4.68191 7.89257 4.546 8.48256 4.546V4.046C7.84056 4.046 7.31953 4.19009 7.00564 4.55227L7.38349 4.87973ZM8.48256 4.546C8.9683 4.546 9.40306 4.59999 9.78879 4.70519L9.92034 4.22281C9.48473 4.104 9.00483 4.046 8.48256 4.046V4.546ZM9.79146 4.7059C9.99097 4.75795 10.1192 4.81751 10.1946 4.874C10.2646 4.9265 10.2754 4.96481 10.2774 4.98876L10.7757 4.94724C10.759 4.74718 10.6486 4.5895 10.4946 4.474C10.3459 4.36249 10.1475 4.28205 9.91767 4.22209L9.79146 4.7059ZM10.2766 4.968C10.2766 4.94814 10.2794 4.9342 10.2782 4.94132C10.278 4.94296 10.2772 4.94737 10.2756 4.95556C10.2724 4.97167 10.2673 4.99577 10.2599 5.02882C10.2451 5.09455 10.2227 5.18987 10.1925 5.31549C10.1321 5.5664 10.0413 5.93422 9.92003 6.41936L10.4051 6.54063C10.5265 6.05511 10.6177 5.6856 10.6786 5.43251C10.709 5.30613 10.7322 5.20778 10.7478 5.13818C10.7555 5.10356 10.7618 5.07458 10.7662 5.05219C10.7683 5.04113 10.7704 5.02994 10.7721 5.01961C10.7728 5.01478 10.7766 4.99253 10.7766 4.968H10.2766ZM9.92059 6.41715C9.54652 7.85734 9.01399 10.0436 8.32323 12.9747L8.8099 13.0893C9.50048 10.1591 10.0319 7.97732 10.4045 6.54285L9.92059 6.41715ZM8.61623 13.277C11.3705 12.7187 13.9834 12.3376 16.4552 12.1331L16.414 11.6348C13.9204 11.8411 11.2879 12.2253 8.5169 12.787L8.61623 13.277ZM16.6773 11.944L17.9653 6.73602L17.4799 6.61598L16.1919 11.824L16.6773 11.944ZM17.9651 6.73663C18.1473 6.00768 18.3864 5.50196 18.6649 5.1907L18.2923 4.8573C17.9361 5.25537 17.6711 5.85098 17.48 6.61537L17.9651 6.73663ZM18.6644 5.19124C18.9595 4.8633 19.3568 4.6441 19.8716 4.54114L19.7735 4.05085C19.1683 4.1719 18.6696 4.43803 18.2927 4.85676L18.6644 5.19124ZM19.7761 4.54164C20.4727 4.67344 20.89 4.78091 21.0631 4.85959L21.27 4.40441C21.0324 4.29642 20.5537 4.17989 19.869 4.05036L19.7761 4.54164ZM21.0875 4.86917C21.265 4.92833 21.3476 5.01084 21.3861 5.09753L21.843 4.89447C21.7322 4.64516 21.5161 4.485 21.2456 4.39483L21.0875 4.86917ZM21.3787 4.91313C21.1333 5.61162 20.9436 6.26555 20.8103 6.87458L21.2988 6.98142C21.4269 6.39578 21.6105 5.76171 21.8504 5.07887L21.3787 4.91313ZM20.8091 6.88049C20.6975 7.45743 20.6313 7.80684 20.612 7.9229L21.1052 8.0051C21.1232 7.89716 21.1877 7.5559 21.3 6.97551L20.8091 6.88049ZM20.6128 7.91835C20.371 9.22 20.0827 10.5499 19.7478 11.9081L20.2333 12.0279C20.5704 10.6607 20.8608 9.32133 21.1044 8.00965L20.6128 7.91835ZM19.8907 12.1972C20.5767 12.4962 20.8326 12.8585 20.8326 13.256H21.3326C21.3326 12.5708 20.8604 12.0745 20.0905 11.7388L19.8907 12.1972ZM20.8326 13.256C20.8326 13.4249 20.7461 13.6093 20.4936 13.8089C20.2379 14.0109 19.8361 14.2074 19.2698 14.3901L19.4233 14.8659C20.0144 14.6753 20.4806 14.4564 20.8036 14.2011C21.1297 13.9434 21.3326 13.6285 21.3326 13.256H20.8326ZM19.1055 14.5617C18.8983 15.3153 18.5143 16.9455 17.9546 19.4454L18.4425 19.5546C19.0028 17.0519 19.3842 15.4341 19.5876 14.6943L19.1055 14.5617ZM17.9529 19.4535C17.8232 20.1392 17.6375 20.9939 17.3953 22.0185L17.8819 22.1335C18.125 21.1048 18.3126 20.2422 18.4442 19.5465L17.9529 19.4535ZM17.3963 22.0143C17.2697 22.5118 17.1129 22.8578 16.9393 23.0748C16.7722 23.2837 16.597 23.366 16.4066 23.366V23.866C16.7762 23.866 17.0862 23.6916 17.3298 23.3872C17.5669 23.0908 17.7461 22.6668 17.8808 22.1377L17.3963 22.0143ZM16.4066 23.366C15.5595 23.366 14.9597 23.2658 14.5804 23.0885C14.394 23.0014 14.2713 22.9005 14.1951 22.7936C14.1206 22.6891 14.0806 22.5653 14.0806 22.412H13.5806C13.5806 22.66 13.6479 22.8874 13.788 23.0839C13.9265 23.278 14.1258 23.4279 14.3687 23.5415C14.8481 23.7656 15.5363 23.866 16.4066 23.866V23.366ZM14.0806 22.412C14.0806 22.4256 14.0791 22.4258 14.0844 22.3944C14.0886 22.3697 14.0952 22.3349 14.1047 22.2888C14.1237 22.197 14.1524 22.0676 14.1914 21.8997C14.2691 21.5643 14.386 21.081 14.5423 20.449C14.8547 19.1853 15.3235 17.3311 15.9488 14.8859L15.4644 14.7621C14.839 17.2076 14.3698 19.0633 14.0569 20.329C13.9005 20.9617 13.7829 21.4478 13.7043 21.7868C13.665 21.9561 13.6352 22.0901 13.615 22.1878C13.605 22.2366 13.597 22.278 13.5914 22.3112C13.5869 22.3378 13.5806 22.3774 13.5806 22.412H14.0806ZM26.8508 21.908L26.6571 22.0661L26.8508 21.908ZM26.5148 13.508L26.2958 13.3874L26.2945 13.3899L26.5148 13.508ZM29.3988 10.4L29.5345 10.61V10.61L29.3988 10.4ZM36.9308 10.652L36.7505 10.8252L36.754 10.8288L36.9308 10.652ZM37.2668 18.8L37.4892 18.9142L37.2668 18.8ZM34.4108 22.244L34.5623 22.4429L34.5628 22.4425L34.4108 22.244ZM32.8988 20.228L32.7059 20.0689L32.7036 20.0718L32.8988 20.228ZM34.4108 17.4L34.6472 17.4814L34.4108 17.4ZM30.8268 12.668L30.6383 12.5037H30.6383L30.8268 12.668ZM29.3148 15.384L29.5507 15.4668L29.5511 15.4655L29.3148 15.384ZM29.1188 19.892L28.8969 20.0074L28.899 20.0111L29.1188 19.892ZM30.0148 20.956L29.8664 21.1573L29.8714 21.1608L30.0148 20.956ZM30.6868 23.338C29.1077 23.338 27.9048 22.8034 27.0444 21.7499L26.6571 22.0661C27.6261 23.2526 28.9805 23.838 30.6868 23.838V23.338ZM27.0444 21.7499C26.1731 20.683 25.7288 19.3144 25.7288 17.624H25.2288C25.2288 19.4056 25.6991 20.893 26.6571 22.0661L27.0444 21.7499ZM25.7288 17.624C25.7288 16.2094 26.0638 14.878 26.7351 13.6261L26.2945 13.3899C25.5844 14.714 25.2288 16.1266 25.2288 17.624H25.7288ZM26.7338 13.6286C27.4235 12.3762 28.3565 11.3711 29.5345 10.61L29.2631 10.19C28.0144 10.9969 27.0247 12.0638 26.2958 13.3874L26.7338 13.6286ZM29.5345 10.61C30.707 9.85232 31.9945 9.474 33.4028 9.474V8.974C31.899 8.974 30.5172 9.37968 29.2631 10.19L29.5345 10.61ZM33.4028 9.474C34.7788 9.474 35.8874 9.9269 36.7505 10.8252L37.1111 10.4788C36.1448 9.4731 34.9015 8.974 33.4028 8.974V9.474ZM36.754 10.8288C37.6248 11.6995 38.0808 13.0069 38.0808 14.796H38.5808C38.5808 12.9264 38.1035 11.4711 37.1076 10.4752L36.754 10.8288ZM38.0808 14.796C38.0808 16.0369 37.7393 17.3326 37.0444 18.6858L37.4892 18.9142C38.213 17.5047 38.5808 16.1311 38.5808 14.796H38.0808ZM37.0444 18.6858C36.3514 20.0352 35.4231 21.1541 34.2588 22.0455L34.5628 22.4425C35.7878 21.5046 36.7635 20.3274 37.4892 18.9142L37.0444 18.6858ZM34.2593 22.0451C33.1208 22.9125 31.9316 23.338 30.6868 23.338V23.838C32.0553 23.838 33.3488 23.3675 34.5623 22.4429L34.2593 22.0451ZM31.1068 21.598C31.8162 21.598 32.4777 21.1546 33.094 20.3842L32.7036 20.0718C32.1252 20.7947 31.5921 21.098 31.1068 21.098V21.598ZM33.0916 20.3871C33.7307 19.6125 34.2477 18.6417 34.6472 17.4814L34.1744 17.3186C33.7899 18.4356 33.2989 19.3502 32.7059 20.0689L33.0916 20.3871ZM34.6472 17.4814C35.0472 16.3194 35.2488 15.1813 35.2488 14.068H34.7488C34.7488 15.12 34.5584 16.2032 34.1744 17.3186L34.6472 17.4814ZM35.2488 14.068C35.2488 13.2089 35.0712 12.518 34.673 12.0392C34.2675 11.5515 33.6694 11.326 32.9268 11.326V11.826C33.5655 11.826 34.0034 12.0158 34.2886 12.3588C34.5811 12.7107 34.7488 13.2658 34.7488 14.068H35.2488ZM32.9268 11.326C32.0711 11.326 31.3071 11.7366 30.6383 12.5037L31.0152 12.8323C31.6158 12.1434 32.2518 11.826 32.9268 11.826V11.326ZM30.6383 12.5037C29.979 13.26 29.4604 14.195 29.0784 15.3025L29.5511 15.4655C29.9159 14.4077 30.4052 13.532 31.0152 12.8323L30.6383 12.5037ZM29.0789 15.3012C28.6981 16.3865 28.5048 17.4133 28.5048 18.38H29.0048C29.0048 17.48 29.1848 16.5095 29.5507 15.4668L29.0789 15.3012ZM28.5048 18.38C28.5048 18.9603 28.6352 19.504 28.897 20.0073L29.3406 19.7767C29.117 19.3467 29.0048 18.8824 29.0048 18.38H28.5048ZM28.899 20.0111C29.1564 20.4864 29.4779 20.871 29.8665 21.1573L30.1631 20.7547C29.8423 20.5184 29.5665 20.1936 29.3386 19.7729L28.899 20.0111ZM29.8714 21.1608C30.2748 21.4432 30.688 21.598 31.1068 21.598V21.098C30.8163 21.098 30.5014 20.9915 30.1581 20.7512L29.8714 21.1608ZM43.8975 10.204L44.0959 10.0519L44.0859 10.0388L44.0743 10.0272L43.8975 10.204ZM44.4295 9.56L44.4954 9.8014L44.5053 9.79823L44.4295 9.56ZM47.4535 9.924L47.2391 10.0527L47.2422 10.0575L47.4535 9.924ZM47.8735 11.324L48.1161 11.3846L48.1265 11.3428L48.1224 11.2999L47.8735 11.324ZM47.7615 11.94L48.0063 11.991L48.0079 11.9832L48.009 11.9754L47.7615 11.94ZM47.6215 12.612L47.3768 12.561L47.8117 12.7742L47.6215 12.612ZM50.0295 10.764L50.1519 10.982L50.1548 10.9804L50.0295 10.764ZM54.4535 10.344L54.2813 10.5258L54.2916 10.5345L54.4535 10.344ZM55.0975 12.192L54.848 12.2073L54.8807 12.7413L55.2693 12.3736L55.0975 12.192ZM57.4775 10.54L57.5894 10.7636L57.593 10.7617L57.4775 10.54ZM61.7895 10.288L61.6777 10.5117L61.6834 10.5144L61.7895 10.288ZM62.6575 12.052L62.4124 12.003L62.4118 12.0059L62.6575 12.052ZM62.3215 13.312L62.0827 13.2379L62.0812 13.2433L62.3215 13.312ZM61.9855 14.46L62.2244 14.5337L62.2245 14.5335L61.9855 14.46ZM60.8935 18.296L60.651 18.2354L60.6502 18.2385L60.8935 18.296ZM60.4455 21.32L60.1959 21.3059L60.1935 21.3481L60.2052 21.3887L60.4455 21.32ZM60.8375 22.692L61.0592 22.8076L61.1053 22.7192L61.0779 22.6233L60.8375 22.692ZM59.8855 23.7L59.7582 23.4845L59.7469 23.492L59.8855 23.7ZM57.1695 23.644L56.9635 23.7856L57.1695 23.644ZM56.8895 22.216L57.1361 22.2571L56.8895 22.216ZM56.9175 21.908L56.6675 21.8991V21.908H56.9175ZM57.3655 18.744L57.1235 18.6814L57.1227 18.6844L57.3655 18.744ZM58.4295 15.104L58.1923 15.0249L58.1914 15.0279L58.4295 15.104ZM58.9615 12.612L58.714 12.6474L58.7172 12.6697L58.7244 12.6911L58.9615 12.612ZM56.7495 13.032L56.6537 12.8011L56.6521 12.8018L56.7495 13.032ZM54.7895 14.264L54.596 14.1057L54.5653 14.1433L54.5508 14.1897L54.7895 14.264ZM53.0255 21.376L52.7818 21.3204L52.7811 21.3236L53.0255 21.376ZM52.8575 22.16L52.613 22.1076L52.612 22.1128L52.8575 22.16ZM52.5775 23.168L52.3539 23.0562L52.3493 23.0655L52.3454 23.0752L52.5775 23.168ZM52.1015 23.588L52.1913 23.8213L52.1015 23.588ZM48.9935 22.944L48.7586 22.8586L48.7435 22.9V22.944H48.9935ZM50.2255 18.212L50.4684 18.2715L50.4685 18.2707L50.2255 18.212ZM51.6255 12.584L51.8678 12.6457L52.0026 12.1159L51.5137 12.3604L51.6255 12.584ZM51.0095 12.836L50.9217 12.6019L50.9175 12.6035L51.0095 12.836ZM48.6575 13.928L48.5361 13.7094L48.5335 13.7109L48.6575 13.928ZM47.0615 15.244L46.8677 15.0861L46.8321 15.1297L46.8187 15.1844L47.0615 15.244ZM46.3335 18.212L46.5761 18.2726L46.5763 18.2716L46.3335 18.212ZM46.0255 19.472L46.2681 19.5326L46.2687 19.5299L46.0255 19.472ZM45.7735 20.424L46.0134 20.4945L46.0139 20.4927L45.7735 20.424ZM45.5775 21.712L45.8264 21.7369L45.8269 21.7292L45.5775 21.712ZM45.4095 22.524L45.1811 22.4225L45.1762 22.4335L45.1724 22.4449L45.4095 22.524ZM44.9335 22.944L45.0233 23.1775L45.032 23.1738L44.9335 22.944ZM42.3575 22.888L42.2623 23.1192L42.3575 22.888ZM42.5815 18.772L42.3387 18.7124L42.3382 18.7146L42.5815 18.772ZM44.5415 11.044L44.7836 11.1066L44.8141 10.9886L44.7399 10.8919L44.5415 11.044ZM44.0743 10.0272C44.0662 10.0191 44.0644 10.0148 44.0643 10.0145C44.0642 10.0142 44.064 10.0138 44.0639 10.0132C44.0638 10.0126 44.0635 10.011 44.0635 10.008H43.5635C43.5635 10.1533 43.621 10.281 43.7208 10.3808L44.0743 10.0272ZM44.0635 10.008C44.0635 10.0079 44.0635 10.0086 44.0633 10.0093C44.0631 10.0099 44.0634 10.0086 44.0654 10.0054C44.0697 9.99828 44.0825 9.98153 44.1146 9.95818C44.1817 9.9094 44.3022 9.85387 44.4953 9.80119L44.3638 9.31881C44.1462 9.37813 43.9587 9.45327 43.8205 9.55382C43.6784 9.65718 43.5635 9.80791 43.5635 10.008H44.0635ZM44.5053 9.79823C44.8803 9.67891 45.4201 9.614 46.1375 9.614V9.114C45.3989 9.114 44.8001 9.17976 44.3537 9.32177L44.5053 9.79823ZM46.1375 9.614C46.7505 9.614 47.0803 9.7879 47.2392 10.0526L47.6679 9.79538C47.3787 9.31344 46.8312 9.114 46.1375 9.114V9.614ZM47.2422 10.0575C47.4388 10.3689 47.5711 10.7941 47.6247 11.3481L48.1224 11.2999C48.064 10.6965 47.9162 10.1884 47.6649 9.7905L47.2422 10.0575ZM47.631 11.2634C47.5906 11.4249 47.5519 11.6399 47.514 11.9046L48.009 11.9754C48.0459 11.7174 48.0818 11.5218 48.1161 11.3846L47.631 11.2634ZM47.5168 11.889L47.3768 12.561L47.8663 12.663L48.0063 11.991L47.5168 11.889ZM47.8117 12.7742C48.3273 12.1698 49.1028 11.571 50.1519 10.982L49.9071 10.546C48.8282 11.1517 47.9985 11.7848 47.4313 12.4498L47.8117 12.7742ZM50.1548 10.9804C51.2131 10.3676 51.9946 10.09 52.5215 10.09V9.59C51.8538 9.59 50.9739 9.92837 49.9043 10.5476L50.1548 10.9804ZM52.5215 10.09C53.4422 10.09 54.0006 10.2592 54.2816 10.5255L54.6255 10.1625C54.1972 9.75675 53.4675 9.59 52.5215 9.59V10.09ZM54.2916 10.5345C54.5831 10.7823 54.7929 11.3072 54.848 12.2073L55.3471 12.1767C55.2902 11.2475 55.0706 10.5404 54.6154 10.1535L54.2916 10.5345ZM55.2693 12.3736C55.9412 11.738 56.7141 11.2012 57.5893 10.7636L57.3657 10.3164C56.449 10.7748 55.6352 11.3393 54.9257 12.0104L55.2693 12.3736ZM57.593 10.7617C58.4698 10.3051 59.2129 10.09 59.8295 10.09V9.59C59.1021 9.59 58.2772 9.84161 57.362 10.3183L57.593 10.7617ZM59.8295 10.09C60.5025 10.09 61.1173 10.2314 61.6777 10.5116L61.9013 10.0644C61.2671 9.7473 60.5752 9.59 59.8295 9.59V10.09ZM61.6834 10.5144C61.9488 10.6388 62.1331 10.7953 62.2522 10.9777C62.3709 11.1595 62.4355 11.3832 62.4355 11.66H62.9355C62.9355 11.3022 62.8508 10.9799 62.6708 10.7043C62.4913 10.4293 62.2276 10.2172 61.8956 10.0616L61.6834 10.5144ZM62.4355 11.66C62.4355 11.822 62.4263 11.9335 62.4124 12.003L62.9027 12.101C62.9261 11.9838 62.9355 11.834 62.9355 11.66H62.4355ZM62.4118 12.0059C62.3585 12.2903 62.2499 12.6994 62.0828 13.2379L62.5603 13.3861C62.7292 12.842 62.8446 12.4111 62.9033 12.0981L62.4118 12.0059ZM62.0812 13.2433C61.9319 13.7658 61.8205 14.1464 61.7466 14.3865L62.2245 14.5335C62.2999 14.2883 62.4125 13.9036 62.5619 13.3807L62.0812 13.2433ZM61.7467 14.3863C61.2792 15.9008 60.9138 17.1841 60.651 18.2354L61.1361 18.3566C61.3959 17.3172 61.7585 16.0432 62.2244 14.5337L61.7467 14.3863ZM60.6502 18.2385C60.4044 19.2785 60.2528 20.301 60.1959 21.3059L60.6951 21.3341C60.7503 20.3603 60.8973 19.3668 61.1368 18.3535L60.6502 18.2385ZM60.2052 21.3887L60.5972 22.7607L61.0779 22.6233L60.6859 21.2513L60.2052 21.3887ZM60.6159 22.5764C60.4131 22.965 60.1282 23.2662 59.7584 23.4848L60.0127 23.9152C60.4642 23.6485 60.8139 23.2777 61.0592 22.8076L60.6159 22.5764ZM59.7469 23.492C59.4143 23.7137 58.8935 23.842 58.1495 23.842V24.342C58.9362 24.342 59.5728 24.209 60.0242 23.908L59.7469 23.492ZM58.1495 23.842C57.7619 23.842 57.523 23.7169 57.3755 23.5024L56.9635 23.7856C57.2267 24.1684 57.6412 24.342 58.1495 24.342V23.842ZM57.3755 23.5024C57.205 23.2543 57.1115 22.9335 57.1115 22.524H56.6115C56.6115 23.0105 56.7234 23.4364 56.9635 23.7856L57.3755 23.5024ZM57.1115 22.524C57.1115 22.447 57.1193 22.3583 57.1361 22.2571L56.6429 22.1749C56.6225 22.2977 56.6115 22.4143 56.6115 22.524H57.1115ZM57.1361 22.2571C57.1566 22.1343 57.1675 22.0177 57.1675 21.908H56.6675C56.6675 21.985 56.6598 22.0737 56.6429 22.1749L57.1361 22.2571ZM57.1674 21.9169C57.2041 20.8895 57.3509 19.8518 57.6083 18.8036L57.1227 18.6844C56.8575 19.7642 56.7057 20.8359 56.6677 21.8991L57.1674 21.9169ZM57.6076 18.8066C57.8861 17.7294 58.2394 16.5207 58.6677 15.1801L58.1914 15.0279C57.761 16.3753 57.4049 17.5932 57.1235 18.6814L57.6076 18.8066ZM58.6667 15.1831C58.8633 14.5931 59.012 14.1145 59.1117 13.7488C59.2085 13.3938 59.2675 13.1173 59.2675 12.948H58.7675C58.7675 13.04 58.7285 13.2535 58.6293 13.6172C58.5331 13.9701 58.3877 14.4389 58.1924 15.0249L58.6667 15.1831ZM59.2675 12.948C59.2675 12.8077 59.2441 12.669 59.1987 12.5329L58.7244 12.6911C58.7537 12.779 58.7675 12.8643 58.7675 12.948H59.2675ZM59.209 12.5766C59.1987 12.5048 59.1834 12.4298 59.1563 12.3665C59.1394 12.3271 59.0641 12.166 58.8775 12.166V12.666C58.8056 12.666 58.7539 12.6319 58.727 12.605C58.7146 12.5926 58.707 12.5816 58.703 12.5752C58.699 12.5686 58.6971 12.5642 58.6967 12.5635C58.6963 12.5625 58.6988 12.5683 58.7026 12.5842C58.7062 12.5993 58.7101 12.6201 58.714 12.6474L59.209 12.5766ZM58.8775 12.166C58.3926 12.166 57.641 12.3913 56.6537 12.8011L56.8454 13.2629C57.8367 12.8514 58.5038 12.666 58.8775 12.666V12.166ZM56.6521 12.8018C55.674 13.2156 54.9725 13.6455 54.596 14.1057L54.983 14.4223C55.2785 14.0611 55.8837 13.6698 56.8469 13.2622L56.6521 12.8018ZM54.5508 14.1897C54.1928 15.3392 53.6027 17.7196 52.7818 21.3204L53.2693 21.4316C54.091 17.8271 54.677 15.4661 55.0282 14.3383L54.5508 14.1897ZM52.7811 21.3236L52.6131 22.1076L53.102 22.2124L53.27 21.4284L52.7811 21.3236ZM52.612 22.1128C52.5187 22.5979 52.4303 22.9034 52.3539 23.0562L52.8011 23.2798C52.9114 23.0593 53.0097 22.6928 53.103 22.2072L52.612 22.1128ZM52.3454 23.0752C52.3036 23.1796 52.2096 23.2786 52.0118 23.3547L52.1913 23.8213C52.4788 23.7108 52.7021 23.5297 52.8097 23.2608L52.3454 23.0752ZM52.0118 23.3547C51.8147 23.4305 51.4621 23.478 50.9255 23.478V23.978C51.4716 23.978 51.903 23.9322 52.1913 23.8213L52.0118 23.3547ZM50.9255 23.478C50.291 23.478 49.8471 23.4126 49.5705 23.3003C49.4345 23.2452 49.3535 23.1844 49.3075 23.1283C49.2649 23.0765 49.2435 23.0187 49.2435 22.944H48.7435C48.7435 23.1306 48.8027 23.3015 48.9211 23.4457C49.036 23.5856 49.1965 23.6882 49.3825 23.7637C49.75 23.9128 50.2721 23.978 50.9255 23.978V23.478ZM49.2285 23.0294C49.3838 22.6024 49.7985 21.0066 50.4684 18.2715L49.9827 18.1525C49.3085 20.9053 48.9019 22.4643 48.7586 22.8586L49.2285 23.0294ZM50.4685 18.2707C50.8789 16.5732 51.3453 14.6982 51.8678 12.6457L51.3833 12.5223C50.8604 14.5764 50.3935 16.4534 49.9825 18.1533L50.4685 18.2707ZM51.5137 12.3604C51.4149 12.4098 51.2209 12.4897 50.9217 12.6019L51.0973 13.0701C51.3955 12.9583 51.6122 12.8702 51.7373 12.8076L51.5137 12.3604ZM50.9175 12.6035C50.0138 12.9613 49.2196 13.3297 48.5361 13.7095L48.7789 14.1465C49.4394 13.7796 50.2132 13.4201 51.1015 13.0685L50.9175 12.6035ZM48.5335 13.7109C47.8576 14.0972 47.3006 14.5548 46.8677 15.0861L47.2553 15.4019C47.6438 14.9252 48.1508 14.5055 48.7816 14.1451L48.5335 13.7109ZM46.8187 15.1844L46.0907 18.1524L46.5763 18.2716L47.3043 15.3036L46.8187 15.1844ZM46.091 18.1514C45.9788 18.6001 45.8759 19.0211 45.7823 19.4141L46.2687 19.5299C46.3618 19.1389 46.4643 18.7199 46.5761 18.2726L46.091 18.1514ZM45.783 19.4114C45.6901 19.783 45.6068 20.0975 45.5331 20.3553L46.0139 20.4927C46.0896 20.2278 46.1743 19.9077 46.2681 19.5326L45.783 19.4114ZM45.5337 20.3535C45.433 20.6956 45.366 21.1453 45.3281 21.6948L45.8269 21.7292C45.8637 21.196 45.9273 20.787 46.0134 20.4945L45.5337 20.3535ZM45.3288 21.6871C45.2919 22.0556 45.2387 22.2928 45.1811 22.4225L45.638 22.6255C45.7297 22.4192 45.7885 22.1151 45.8263 21.7369L45.3288 21.6871ZM45.1724 22.4449C45.1495 22.5134 45.0697 22.6137 44.8351 22.7142L45.032 23.1738C45.3201 23.0503 45.5575 22.8706 45.6467 22.6031L45.1724 22.4449ZM44.8438 22.7107C44.6467 22.7865 44.2941 22.834 43.7575 22.834V23.334C44.3036 23.334 44.735 23.2882 45.0233 23.1773L44.8438 22.7107ZM43.7575 22.834C43.1524 22.834 42.7247 22.7688 42.4527 22.6568L42.2623 23.1192C42.625 23.2685 43.1307 23.334 43.7575 23.334V22.834ZM42.4527 22.6568C42.3421 22.6113 42.2679 22.5448 42.218 22.4567C42.166 22.3648 42.1315 22.2334 42.1315 22.048H41.6315C41.6315 22.2919 41.6764 22.5152 41.783 22.7033C41.8918 22.8952 42.0557 23.0341 42.2623 23.1192L42.4527 22.6568ZM42.1315 22.048C42.1315 22.0231 42.1413 21.939 42.1713 21.772C42.1998 21.6137 42.2429 21.3991 42.301 21.1272C42.4171 20.5838 42.5917 19.8181 42.8249 18.8294L42.3382 18.7146C42.1047 19.7045 41.9293 20.4742 41.812 21.0228C41.7535 21.2969 41.7091 21.5175 41.6792 21.6835C41.6509 21.8408 41.6315 21.9703 41.6315 22.048H42.1315ZM42.8243 18.8316C43.3093 16.8543 43.9623 14.2795 44.7836 11.1066L44.2995 10.9814C43.478 14.1552 42.8244 16.7323 42.3387 18.7124L42.8243 18.8316ZM44.7399 10.8919L44.0959 10.0519L43.6991 10.3561L44.3431 11.1961L44.7399 10.8919ZM67.7137 22.496L67.8775 22.3071L67.7137 22.496ZM67.7697 14.656L67.5546 14.5285L67.5535 14.5305L67.7697 14.656ZM71.3257 11.072L71.4535 11.2869L71.4543 11.2864L71.3257 11.072ZM78.7737 10.624L78.6127 10.8153L78.6157 10.8177L78.7737 10.624ZM78.4097 16.224L78.5635 16.4211L78.564 16.4207L78.4097 16.224ZM74.8537 17.848L74.9113 18.0913L74.9136 18.0907L74.8537 17.848ZM69.7297 18.632L69.7065 18.3831L69.533 18.3993L69.4882 18.5676L69.7297 18.632ZM70.2617 20.704L70.1251 20.9134L70.1292 20.916L70.2617 20.704ZM74.1817 20.76L74.1078 20.5212L74.1062 20.5217L74.1817 20.76ZM75.9737 19.556L76.1754 19.7039L76.178 19.7002L75.9737 19.556ZM76.8137 18.8L76.6973 18.5787L76.6923 18.5815L76.8137 18.8ZM78.5497 18.828L78.3645 18.9964L78.3729 19.0048L78.5497 18.828ZM78.8297 19.696L79.0638 19.7838L79.0797 19.7413V19.696H78.8297ZM77.5137 21.516L77.6824 21.7005L77.6852 21.6979L77.5137 21.516ZM75.0217 23L75.1123 23.233L75.0217 23ZM70.5137 16.056L70.2856 15.9537L70.1226 16.3173L70.5209 16.3059L70.5137 16.056ZM72.9777 15.748L73.0241 15.9937L72.9777 15.748ZM75.6657 14.768L75.7914 14.9842L75.7951 14.9819L75.6657 14.768ZM76.5057 12.332L76.3747 12.5449L76.3808 12.5487L76.3872 12.5521L76.5057 12.332ZM73.7897 12.752L73.6627 12.5366L73.6603 12.5381L73.7897 12.752ZM71.8017 14.32L71.9785 14.4968L71.8017 14.32ZM71.7177 23.338C69.9124 23.338 68.6506 22.9771 67.8775 22.3071L67.55 22.6849C68.4568 23.4709 69.8644 23.838 71.7177 23.838V23.338ZM67.8775 22.3071C67.0977 21.6313 66.7037 20.7323 66.7037 19.584H66.2037C66.2037 20.8624 66.6498 21.9047 67.55 22.6849L67.8775 22.3071ZM66.7037 19.584C66.7037 17.8541 67.1311 16.2548 67.986 14.7815L67.5535 14.5305C66.6537 16.0812 66.2037 17.7673 66.2037 19.584H66.7037ZM67.9848 14.7835C68.86 13.3065 70.0157 12.1423 71.4535 11.2868L71.1979 10.8571C69.6864 11.7564 68.4714 12.9815 67.5546 14.5285L67.9848 14.7835ZM71.4543 11.2864C72.9094 10.4133 74.4704 9.978 76.1417 9.978V9.478C74.3784 9.478 72.7287 9.93866 71.1971 10.8576L71.4543 11.2864ZM76.1417 9.978C77.1361 9.978 77.9542 10.2607 78.6127 10.8152L78.9348 10.4328C78.1746 9.79264 77.238 9.478 76.1417 9.478V9.978ZM78.6157 10.8177C79.2529 11.3375 79.5877 12.1164 79.5877 13.2H80.0877C80.0877 12.0063 79.7132 11.0678 78.9318 10.4303L78.6157 10.8177ZM79.5877 13.2C79.5877 14.3969 79.1437 15.3306 78.2554 16.0273L78.564 16.4207C79.5798 15.624 80.0877 14.5417 80.0877 13.2H79.5877ZM78.256 16.0269C77.3564 16.7285 76.2053 17.257 74.7938 17.6053L74.9136 18.0907C76.3768 17.7297 77.5964 17.1755 78.5635 16.4211L78.256 16.0269ZM74.7961 17.6047C73.3921 17.9373 71.6962 18.1971 69.7065 18.3831L69.753 18.8809C71.7579 18.6935 73.4781 18.4307 74.9113 18.0913L74.7961 17.6047ZM69.4882 18.5676C69.4077 18.8692 69.3677 19.1803 69.3677 19.5H69.8677C69.8677 19.2224 69.9024 18.9548 69.9713 18.6964L69.4882 18.5676ZM69.3677 19.5C69.3677 20.1051 69.6234 20.5862 70.1252 20.9134L70.3983 20.4946C70.0414 20.2618 69.8677 19.9402 69.8677 19.5H69.3677ZM70.1292 20.916C70.6325 21.2306 71.3108 21.374 72.1377 21.374V20.874C71.3593 20.874 70.7869 20.7374 70.3942 20.492L70.1292 20.916ZM72.1377 21.374C72.7678 21.374 73.4753 21.2462 74.2573 20.9983L74.1062 20.5217C73.3574 20.7591 72.7023 20.874 72.1377 20.874V21.374ZM74.2556 20.9988C75.0813 20.7433 75.7275 20.3145 76.1753 19.7038L75.7721 19.4082C75.3986 19.9175 74.8502 20.2914 74.1078 20.5212L74.2556 20.9988ZM76.178 19.7002C76.3805 19.4132 76.6323 19.1868 76.9351 19.0185L76.6923 18.5815C76.3231 18.7866 76.0149 19.0641 75.7695 19.4118L76.178 19.7002ZM76.9302 19.0212C77.2581 18.8486 77.5542 18.77 77.8217 18.77V18.27C77.4545 18.27 77.0786 18.3781 76.6973 18.5788L76.9302 19.0212ZM77.8217 18.77C78.056 18.77 78.2294 18.8473 78.3647 18.9962L78.7347 18.6598C78.4967 18.3981 78.1848 18.27 77.8217 18.27V18.77ZM78.3729 19.0048C78.4942 19.126 78.5797 19.3384 78.5797 19.696H79.0797C79.0797 19.2696 78.9786 18.9033 78.7265 18.6512L78.3729 19.0048ZM78.5956 19.6082C78.3894 20.1583 77.9784 20.7343 77.3422 21.3341L77.6852 21.6979C78.3557 21.0657 78.8221 20.4284 79.0638 19.7838L78.5956 19.6082ZM77.345 21.3315C76.7189 21.9039 75.9165 22.3838 74.9311 22.767L75.1123 23.233C76.1429 22.8322 77.0018 22.3228 77.6824 21.7005L77.345 21.3315ZM74.9311 22.767C73.9549 23.1466 72.8846 23.338 71.7177 23.338V23.838C72.9401 23.838 74.0726 23.6374 75.1123 23.233L74.9311 22.767ZM70.5209 16.3059C71.1924 16.2867 72.0279 16.1816 73.0241 15.9937L72.9314 15.5023C71.9489 15.6877 71.1417 15.788 70.5066 15.8061L70.5209 16.3059ZM73.0241 15.9937C74.039 15.8022 74.9622 15.4662 75.7914 14.9841L75.5401 14.5519C74.764 15.0031 73.8951 15.3205 72.9314 15.5023L73.0241 15.9937ZM75.7951 14.9819C76.6554 14.4617 77.1197 13.7539 77.1197 12.864H76.6197C76.6197 13.5421 76.2814 14.1036 75.5364 14.5541L75.7951 14.9819ZM77.1197 12.864C77.1197 12.5254 76.9258 12.2742 76.6242 12.1119L76.3872 12.5521C76.571 12.6511 76.6197 12.7546 76.6197 12.864H77.1197ZM76.6367 12.1191C76.3554 11.946 76.0488 11.858 75.7217 11.858V12.358C75.9546 12.358 76.1707 12.4194 76.3747 12.5449L76.6367 12.1191ZM75.7217 11.858C75.0999 11.858 74.4111 12.0953 73.6627 12.5367L73.9167 12.9673C74.6244 12.55 75.2236 12.358 75.7217 12.358V11.858ZM73.6603 12.5381C72.9329 12.9784 72.2544 13.5137 71.6249 14.1432L71.9785 14.4968C72.581 13.8943 73.2279 13.3843 73.9192 12.9659L73.6603 12.5381ZM71.6249 14.1432C70.9966 14.7716 70.5451 15.3749 70.2856 15.9537L70.7419 16.1583C70.9677 15.6545 71.3748 15.1004 71.9785 14.4968L71.6249 14.1432ZM105.001 4.296L105.047 4.05036L104.993 4.04016L104.94 4.05346L105.001 4.296ZM106.345 4.632L106.241 4.85959L106.253 4.86502L106.265 4.86917L106.345 4.632ZM106.793 4.996L107.035 5.05874L107.056 4.97424L107.021 4.89447L106.793 4.996ZM105.253 11.436L105.496 11.492L105.496 11.4916L105.253 11.436ZM103.965 17.008L103.721 16.9507L103.72 16.9553L103.965 17.008ZM102.817 22.076L103.059 22.1377L103.06 22.1345L102.817 22.076ZM99.6525 19.78L99.8969 19.8325L99.6525 19.78ZM100.437 16.14L100.681 16.1931L100.681 16.1917L100.437 16.14ZM101.053 13.228L101.297 13.2797L100.846 13.0867L101.053 13.228ZM94.8365 22.3L95.0317 22.4562L95.0375 22.4489L95.0428 22.4413L94.8365 22.3ZM92.1485 22.496L92.0213 22.7113L92.0255 22.7136L92.1485 22.496ZM91.6165 21.768L91.8601 21.8242L91.8724 21.771L91.8614 21.7176L91.6165 21.768ZM90.8885 18.156L90.6433 18.2045L90.6434 18.205L90.8885 18.156ZM89.7965 12.556L90.042 12.5088L89.554 12.4955L89.7965 12.556ZM87.4445 21.992L87.2019 21.9315L87.2015 21.9333L87.4445 21.992ZM86.8285 23.084L86.6898 22.8759L86.6832 22.8806L86.8285 23.084ZM84.0285 23.056L84.1764 22.8544L84.1738 22.8526L84.0285 23.056ZM83.7205 21.488L83.9602 21.5599L83.9629 21.5494L83.7205 21.488ZM87.5565 6.34L87.7989 6.40137L87.7991 6.40063L87.5565 6.34ZM88.2005 4.716L88.0116 4.55226L88.0107 4.5533L88.2005 4.716ZM90.8325 4.464L90.9012 4.22362H90.9012L90.8325 4.464ZM91.4485 4.968H91.6985V4.9576L91.6977 4.94724L91.4485 4.968ZM91.4485 5.024H91.1985V5.04694L91.2027 5.0695L91.4485 5.024ZM94.0245 18.94L93.7787 18.9855L93.8915 19.595L94.2331 19.0778L94.0245 18.94ZM102.901 5.5L103.109 5.63777L103.12 5.62136L103.128 5.60345L102.901 5.5ZM103.517 4.688L103.398 4.46775L103.391 4.47205L103.517 4.688ZM104.329 4.436L104.36 4.68407L104.367 4.68312L104.375 4.68172L104.329 4.436ZM104.954 4.54164C105.651 4.67344 106.068 4.78091 106.241 4.85959L106.448 4.40441C106.21 4.29642 105.732 4.17989 105.047 4.05036L104.954 4.54164ZM106.265 4.86917C106.443 4.92833 106.526 5.01084 106.564 5.09753L107.021 4.89447C106.91 4.64516 106.694 4.485 106.424 4.39483L106.265 4.86917ZM106.551 4.93326C106.158 6.44881 105.644 8.59826 105.009 11.3804L105.496 11.4916C106.131 8.71107 106.643 6.56719 107.035 5.05874L106.551 4.93326ZM105.009 11.38C104.374 14.1428 103.945 15.9995 103.721 16.9507L104.208 17.0653C104.432 16.1125 104.862 14.2546 105.496 11.492L105.009 11.38ZM103.72 16.9553C103.31 18.8579 102.928 20.5452 102.573 22.0175L103.06 22.1345C103.415 20.6574 103.798 18.9661 104.209 17.0607L103.72 16.9553ZM102.574 22.0143C102.448 22.5118 102.291 22.8578 102.117 23.0748C101.95 23.2837 101.775 23.366 101.585 23.366V23.866C101.954 23.866 102.264 23.6916 102.508 23.3872C102.745 23.0908 102.924 22.6668 103.059 22.1377L102.574 22.0143ZM101.585 23.366C100.737 23.366 100.138 23.2658 99.7584 23.0885C99.572 23.0014 99.4493 22.9005 99.3731 22.7936C99.2986 22.6891 99.2585 22.5653 99.2585 22.412H98.7585C98.7585 22.66 98.8258 22.8874 98.966 23.0839C99.1044 23.278 99.3037 23.4279 99.5467 23.5415C100.026 23.7656 100.714 23.866 101.585 23.866V23.366ZM98.7585 22.412C98.7585 22.4283 98.7587 22.4674 98.7692 22.5076C98.7718 22.5178 98.7888 22.5898 98.8567 22.6448C98.8998 22.6799 98.9598 22.7045 99.0286 22.7011C99.091 22.698 99.1365 22.673 99.1614 22.6557C99.2061 22.6246 99.2299 22.5864 99.2363 22.5762C99.2464 22.5599 99.2539 22.5446 99.2588 22.5337C99.2689 22.5116 99.2778 22.4871 99.2856 22.4641C99.3164 22.3731 99.3589 22.2138 99.4124 21.9954C99.5206 21.553 99.6822 20.8314 99.8969 19.8325L99.4081 19.7275C99.1935 20.726 99.0331 21.4416 98.9267 21.8766C98.8728 22.0968 98.8349 22.2362 98.812 22.3039C98.8093 22.3116 98.8072 22.3175 98.8056 22.3217C98.804 22.3261 98.8033 22.3276 98.8035 22.327C98.8037 22.3267 98.8044 22.3251 98.8056 22.3228C98.8068 22.3206 98.809 22.3165 98.8123 22.3112C98.8144 22.3077 98.8344 22.2741 98.8758 22.2453C98.899 22.2291 98.9429 22.2048 99.0038 22.2017C99.0712 22.1984 99.1298 22.2226 99.1717 22.2566C99.2371 22.3096 99.2519 22.3774 99.2529 22.3812C99.2601 22.4085 99.2585 22.426 99.2585 22.412H98.7585ZM99.8969 19.8325C100.326 17.8351 100.588 16.6221 100.681 16.1931L100.192 16.0869C100.099 16.5166 99.8374 17.7303 99.4081 19.7275L99.8969 19.8325ZM100.681 16.1917L101.297 13.2797L100.808 13.1763L100.192 16.0883L100.681 16.1917ZM100.846 13.0867L94.6303 22.1587L95.0428 22.4413L101.259 13.3693L100.846 13.0867ZM94.6413 22.1438C94.4001 22.4453 94.041 22.61 93.5205 22.61V23.11C94.1574 23.11 94.6756 22.9014 95.0317 22.4562L94.6413 22.1438ZM93.5205 22.61C93.079 22.61 92.664 22.5002 92.2715 22.2784L92.0255 22.7136C92.4917 22.9772 92.9914 23.11 93.5205 23.11V22.61ZM92.2757 22.2808C92.0844 22.1677 91.9697 22.0671 91.9094 21.9845C91.8539 21.9085 91.8518 21.8602 91.8601 21.8242L91.3729 21.7118C91.3252 21.9184 91.3839 22.1128 91.5057 22.2795C91.6227 22.4396 91.802 22.5816 92.0213 22.7112L92.2757 22.2808ZM91.8614 21.7176C91.7309 21.0837 91.4884 19.8804 91.1337 18.107L90.6434 18.205C90.998 19.9783 91.2408 21.183 91.3717 21.8184L91.8614 21.7176ZM91.1338 18.1075C90.7792 16.3159 90.4153 14.4497 90.042 12.5088L89.551 12.6032C89.9244 14.545 90.2885 16.4121 90.6433 18.2045L91.1338 18.1075ZM89.554 12.4955L87.202 21.9315L87.6871 22.0525L90.0391 12.6165L89.554 12.4955ZM87.2015 21.9333C87.0765 22.4511 86.8924 22.7409 86.6899 22.876L86.9672 23.292C87.3246 23.0537 87.5512 22.6156 87.6876 22.0507L87.2015 21.9333ZM86.6832 22.8806C86.5948 22.9437 86.4441 23.0046 86.209 23.0482C85.9771 23.0911 85.6808 23.114 85.3165 23.114V23.614C85.6989 23.614 86.0279 23.5902 86.3 23.5398C86.569 23.49 86.8009 23.411 86.9738 23.2874L86.6832 22.8806ZM85.3165 23.114C84.7589 23.114 84.3933 23.0135 84.1764 22.8544L83.8807 23.2576C84.2238 23.5092 84.7169 23.614 85.3165 23.614V23.114ZM84.1738 22.8526C84.0044 22.7315 83.8865 22.5007 83.8865 22.076H83.3865C83.3865 22.5847 83.53 23.0071 83.8832 23.2594L84.1738 22.8526ZM83.8865 22.076C83.8865 21.8937 83.9113 21.722 83.96 21.5598L83.4811 21.4162C83.4177 21.6274 83.3865 21.8476 83.3865 22.076H83.8865ZM83.9629 21.5494L87.7989 6.40137L87.3142 6.27863L83.4782 21.4266L83.9629 21.5494ZM87.7991 6.40063C87.9001 5.99634 88.002 5.66709 88.1039 5.41015C88.2071 5.14998 88.3046 4.97877 88.3903 4.8787L88.0107 4.5533C87.8725 4.71456 87.7506 4.94468 87.6391 5.22584C87.5264 5.51024 87.4183 5.86232 87.314 6.27937L87.7991 6.40063ZM88.3895 4.87973C88.5609 4.68191 88.8985 4.546 89.4885 4.546V4.046C88.8465 4.046 88.3255 4.19009 88.0116 4.55227L88.3895 4.87973ZM89.4885 4.546C89.9745 4.546 90.3987 4.60006 90.7638 4.70438L90.9012 4.22362C90.4823 4.10394 90.0105 4.046 89.4885 4.046V4.546ZM90.7638 4.70438C91.1432 4.81276 91.195 4.93617 91.1994 4.98876L91.6977 4.94724C91.6647 4.55183 91.3059 4.33924 90.9012 4.22362L90.7638 4.70438ZM91.1985 4.968V5.024H91.6985V4.968H91.1985ZM91.2027 5.0695L93.7787 18.9855L94.2704 18.8945L91.6944 4.97849L91.2027 5.0695ZM94.2331 19.0778L103.109 5.63777L102.692 5.36223L93.8159 18.8022L94.2331 19.0778ZM103.128 5.60345C103.307 5.20897 103.486 4.99548 103.643 4.90394L103.391 4.47205C103.099 4.64185 102.867 4.96969 102.673 5.39655L103.128 5.60345ZM103.635 4.90812C103.848 4.79339 104.089 4.71793 104.36 4.68407L104.298 4.18793C103.971 4.22874 103.67 4.32128 103.398 4.46788L103.635 4.90812ZM104.375 4.68172C104.674 4.6255 104.904 4.57773 105.061 4.53853L104.94 4.05346C104.798 4.08893 104.58 4.1345 104.282 4.19028L104.375 4.68172ZM121.758 22.524L121.995 22.6031L122.019 22.5306L121.999 22.4571L121.758 22.524ZM120.862 23.196L120.805 22.9521L120.794 22.9553L120.862 23.196ZM118.986 23.14L119.194 23.0011L119.186 22.99L118.986 23.14ZM118.706 22.468L118.462 22.5253L118.463 22.5286L118.706 22.468ZM118.538 21.796L118.778 21.7273L118.682 21.3923L118.396 21.5903L118.538 21.796ZM116.102 23.028L116.023 22.7907L116.016 22.7931L116.102 23.028ZM112.294 23.084L112.394 22.8549L112.39 22.8535L112.294 23.084ZM110.782 21.796L110.575 21.9361L110.577 21.9389L110.782 21.796ZM111.118 15.44L110.889 15.3385L110.889 15.3398L111.118 15.44ZM113.974 11.52L114.14 11.7064L114.14 11.7062L113.974 11.52ZM120.834 10.456L120.722 10.6796L120.726 10.6816L120.834 10.456ZM122.85 11.968L122.659 12.1298L122.662 12.1326L122.85 11.968ZM123.662 13.788L123.896 13.875L123.913 13.8293L123.912 13.7804L123.662 13.788ZM123.298 14.768L123.063 14.6809L123.062 14.6835L123.298 14.768ZM122.066 18.492L122.305 18.563L122.306 18.5618L122.066 18.492ZM118.566 19.444L118.728 19.6345L118.778 19.5913L118.801 19.5287L118.566 19.444ZM119.182 17.624L119.42 17.7013L119.422 17.6935L119.182 17.624ZM120.358 14.04L120.591 14.1297L120.621 14.0517L120.598 13.9713L120.358 14.04ZM119.854 13.228L119.665 13.3927L119.671 13.3986L119.854 13.228ZM119.042 12.5L118.894 12.7018L118.903 12.708L119.042 12.5ZM116.242 13.452L116.423 13.6246L116.424 13.6226L116.242 13.452ZM114.254 16.392L114.028 16.2847L114.026 16.2877L114.254 16.392ZM113.806 20.424L113.598 20.5627L113.601 20.5682L113.806 20.424ZM116.578 20.424L116.658 20.6607L116.661 20.6597L116.578 20.424ZM121.52 22.4449C121.446 22.667 121.244 22.8512 120.805 22.9524L120.918 23.4396C121.45 23.3168 121.845 23.053 121.995 22.6031L121.52 22.4449ZM120.794 22.9553C120.342 23.0819 119.955 23.142 119.63 23.142V23.642C120.014 23.642 120.448 23.5715 120.929 23.4367L120.794 22.9553ZM119.63 23.142C119.346 23.142 119.237 23.0667 119.194 23.0013L118.778 23.2787C118.958 23.5493 119.278 23.642 119.63 23.642V23.142ZM119.186 22.99C119.103 22.8791 119.019 22.692 118.948 22.4074L118.463 22.5286C118.541 22.8413 118.645 23.1022 118.786 23.29L119.186 22.99ZM118.949 22.4107C118.874 22.0934 118.817 21.8642 118.778 21.7273L118.297 21.8647C118.333 21.9891 118.388 22.208 118.462 22.5253L118.949 22.4107ZM118.396 21.5903C117.63 22.1192 116.839 22.5188 116.023 22.7908L116.181 23.2652C117.045 22.9772 117.878 22.5554 118.68 22.0017L118.396 21.5903ZM116.016 22.7931C115.209 23.0867 114.549 23.226 114.03 23.226V23.726C114.63 23.726 115.352 23.5666 116.187 23.2629L116.016 22.7931ZM114.03 23.226C113.509 23.226 112.965 23.1047 112.394 22.855L112.193 23.313C112.817 23.5859 113.43 23.726 114.03 23.726V23.226ZM112.39 22.8535C111.863 22.6324 111.394 22.2379 110.987 21.6531L110.577 21.9389C111.028 22.5861 111.567 23.0502 112.197 23.3145L112.39 22.8535ZM110.989 21.6559C110.596 21.0752 110.388 20.2891 110.388 19.276H109.888C109.888 20.3536 110.109 21.2475 110.575 21.9361L110.989 21.6559ZM110.388 19.276C110.388 18.2599 110.701 17.0171 111.347 15.5402L110.889 15.3398C110.228 16.8496 109.888 18.1641 109.888 19.276H110.388ZM111.346 15.5415C112.004 14.0618 112.935 12.7841 114.14 11.7064L113.807 11.3336C112.549 12.4586 111.576 13.7942 110.889 15.3385L111.346 15.5415ZM114.14 11.7062C115.346 10.6268 116.743 10.09 118.342 10.09V9.59C116.618 9.59 115.103 10.1732 113.807 11.3338L114.14 11.7062ZM118.342 10.09C119.139 10.09 119.932 10.2847 120.722 10.6796L120.945 10.2324C120.093 9.80602 119.224 9.59 118.342 9.59V10.09ZM120.726 10.6816C121.52 11.0603 122.162 11.5439 122.659 12.1297L123.04 11.8063C122.492 11.1601 121.79 10.6357 120.941 10.2304L120.726 10.6816ZM122.662 12.1326C123.157 12.6991 123.395 13.2524 123.412 13.7956L123.912 13.7804C123.891 13.0916 123.587 12.4316 123.038 11.8034L122.662 12.1326ZM123.427 13.701L123.063 14.681L123.532 14.855L123.896 13.875L123.427 13.701ZM123.062 14.6835C122.539 16.1424 122.126 17.3889 121.826 18.4222L122.306 18.5618C122.602 17.5417 123.011 16.3056 123.533 14.8525L123.062 14.6835ZM121.826 18.421C121.522 19.4453 121.368 20.3752 121.368 21.208H121.868C121.868 20.4355 122.012 19.5547 122.305 18.563L121.826 18.421ZM121.368 21.208C121.368 21.761 121.415 22.2246 121.517 22.5909L121.999 22.4571C121.914 22.1514 121.868 21.7377 121.868 21.208H121.368ZM118.801 19.5287C118.97 19.0586 119.176 18.4492 119.419 17.7013L118.944 17.5467C118.702 18.2922 118.497 18.8961 118.33 19.3593L118.801 19.5287ZM119.422 17.6935C119.831 16.2791 120.221 15.0917 120.591 14.1297L120.124 13.9503C119.748 14.9297 119.353 16.1316 118.942 17.5545L119.422 17.6935ZM120.598 13.9713C120.509 13.6596 120.314 13.3552 120.036 13.0574L119.671 13.3986C119.916 13.6608 120.057 13.8977 120.117 14.1087L120.598 13.9713ZM120.042 13.0634C119.768 12.751 119.482 12.4928 119.18 12.292L118.903 12.708C119.162 12.8805 119.416 13.1077 119.666 13.3926L120.042 13.0634ZM119.189 12.2984C119.044 12.192 118.914 12.107 118.801 12.0475C118.695 11.9924 118.573 11.942 118.454 11.942V12.442C118.446 12.442 118.478 12.443 118.569 12.4905C118.651 12.5337 118.759 12.6027 118.894 12.7016L119.189 12.2984ZM118.454 11.942C117.659 11.942 116.86 12.4229 116.059 13.2814L116.424 13.6226C117.191 12.8011 117.867 12.442 118.454 12.442V11.942ZM116.061 13.2794C115.257 14.1219 114.579 15.1246 114.028 16.2847L114.479 16.4993C115.011 15.3821 115.659 14.4247 116.423 13.6246L116.061 13.2794ZM114.026 16.2877C113.495 17.4444 113.22 18.4708 113.22 19.36H113.72C113.72 18.5692 113.966 17.6169 114.481 16.4963L114.026 16.2877ZM113.22 19.36C113.22 19.7867 113.349 20.1891 113.598 20.5627L114.014 20.2853C113.815 19.9869 113.72 19.6799 113.72 19.36H113.22ZM113.601 20.5682C113.848 20.9179 114.157 21.15 114.534 21.15V20.65C114.388 20.65 114.211 20.5647 114.01 20.2798L113.601 20.5682ZM114.534 21.15C115.008 21.15 115.724 20.9784 116.658 20.6607L116.497 20.1873C115.565 20.5043 114.918 20.65 114.534 20.65V21.15ZM116.661 20.6597C117.618 20.322 118.317 19.9832 118.728 19.6345L118.404 19.2535C118.067 19.5395 117.442 19.854 116.494 20.1883L116.661 20.6597ZM141.244 10.96L141.383 11.168L141.404 11.1543L141.421 11.1368L141.244 10.96ZM139.116 12.416L139.256 12.6235L139.258 12.6218L139.116 12.416ZM135.924 14.656L136.071 14.8582L136.072 14.8577L135.924 14.656ZM134.272 16.028L134.044 15.9265L134.005 16.014L134.035 16.1051L134.272 16.028ZM136.68 19.192L136.501 19.3664L136.502 19.3676L136.68 19.192ZM140.32 22.384L140.57 22.3971L140.577 22.2583L140.463 22.1788L140.32 22.384ZM139.648 23.532L139.821 23.7127L139.648 23.532ZM137.828 24.036L137.93 23.8075L137.922 23.804L137.914 23.8011L137.828 24.036ZM135.924 22.608L135.752 22.7888L135.754 22.7906L135.924 22.608ZM133.432 19.892L133.626 19.7341L133.432 19.892ZM131.696 17.204L131.926 17.1055L131.634 16.4234L131.454 17.1434L131.696 17.204ZM130.52 21.684L130.281 21.6131L130.279 21.6182L130.52 21.684ZM129.988 23.28L129.768 23.1615L129.988 23.28ZM129.484 23.644V23.3938L129.474 23.3942L129.484 23.644ZM128.784 23.672V23.9222L128.794 23.9218L128.784 23.672ZM126.852 22.188L126.621 22.0935L126.6 22.1458L126.603 22.2021L126.852 22.188ZM127.636 19.92L127.395 19.8549L127.394 19.8594L127.636 19.92ZM131.584 4.436L131.828 4.49106L131.834 4.46387V4.436H131.584ZM131.78 3.316L131.54 3.2473L131.538 3.25326L131.78 3.316ZM132.34 1.916L132.125 1.78874L132.121 1.79629L132.34 1.916ZM134.552 1.776L134.416 1.98527L134.419 1.98756L134.552 1.776ZM135.336 2.924L135.578 2.98705L135.588 2.95091L135.586 2.91359L135.336 2.924ZM132.536 13.928L132.294 13.8674L132.726 14.0912L132.536 13.928ZM134.608 12.024L134.455 11.8269L134.453 11.8284L134.608 12.024ZM137.436 10.092L137.563 10.3075L137.566 10.3056L137.436 10.092ZM139.704 9.084V8.834H139.684L139.663 8.8374L139.704 9.084ZM140.516 9.224L140.458 9.46721L140.461 9.46778L140.516 9.224ZM141.3 9.616L141.092 9.75489L141.1 9.766L141.3 9.616ZM141.106 10.752C140.768 10.9773 140.057 11.4638 138.974 12.2102L139.258 12.6218C140.341 11.8749 141.049 11.3907 141.383 11.168L141.106 10.752ZM138.977 12.2085C137.891 12.9384 136.825 13.687 135.777 14.4543L136.072 14.8577C137.115 14.0944 138.176 13.3496 139.256 12.6235L138.977 12.2085ZM135.777 14.4538C135.262 14.8283 134.863 15.1329 134.582 15.3667C134.441 15.4833 134.327 15.5851 134.241 15.671C134.163 15.7487 134.083 15.8376 134.044 15.9265L134.501 16.1295C134.499 16.1344 134.516 16.1031 134.594 16.0245C134.665 15.9541 134.766 15.8633 134.901 15.7513C135.17 15.5277 135.56 15.2304 136.071 14.8582L135.777 14.4538ZM134.035 16.1051C134.16 16.4909 134.437 16.954 134.843 17.4884C135.253 18.0267 135.807 18.653 136.501 19.3664L136.859 19.0176C136.173 18.3124 135.634 17.702 135.241 17.1856C134.845 16.6654 134.609 16.2558 134.51 15.9509L134.035 16.1051ZM136.502 19.3676C137.889 20.7733 139.115 21.849 140.177 22.5892L140.463 22.1788C139.435 21.463 138.234 20.4107 136.858 19.0164L136.502 19.3676ZM140.071 22.3709C140.057 22.6308 139.888 22.957 139.476 23.3513L139.821 23.7127C140.268 23.2857 140.546 22.8465 140.57 22.3971L140.071 22.3709ZM139.476 23.3513C139.057 23.7521 138.744 23.898 138.528 23.898V24.398C138.947 24.398 139.381 24.1333 139.821 23.7127L139.476 23.3513ZM138.528 23.898C138.245 23.898 138.052 23.8619 137.93 23.8075L137.727 24.2645C137.941 24.3595 138.214 24.398 138.528 24.398V23.898ZM137.914 23.8011C137.743 23.739 137.505 23.6002 137.194 23.367C136.887 23.1363 136.521 22.8232 136.095 22.4254L135.754 22.7906C136.187 23.1955 136.567 23.5217 136.894 23.767C137.218 24.0098 137.503 24.1836 137.743 24.2709L137.914 23.8011ZM136.097 22.4273C135.265 21.6325 134.442 20.735 133.626 19.7341L133.239 20.0499C134.066 21.065 134.903 21.9781 135.752 22.7887L136.097 22.4273ZM133.626 19.7341C132.813 18.7357 132.25 17.8601 131.926 17.1055L131.467 17.3025C131.815 18.1159 132.409 19.0323 133.239 20.0499L133.626 19.7341ZM131.454 17.1434C130.912 19.309 130.522 20.7976 130.281 21.6132L130.76 21.7548C131.004 20.9278 131.398 19.4297 131.939 17.2646L131.454 17.1434ZM130.279 21.6182C130.054 22.4449 129.883 22.9484 129.768 23.1615L130.208 23.3985C130.355 23.1263 130.539 22.5657 130.762 21.7498L130.279 21.6182ZM129.768 23.1615C129.664 23.3551 129.566 23.394 129.484 23.394V23.894C129.813 23.894 130.051 23.6903 130.208 23.3985L129.768 23.1615ZM129.474 23.3942L128.774 23.4222L128.794 23.9218L129.494 23.8938L129.474 23.3942ZM128.784 23.422C128.196 23.422 127.791 23.3031 127.53 23.1027C127.278 22.9093 127.127 22.6134 127.102 22.1739L126.603 22.2021C126.634 22.752 126.833 23.198 127.225 23.4993C127.608 23.7935 128.14 23.922 128.784 23.922V23.422ZM127.084 22.2825C127.459 21.3625 127.725 20.5942 127.879 19.9806L127.394 19.8594C127.249 20.4404 126.992 21.1841 126.621 22.0935L127.084 22.2825ZM127.878 19.9851C129.726 13.1337 131.043 7.96829 131.828 4.49106L131.34 4.38093C130.558 7.8477 129.243 13.005 127.395 19.8549L127.878 19.9851ZM131.834 4.436C131.834 4.22725 131.892 3.88009 132.022 3.37874L131.538 3.25326C131.407 3.75991 131.334 4.15941 131.334 4.436H131.834ZM132.021 3.38468C132.166 2.87696 132.346 2.42783 132.56 2.03571L132.121 1.79629C131.887 2.2255 131.694 2.70971 131.54 3.24732L132.021 3.38468ZM132.556 2.04318C132.786 1.65382 132.982 1.55 133.124 1.55V1.05C132.707 1.05 132.38 1.35685 132.125 1.78882L132.556 2.04318ZM133.124 1.55C133.532 1.55 133.961 1.68804 134.416 1.98524L134.689 1.56676C134.173 1.22929 133.65 1.05 133.124 1.05V1.55ZM134.419 1.98756C134.879 2.27695 135.072 2.59437 135.087 2.93441L135.586 2.91359C135.563 2.35763 135.234 1.90972 134.686 1.56444L134.419 1.98756ZM135.094 2.86095C134.291 5.94199 133.358 9.61084 132.294 13.8674L132.779 13.9886C133.843 9.73316 134.776 6.06601 135.578 2.98705L135.094 2.86095ZM132.726 14.0912C133.178 13.5668 133.855 12.9432 134.764 12.2196L134.453 11.8284C133.532 12.5608 132.828 13.2066 132.347 13.7648L132.726 14.0912ZM134.762 12.2211C135.687 11.4994 136.621 10.8616 137.563 10.3075L137.31 9.87652C136.348 10.4424 135.396 11.0926 134.455 11.8269L134.762 12.2211ZM137.566 10.3056C138.512 9.73069 139.234 9.41577 139.745 9.3306L139.663 8.8374C139.054 8.93889 138.265 9.29597 137.306 9.87837L137.566 10.3056ZM139.704 9.334C139.82 9.334 140.064 9.37324 140.458 9.4672L140.574 8.9808C140.185 8.88809 139.887 8.834 139.704 8.834V9.334ZM140.461 9.46778C140.655 9.51178 140.802 9.56221 140.909 9.61561C141.017 9.66964 141.069 9.71951 141.092 9.75467L141.508 9.47733C141.42 9.34449 141.285 9.24503 141.132 9.16839C140.978 9.09112 140.789 9.02955 140.572 8.98022L140.461 9.46778ZM141.1 9.766C141.088 9.74901 141.103 9.76114 141.116 9.85435C141.128 9.93583 141.134 10.051 141.134 10.204H141.634C141.634 10.0396 141.627 9.89817 141.611 9.78364C141.596 9.68086 141.569 9.55766 141.5 9.466L141.1 9.766ZM141.134 10.204C141.134 10.402 141.123 10.5507 141.104 10.6555C141.082 10.7711 141.058 10.7928 141.068 10.7832L141.421 11.1368C141.524 11.0338 141.57 10.8829 141.595 10.7465C141.622 10.5993 141.634 10.4167 141.634 10.204H141.134ZM146.179 22.496L146.343 22.3071L146.179 22.496ZM146.235 14.656L146.02 14.5285L146.019 14.5305L146.235 14.656ZM149.791 11.072L149.919 11.2869L149.92 11.2864L149.791 11.072ZM157.239 10.624L157.078 10.8153L157.081 10.8177L157.239 10.624ZM157.659 14.824L157.483 14.6472L157.659 14.824ZM155.867 15.944L155.961 16.1758L155.966 16.1738L155.867 15.944ZM152.059 17.316L152.138 17.5535L152.14 17.5527L152.059 17.316ZM148.195 18.632L148.111 18.3967L147.988 18.4409L147.954 18.5676L148.195 18.632ZM148.727 20.704L148.591 20.9134L148.595 20.916L148.727 20.704ZM153.571 20.032L153.352 19.9118L153.35 19.915L153.571 20.032ZM156.847 18.744L156.659 18.9086L156.665 18.9149L156.671 18.9208L156.847 18.744ZM157.295 19.696L157.529 19.7838L157.548 19.7349L157.545 19.6829L157.295 19.696ZM155.979 21.516L156.148 21.7005L156.151 21.6979L155.979 21.516ZM153.487 23L153.578 23.233L153.487 23ZM148.979 16.056L148.751 15.9537L148.521 16.4668L149.056 16.2939L148.979 16.056ZM153.543 14.404L153.641 14.6344L153.644 14.633L153.543 14.404ZM154.971 12.332L154.84 12.5449L154.846 12.5487L154.853 12.5521L154.971 12.332ZM152.255 12.752L152.128 12.5366L152.126 12.5381L152.255 12.752ZM150.267 14.32L150.444 14.4968L150.267 14.32ZM150.183 23.338C148.378 23.338 147.116 22.9771 146.343 22.3071L146.016 22.6849C146.922 23.4709 148.33 23.838 150.183 23.838V23.338ZM146.343 22.3071C145.563 21.6313 145.169 20.7323 145.169 19.584H144.669C144.669 20.8624 145.115 21.9047 146.016 22.6849L146.343 22.3071ZM145.169 19.584C145.169 17.8541 145.597 16.2548 146.452 14.7815L146.019 14.5305C145.119 16.0812 144.669 17.7673 144.669 19.584H145.169ZM146.45 14.7835C147.326 13.3065 148.481 12.1423 149.919 11.2868L149.664 10.8571C148.152 11.7564 146.937 12.9815 146.02 14.5285L146.45 14.7835ZM149.92 11.2864C151.375 10.4133 152.936 9.978 154.607 9.978V9.478C152.844 9.478 151.194 9.93866 149.663 10.8576L149.92 11.2864ZM154.607 9.978C155.602 9.978 156.42 10.2607 157.078 10.8152L157.4 10.4328C156.64 9.79264 155.704 9.478 154.607 9.478V9.978ZM157.081 10.8177C157.719 11.3375 158.053 12.1164 158.053 13.2H158.553C158.553 12.0063 158.179 11.0678 157.397 10.4303L157.081 10.8177ZM158.053 13.2C158.053 13.7926 157.861 14.2686 157.483 14.6472L157.836 15.0008C158.316 14.5208 158.553 13.9141 158.553 13.2H158.053ZM157.483 14.6472C157.102 15.0275 156.536 15.3854 155.769 15.7142L155.966 16.1738C156.767 15.8306 157.395 15.4419 157.836 15.0008L157.483 14.6472ZM155.774 15.7123C154.997 16.0268 153.733 16.4822 151.979 17.0793L152.14 17.5527C153.895 16.9552 155.17 16.4959 155.961 16.1757L155.774 15.7123ZM151.981 17.0786C150.393 17.6016 149.103 18.041 148.111 18.3967L148.28 18.8673C149.266 18.5137 150.552 18.0758 152.138 17.5534L151.981 17.0786ZM147.954 18.5676C147.873 18.8692 147.833 19.1803 147.833 19.5H148.333C148.333 19.2224 148.368 18.9548 148.437 18.6964L147.954 18.5676ZM147.833 19.5C147.833 20.1051 148.089 20.5862 148.591 20.9134L148.864 20.4946C148.507 20.2618 148.333 19.9402 148.333 19.5H147.833ZM148.595 20.916C149.098 21.2306 149.776 21.374 150.603 21.374V20.874C149.825 20.874 149.253 20.7374 148.86 20.492L148.595 20.916ZM150.603 21.374C151.14 21.374 151.745 21.2649 152.414 21.0545L152.264 20.5775C151.627 20.7778 151.075 20.874 150.603 20.874V21.374ZM152.414 21.0545C153.08 20.8453 153.575 20.5586 153.792 20.149L153.35 19.915C153.231 20.14 152.905 20.376 152.264 20.5775L152.414 21.0545ZM153.791 20.1522C154.103 19.5833 154.393 19.1723 154.658 18.9068C154.926 18.6386 155.142 18.546 155.307 18.546V18.046C154.951 18.046 154.615 18.2428 154.305 18.5532C153.991 18.8663 153.675 19.3234 153.352 19.9118L153.791 20.1522ZM155.307 18.546C156.061 18.546 156.474 18.6973 156.659 18.9086L157.035 18.5794C156.698 18.1934 156.084 18.046 155.307 18.046V18.546ZM156.671 18.9208C156.912 19.1625 157.031 19.4234 157.046 19.7091L157.545 19.6829C157.523 19.2593 157.342 18.8855 157.024 18.5672L156.671 18.9208ZM157.061 19.6082C156.855 20.1583 156.444 20.7343 155.808 21.3341L156.151 21.6979C156.821 21.0657 157.288 20.4284 157.529 19.7838L157.061 19.6082ZM155.811 21.3315C155.185 21.9039 154.382 22.3838 153.397 22.767L153.578 23.233C154.609 22.8322 155.467 22.3228 156.148 21.7005L155.811 21.3315ZM153.397 22.767C152.421 23.1466 151.35 23.338 150.183 23.338V23.838C151.406 23.838 152.538 23.6374 153.578 23.233L153.397 22.767ZM149.056 16.2939C150.908 15.6953 152.437 15.1422 153.641 14.6343L153.446 14.1737C152.261 14.6738 150.747 15.222 148.902 15.8181L149.056 16.2939ZM153.644 14.633C154.251 14.3674 154.725 14.0966 155.05 13.8166C155.373 13.5391 155.585 13.2216 155.585 12.864H155.085C155.085 13.0104 154.999 13.2016 154.724 13.4374C154.453 13.6708 154.031 13.918 153.443 14.175L153.644 14.633ZM155.585 12.864C155.585 12.5254 155.391 12.2742 155.09 12.1119L154.853 12.5521C155.037 12.6511 155.085 12.7546 155.085 12.864H155.585ZM155.102 12.1191C154.821 11.946 154.514 11.858 154.187 11.858V12.358C154.42 12.358 154.636 12.4194 154.84 12.5449L155.102 12.1191ZM154.187 11.858C153.566 11.858 152.877 12.0953 152.128 12.5367L152.382 12.9673C153.09 12.55 153.689 12.358 154.187 12.358V11.858ZM152.126 12.5381C151.398 12.9784 150.72 13.5137 150.091 14.1432L150.444 14.4968C151.047 13.8943 151.694 13.3843 152.385 12.9659L152.126 12.5381ZM150.091 14.1432C149.462 14.7716 149.011 15.3749 148.751 15.9537L149.207 16.1583C149.433 15.6545 149.84 15.1004 150.444 14.4968L150.091 14.1432ZM165.826 21.936L165.58 21.8906L165.579 21.9006L165.826 21.936ZM165.714 22.608L165.468 22.5646L165.467 22.5716L165.466 22.5788L165.714 22.608ZM165.294 23.28L165.176 23.0598L165.168 23.0641L165.294 23.28ZM162.774 23.28L162.874 23.051L162.774 23.28ZM162.298 22.44L162.053 22.391L162.047 22.4206L162.048 22.4509L162.298 22.44ZM163.026 18.464L163.272 18.5074L163.026 18.464ZM163.558 15.608L163.804 15.6549L163.804 15.6543L163.558 15.608ZM164.118 12.808L164.362 12.8631L164.364 12.853L164.366 12.8429L164.118 12.808ZM164.902 10.204L165.096 10.3623L165.099 10.3581L164.902 10.204ZM167.422 9.84L167.254 10.0252L167.262 10.0321L167.422 9.84ZM167.786 10.568L168.034 10.6016L168.037 10.5771L168.036 10.5524L167.786 10.568ZM167.562 12.22L167.314 12.1864L167.188 13.1159L167.76 12.3724L167.562 12.22ZM169.55 10.428L169.68 10.6415L169.684 10.6391L169.55 10.428ZM173.554 10.148L173.419 10.3587L173.426 10.3624L173.554 10.148ZM173.638 12.024L173.535 11.7964L173.531 11.7983L173.638 12.024ZM172.07 12.388L172.049 12.1389L172.048 12.139L172.07 12.388ZM169.018 13.704L168.865 13.5067L169.018 13.704ZM166.834 16.476L166.604 16.379L166.593 16.404L166.588 16.4306L166.834 16.476ZM165.579 21.9006C165.561 22.0268 165.524 22.2472 165.468 22.5646L165.96 22.6514C166.016 22.3341 166.054 22.1065 166.074 21.9714L165.579 21.9006ZM165.466 22.5788C165.436 22.83 165.334 22.9745 165.176 23.0599L165.413 23.5001C165.739 23.3242 165.917 23.0207 165.962 22.6372L165.466 22.5788ZM165.168 23.0641C165.006 23.1588 164.682 23.226 164.146 23.226V23.726C164.693 23.726 165.135 23.6625 165.42 23.4959L165.168 23.0641ZM164.146 23.226C163.539 23.226 163.124 23.1604 162.874 23.051L162.674 23.509C163.021 23.661 163.521 23.726 164.146 23.726V23.226ZM162.874 23.051C162.692 22.971 162.564 22.7989 162.548 22.4291L162.048 22.4509C162.07 22.9397 162.259 23.3276 162.674 23.509L162.874 23.051ZM162.543 22.489C162.693 21.7392 162.936 20.4113 163.272 18.5074L162.78 18.4206C162.444 20.3247 162.202 21.6474 162.053 22.391L162.543 22.489ZM163.272 18.5074C163.384 17.8746 163.561 16.924 163.804 15.6549L163.313 15.5611C163.07 16.8306 162.892 17.7841 162.78 18.4206L163.272 18.5074ZM163.804 15.6543C164.046 14.3666 164.232 13.437 164.362 12.8631L163.874 12.7529C163.743 13.3363 163.555 14.2734 163.312 15.5617L163.804 15.6543ZM164.366 12.8429C164.458 12.1875 164.568 11.6526 164.694 11.2351C164.82 10.8134 164.958 10.5303 165.096 10.3623L164.709 10.0457C164.51 10.2884 164.349 10.6446 164.215 11.0909C164.079 11.5414 163.965 12.1032 163.871 12.7731L164.366 12.8429ZM165.099 10.3581C165.394 9.98079 165.736 9.81 166.134 9.81V9.31C165.562 9.31 165.082 9.56854 164.705 10.0499L165.099 10.3581ZM166.134 9.81C166.451 9.81 166.702 9.83277 166.893 9.87429C167.087 9.91656 167.197 9.97362 167.254 10.025L167.59 9.65501C167.441 9.51971 167.234 9.43677 166.999 9.38571C166.761 9.33389 166.471 9.31 166.134 9.31V9.81ZM167.262 10.0321C167.432 10.1734 167.522 10.3515 167.537 10.5836L168.036 10.5524C168.013 10.1872 167.861 9.87992 167.582 9.64794L167.262 10.0321ZM167.538 10.5344L167.314 12.1864L167.81 12.2536L168.034 10.6016L167.538 10.5344ZM167.76 12.3724C168.302 11.6682 168.942 11.0917 169.68 10.6414L169.42 10.2146C168.628 10.6976 167.942 11.3158 167.364 12.0676L167.76 12.3724ZM169.684 10.6391C170.427 10.1679 171.071 9.95 171.622 9.95V9.45C170.941 9.45 170.204 9.7174 169.416 10.2169L169.684 10.6391ZM171.622 9.95C172.417 9.95 173.008 10.0952 173.419 10.3586L173.689 9.93743C173.167 9.60342 172.47 9.45 171.622 9.45V9.95ZM173.426 10.3624C173.836 10.6085 174.004 10.8998 174.004 11.24H174.504C174.504 10.6842 174.206 10.2475 173.683 9.93363L173.426 10.3624ZM174.004 11.24C174.004 11.4435 173.892 11.6338 173.535 11.7964L173.742 12.2516C174.205 12.0409 174.504 11.7085 174.504 11.24H174.004ZM173.531 11.7983C173.176 11.9672 172.686 12.0843 172.049 12.1389L172.091 12.6371C172.761 12.5797 173.316 12.4541 173.746 12.2497L173.531 11.7983ZM172.048 12.139C170.963 12.2376 169.901 12.7003 168.865 13.5067L169.172 13.9013C170.151 13.1397 171.124 12.725 172.093 12.637L172.048 12.139ZM168.865 13.5067C167.827 14.3141 167.07 15.2714 166.604 16.379L167.065 16.573C167.494 15.5526 168.194 14.6619 169.172 13.9013L168.865 13.5067ZM166.588 16.4306L165.58 21.8906L166.072 21.9814L167.08 16.5214L166.588 16.4306ZM185.795 12.164L186.022 12.2675L186.122 12.0481L185.906 11.9404L185.795 12.164ZM182.435 12.5L182.342 12.2679L182.435 12.5ZM183.275 15.44L183.368 15.2082L183.364 15.2067L183.275 15.44ZM185.179 16.336L185.054 16.5525L185.179 16.336ZM186.439 17.568L186.229 17.7051L186.235 17.7133L186.439 17.568ZM185.319 22.692L185.454 22.9022L185.455 22.9016L185.319 22.692ZM178.319 23.336L178.403 23.1006L178.319 23.336ZM176.443 22.272L176.266 22.4489L176.273 22.456L176.443 22.272ZM175.715 20.956H175.465V20.9668L175.465 20.9777L175.715 20.956ZM176.303 19.864L176.448 20.0675L176.454 20.0629L176.303 19.864ZM177.955 19.276L178.204 19.2635L178.191 18.9928L177.922 19.0281L177.955 19.276ZM178.543 20.34L178.375 20.5259L178.381 20.5305L178.543 20.34ZM179.859 21.124L179.764 21.3557L179.774 21.3594L179.859 21.124ZM182.939 20.9L183.074 21.1104L183.079 21.1069L182.939 20.9ZM181.231 17.624L181.303 17.3848L181.302 17.3844L181.231 17.624ZM178.767 16.112L178.572 16.2695L178.575 16.2726L178.767 16.112ZM179.971 10.68L180.079 10.9054L180.08 10.9048L179.971 10.68ZM188.007 10.092L188.105 9.86221L188.007 10.092ZM188.455 12.78L188.278 12.6032L188.273 12.6081L188.455 12.78ZM185.907 13.2L185.774 13.412L185.789 13.4213L185.805 13.4285L185.907 13.2ZM185.655 12.752H185.405V12.7633L185.406 12.7746L185.655 12.752ZM185.906 11.9404C185.638 11.8061 185.317 11.746 184.955 11.746V12.246C185.264 12.246 185.503 12.2979 185.683 12.3876L185.906 11.9404ZM184.955 11.746C184.08 11.746 183.209 11.921 182.342 12.2679L182.527 12.7321C183.34 12.407 184.149 12.246 184.955 12.246V11.746ZM182.342 12.2679C181.482 12.6117 180.925 13.1009 180.925 13.788H181.425C181.425 13.4298 181.707 13.0603 182.527 12.7321L182.342 12.2679ZM180.925 13.788C180.925 14.2527 181.141 14.6261 181.54 14.892L181.817 14.476C181.544 14.2939 181.425 14.07 181.425 13.788H180.925ZM181.54 14.892C181.899 15.1317 182.452 15.3916 183.185 15.6733L183.364 15.2067C182.641 14.9284 182.13 14.6843 181.817 14.476L181.54 14.892ZM183.181 15.6717C183.959 15.9867 184.582 16.2804 185.054 16.5525L185.303 16.1195C184.804 15.8316 184.158 15.528 183.368 15.2083L183.181 15.6717ZM185.054 16.5525C185.5 16.8102 185.893 17.1913 186.229 17.705L186.648 17.431C186.275 16.862 185.828 16.4218 185.303 16.1195L185.054 16.5525ZM186.235 17.7133C186.571 18.1831 186.749 18.8002 186.749 19.584H187.249C187.249 18.7251 187.053 17.9982 186.642 17.4227L186.235 17.7133ZM186.749 19.584C186.749 20.844 186.231 21.8008 185.182 22.4824L185.455 22.9016C186.646 22.1272 187.249 21.012 187.249 19.584H186.749ZM185.183 22.4818C184.136 23.1563 182.705 23.506 180.867 23.506V24.006C182.762 24.006 184.298 23.6463 185.454 22.9022L185.183 22.4818ZM180.867 23.506C179.978 23.506 179.157 23.37 178.403 23.1006L178.234 23.5714C179.048 23.862 179.926 24.006 180.867 24.006V23.506ZM178.403 23.1006C177.641 22.8285 177.047 22.4888 176.612 22.088L176.273 22.456C176.771 22.9139 177.428 23.2835 178.234 23.5714L178.403 23.1006ZM176.619 22.0952C176.194 21.6698 175.994 21.283 175.964 20.9343L175.465 20.9777C175.51 21.4877 175.795 21.9782 176.266 22.4488L176.619 22.0952ZM175.965 20.956C175.965 20.5956 176.116 20.3046 176.448 20.0674L176.157 19.6606C175.705 19.9834 175.465 20.4204 175.465 20.956H175.965ZM176.454 20.0629C176.799 19.7999 177.303 19.6139 177.987 19.5239L177.922 19.0281C177.188 19.1248 176.59 19.3308 176.151 19.6651L176.454 20.0629ZM177.705 19.2885C177.728 19.7486 177.97 20.1611 178.375 20.5258L178.71 20.1542C178.368 19.8469 178.219 19.5501 178.204 19.2635L177.705 19.2885ZM178.381 20.5305C178.776 20.8668 179.238 21.1413 179.764 21.3555L179.953 20.8925C179.471 20.6961 179.055 20.4479 178.704 20.1495L178.381 20.5305ZM179.774 21.3594C180.312 21.5515 180.79 21.654 181.203 21.654V21.154C180.868 21.154 180.45 21.0698 179.943 20.8886L179.774 21.3594ZM181.203 21.654C181.884 21.654 182.51 21.4728 183.074 21.1103L182.803 20.6897C182.322 20.9992 181.79 21.154 181.203 21.154V21.654ZM183.079 21.1069C183.644 20.7237 183.973 20.2452 183.973 19.668H183.473C183.473 20.0241 183.279 20.3669 182.798 20.6931L183.079 21.1069ZM183.973 19.668C183.973 19.1454 183.715 18.6948 183.258 18.3197C182.807 17.9493 182.148 17.6411 181.303 17.3848L181.158 17.8632C181.974 18.1109 182.562 18.3953 182.941 18.7063C183.314 19.0125 183.473 19.3319 183.473 19.668H183.973ZM181.302 17.3844C180.274 17.0778 179.499 16.5967 178.958 15.9514L178.575 16.2726C179.192 17.0087 180.059 17.5355 181.159 17.8636L181.302 17.3844ZM178.961 15.9545C178.431 15.3009 178.177 14.627 178.177 13.928H177.677C177.677 14.7597 177.982 15.5418 178.572 16.2695L178.961 15.9545ZM178.177 13.928C178.177 13.2104 178.338 12.6098 178.649 12.1152C178.96 11.6205 179.432 11.2155 180.079 10.9054L179.862 10.4546C179.146 10.7979 178.596 11.2609 178.226 11.8488C177.856 12.4368 177.677 13.1336 177.677 13.928H178.177ZM180.08 10.9048C181.417 10.2545 183.131 9.922 185.235 9.922V9.422C183.082 9.422 181.287 9.7615 179.861 10.4552L180.08 10.9048ZM185.235 9.922C186.415 9.922 187.3 10.0612 187.908 10.3218L188.105 9.86221C187.406 9.56278 186.443 9.422 185.235 9.422V9.922ZM187.908 10.3218C188.2 10.4469 188.403 10.6107 188.534 10.8056C188.665 11 188.737 11.2432 188.737 11.548H189.237C189.237 11.1621 189.145 10.8173 188.949 10.5264C188.753 10.236 188.466 10.0171 188.105 9.86221L187.908 10.3218ZM188.737 11.548C188.737 11.9431 188.589 12.2916 188.278 12.6032L188.631 12.9568C189.029 12.5591 189.237 12.0863 189.237 11.548H188.737ZM188.273 12.6081C187.997 12.8991 187.586 13.062 186.999 13.062V13.562C187.68 13.562 188.24 13.3702 188.636 12.9519L188.273 12.6081ZM186.999 13.062C186.723 13.062 186.501 13.0528 186.331 13.0353C186.155 13.0172 186.054 12.9921 186.008 12.9715L185.805 13.4285C185.927 13.4825 186.092 13.5135 186.28 13.5327C186.474 13.5526 186.714 13.562 186.999 13.562V13.062ZM186.039 12.988C185.968 12.9435 185.916 12.8719 185.904 12.7294L185.406 12.7746C185.43 13.0428 185.547 13.2698 185.774 13.412L186.039 12.988ZM185.905 12.752C185.905 12.6077 185.941 12.4469 186.022 12.2675L185.567 12.0605C185.462 12.2917 185.405 12.523 185.405 12.752H185.905Z" fill="#040032"/>
</g>
<defs>
<filter id="filter0_d" x="0.380569" y="0.0500031" width="190.856" height="27.348" filterUnits="userSpaceOnUse" color-interpolation-filters="sRGB">
<feFlood flood-opacity="0" result="BackgroundImageFix"/>
<feColorMatrix in="SourceAlpha" type="matrix" values="0 0 0 0 0 0 0 0 0 0 0 0 0 0 0 0 0 0 127 0"/>
<feOffset dy="1"/>
<feGaussianBlur stdDeviation="1"/>
<feColorMatrix type="matrix" values="0 0 0 0 0 0 0 0 0 0 0 0 0 0 0 0 0 0 0.25 0"/>
<feBlend mode="normal" in2="BackgroundImageFix" result="effect1_dropShadow"/>
<feBlend mode="normal" in="SourceGraphic" in2="effect1_dropShadow" result="shape"/>
</filter>
<linearGradient id="paint0_linear" x1="-168" y1="3.99998" x2="189" y2="30" gradientUnits="userSpaceOnUse">
<stop stop-color="#146CE7"/>
<stop offset="1" stop-color="#DADCDF"/>
</linearGradient>
</defs>
</svg>
