<svg width="163" height="30" viewBox="0 0 163 30" fill="none" xmlns="http://www.w3.org/2000/svg">
<g filter="url(#filter0_d)">
<path d="M4.4445 21C4.36983 21 4.3325 20.9533 4.3325 20.86L4.3605 1.624C4.3605 1.54933 4.40717 1.512 4.5005 1.512H7.6085C7.70183 1.512 7.7485 1.54933 7.7485 1.624L7.7205 9.24H11.9205V1.624C11.9205 1.54933 11.9578 1.512 12.0325 1.512H15.1405C15.2338 1.512 15.2805 1.54933 15.2805 1.624L15.3365 20.86C15.3365 20.9533 15.2898 21 15.1965 21H12.0605C11.9672 21 11.9205 20.9533 11.9205 20.86V12.628H7.7205V20.86C7.7205 20.9533 7.68317 21 7.6085 21H4.4445ZM25.6016 21.28C24.5936 21.28 23.6696 21.028 22.8296 20.524C22.0082 20.0013 21.3456 19.32 20.8416 18.48C20.3376 17.6213 20.0856 16.6787 20.0856 15.652L20.1136 6.776C20.1136 5.74933 20.3562 4.816 20.8416 3.976C21.3456 3.136 22.0176 2.464 22.8576 1.96C23.6976 1.456 24.6122 1.204 25.6016 1.204C26.6096 1.204 27.5242 1.456 28.3456 1.96C29.1669 2.464 29.8202 3.136 30.3056 3.976C30.8096 4.816 31.0616 5.74933 31.0616 6.776L31.0896 15.652C31.0896 16.6787 30.8376 17.6213 30.3336 18.48C29.8482 19.32 29.1856 20.0013 28.3456 20.524C27.5242 21.028 26.6096 21.28 25.6016 21.28ZM25.6016 17.892C26.1616 17.892 26.6469 17.668 27.0576 17.22C27.4869 16.7533 27.7016 16.2307 27.7016 15.652L27.6736 6.776C27.6736 6.16 27.4776 5.63733 27.0856 5.208C26.6936 4.77867 26.1989 4.564 25.6016 4.564C25.0229 4.564 24.5282 4.77867 24.1176 5.208C23.7069 5.61867 23.5016 6.14133 23.5016 6.776V15.652C23.5016 16.268 23.7069 16.8 24.1176 17.248C24.5282 17.6773 25.0229 17.892 25.6016 17.892ZM36.1304 21C36.0558 21 36.0184 20.9533 36.0184 20.86L36.0744 1.624C36.0744 1.54933 36.1118 1.512 36.1864 1.512H39.6024C39.6771 1.512 39.7424 1.54933 39.7984 1.624L42.3464 5.32L44.8944 1.624C44.9504 1.54933 45.0158 1.512 45.0904 1.512H48.5344C48.6091 1.512 48.6464 1.54933 48.6464 1.624L48.7024 20.86C48.7024 20.9533 48.6651 21 48.5904 21H45.4264C45.3518 21 45.3144 20.9533 45.3144 20.86L45.2864 6.58L42.3464 10.836L39.4344 6.58L39.4064 20.86C39.4064 20.9533 39.3691 21 39.2944 21H36.1304ZM53.9695 21C53.8948 21 53.8575 20.9533 53.8575 20.86L53.8855 1.624C53.8855 1.54933 53.9228 1.512 53.9975 1.512H62.9855C63.0602 1.512 63.0975 1.55867 63.0975 1.652V4.788C63.0975 4.86267 63.0602 4.9 62.9855 4.9H57.2455V9.268H62.9855C63.0602 9.268 63.0975 9.30533 63.0975 9.38L63.1255 12.544C63.1255 12.6187 63.0882 12.656 63.0135 12.656H57.2455V17.556H63.0135C63.0882 17.556 63.1255 17.6027 63.1255 17.696V20.888C63.1255 20.9627 63.0882 21 63.0135 21H53.9695ZM68.5273 21C68.4526 21 68.4153 20.9533 68.4153 20.86L68.4713 1.624C68.4713 1.54933 68.5086 1.512 68.5833 1.512H71.9993C72.074 1.512 72.1393 1.54933 72.1953 1.624L74.7433 5.32L77.2913 1.624C77.3473 1.54933 77.4126 1.512 77.4873 1.512H80.9313C81.006 1.512 81.0433 1.54933 81.0433 1.624L81.0993 20.86C81.0993 20.9533 81.062 21 80.9873 21H77.8233C77.7486 21 77.7113 20.9533 77.7113 20.86L77.6833 6.58L74.7433 10.836L71.8313 6.58L71.8033 20.86C71.8033 20.9533 71.766 21 71.6913 21H68.5273ZM85.3024 20.86L88.7744 1.624C88.793 1.54933 88.8397 1.512 88.9144 1.512H92.9744C93.049 1.512 93.0957 1.54933 93.1144 1.624L96.4464 20.86C96.465 20.9533 96.4277 21 96.3344 21H93.2264C93.1517 21 93.105 20.9533 93.0864 20.86L92.7784 18.816H88.9704L88.6624 20.86C88.6437 20.9533 88.597 21 88.5224 21H85.4144C85.3397 21 85.3024 20.9533 85.3024 20.86ZM89.5304 15.82H92.2184L91.0704 7.952L90.9024 6.916L90.7904 7.952L89.5304 15.82ZM101.116 21C101.041 21 101.004 20.9533 101.004 20.86L101.06 1.652C101.06 1.55867 101.097 1.512 101.172 1.512H104.308C104.382 1.512 104.42 1.55867 104.42 1.652V8.288L108.816 1.624C108.872 1.54933 108.937 1.512 109.012 1.512H112.232C112.306 1.512 112.325 1.54933 112.288 1.624L107.444 9.352L112.876 20.888C112.913 20.9627 112.866 21 112.736 21H109.32C109.226 21 109.17 20.9627 109.152 20.888L105.372 12.656L104.392 14.196V20.86C104.392 20.9533 104.354 21 104.28 21H101.116ZM117.041 21C116.966 21 116.929 20.9533 116.929 20.86L116.957 1.624C116.957 1.54933 116.994 1.512 117.069 1.512H126.057C126.131 1.512 126.169 1.55867 126.169 1.652V4.788C126.169 4.86267 126.131 4.9 126.057 4.9H120.317V9.268H126.057C126.131 9.268 126.169 9.30533 126.169 9.38L126.197 12.544C126.197 12.6187 126.159 12.656 126.085 12.656H120.317V17.556H126.085C126.159 17.556 126.197 17.6027 126.197 17.696V20.888C126.197 20.9627 126.159 21 126.085 21H117.041ZM131.598 21C131.524 21 131.486 20.9533 131.486 20.86L131.542 1.624C131.542 1.54933 131.58 1.512 131.654 1.512H137.31C138.318 1.512 139.242 1.764 140.082 2.268C140.941 2.75333 141.622 3.416 142.126 4.256C142.63 5.07733 142.882 6.01067 142.882 7.056C142.882 7.74667 142.78 8.372 142.574 8.932C142.369 9.47333 142.126 9.94 141.846 10.332C141.566 10.7053 141.314 10.9853 141.09 11.172C142.098 12.292 142.602 13.608 142.602 15.12L142.63 20.86C142.63 20.9533 142.584 21 142.49 21H139.326C139.252 21 139.214 20.972 139.214 20.916V15.12C139.214 14.448 138.972 13.8693 138.486 13.384C138.02 12.88 137.441 12.628 136.75 12.628H134.902L134.874 20.86C134.874 20.9533 134.837 21 134.762 21H131.598ZM134.902 9.268H137.31C137.889 9.268 138.402 9.05333 138.85 8.624C139.298 8.19467 139.522 7.672 139.522 7.056C139.522 6.45867 139.298 5.94533 138.85 5.516C138.421 5.08667 137.908 4.872 137.31 4.872H134.902V9.268ZM152.472 21.28C151.464 21.28 150.54 21.028 149.7 20.524C148.879 20.0013 148.216 19.32 147.712 18.48C147.227 17.6213 146.984 16.6787 146.984 15.652V14.364C146.984 14.2707 147.031 14.224 147.124 14.224H150.26C150.335 14.224 150.372 14.2707 150.372 14.364V15.652C150.372 16.268 150.578 16.8 150.988 17.248C151.399 17.6773 151.894 17.892 152.472 17.892C153.051 17.892 153.546 17.668 153.956 17.22C154.367 16.772 154.572 16.2493 154.572 15.652C154.572 14.9613 154.124 14.364 153.228 13.86C152.93 13.692 152.463 13.4307 151.828 13.076C151.194 12.7213 150.596 12.3853 150.036 12.068C149.01 11.4707 148.244 10.724 147.74 9.828C147.255 8.91333 147.012 7.88667 147.012 6.748C147.012 5.70267 147.264 4.76933 147.768 3.948C148.272 3.108 148.935 2.44533 149.756 1.96C150.596 1.47467 151.502 1.232 152.472 1.232C153.462 1.232 154.367 1.484 155.188 1.988C156.028 2.47333 156.691 3.136 157.176 3.976C157.68 4.79733 157.932 5.72133 157.932 6.748V9.044C157.932 9.11867 157.895 9.156 157.82 9.156H154.684C154.61 9.156 154.572 9.11867 154.572 9.044L154.544 6.748C154.544 6.09467 154.339 5.56267 153.928 5.152C153.518 4.74133 153.032 4.536 152.472 4.536C151.894 4.536 151.399 4.76 150.988 5.208C150.578 5.63733 150.372 6.15067 150.372 6.748C150.372 7.364 150.503 7.87733 150.764 8.288C151.026 8.69867 151.502 9.09067 152.192 9.464C152.286 9.52 152.463 9.62267 152.724 9.772C153.004 9.90267 153.303 10.0613 153.62 10.248C153.938 10.416 154.218 10.5653 154.46 10.696C154.722 10.8267 154.88 10.9107 154.936 10.948C155.87 11.4707 156.607 12.1147 157.148 12.88C157.69 13.6267 157.96 14.5507 157.96 15.652C157.96 16.716 157.708 17.6773 157.204 18.536C156.719 19.376 156.056 20.048 155.216 20.552C154.395 21.0373 153.48 21.28 152.472 21.28Z" fill="#2CAEBA"/>
<path d="M4.3325 20.86L4.0825 20.8596V20.86H4.3325ZM4.3605 1.624L4.6105 1.62436V1.624H4.3605ZM7.7485 1.624L7.9985 1.62492V1.624H7.7485ZM7.7205 9.24L7.4705 9.23908L7.46958 9.49H7.7205V9.24ZM11.9205 9.24V9.49H12.1705V9.24H11.9205ZM15.2805 1.624H15.0305L15.0305 1.62473L15.2805 1.624ZM15.3365 20.86H15.5865L15.5865 20.8593L15.3365 20.86ZM11.9205 12.628H12.1705V12.378H11.9205V12.628ZM7.7205 12.628V12.378H7.4705V12.628H7.7205ZM4.4445 20.75C4.45145 20.75 4.46903 20.7511 4.49166 20.7605C4.5158 20.7705 4.53841 20.7872 4.55572 20.8088C4.58759 20.8487 4.5825 20.88 4.5825 20.86H4.0825C4.0825 20.9334 4.09608 21.0347 4.16528 21.1212C4.24301 21.2183 4.35199 21.25 4.4445 21.25V20.75ZM4.5825 20.8604L4.6105 1.62436L4.1105 1.62364L4.0825 20.8596L4.5825 20.8604ZM4.6105 1.624C4.6105 1.63094 4.60945 1.64853 4.60002 1.67115C4.58996 1.6953 4.57331 1.71791 4.55168 1.73522C4.51184 1.76708 4.48055 1.762 4.5005 1.762V1.262C4.42712 1.262 4.32583 1.27558 4.23933 1.34478C4.14217 1.4225 4.1105 1.53149 4.1105 1.624H4.6105ZM4.5005 1.762H7.6085V1.262H4.5005V1.762ZM7.6085 1.762C7.62846 1.762 7.59716 1.76708 7.55733 1.73522C7.53569 1.71791 7.51904 1.6953 7.50898 1.67115C7.49956 1.64853 7.4985 1.63094 7.4985 1.624H7.9985C7.9985 1.53149 7.96683 1.4225 7.86968 1.34478C7.78317 1.27558 7.68188 1.262 7.6085 1.262V1.762ZM7.4985 1.62308L7.4705 9.23908L7.9705 9.24092L7.9985 1.62492L7.4985 1.62308ZM7.7205 9.49H11.9205V8.99H7.7205V9.49ZM12.1705 9.24V1.624H11.6705V9.24H12.1705ZM12.1705 1.624C12.1705 1.6252 12.17 1.67202 12.1253 1.71678C12.0805 1.76153 12.0337 1.762 12.0325 1.762V1.262C11.9566 1.262 11.8538 1.28114 11.7717 1.36322C11.6896 1.44531 11.6705 1.54813 11.6705 1.624H12.1705ZM12.0325 1.762H15.1405V1.262H12.0325V1.762ZM15.1405 1.762C15.1605 1.762 15.1292 1.76708 15.0893 1.73522C15.0677 1.71791 15.051 1.6953 15.041 1.67115C15.0316 1.64853 15.0305 1.63094 15.0305 1.624H15.5305C15.5305 1.53149 15.4988 1.4225 15.4017 1.34478C15.3152 1.27558 15.2139 1.262 15.1405 1.262V1.762ZM15.0305 1.62473L15.0865 20.8607L15.5865 20.8593L15.5305 1.62327L15.0305 1.62473ZM15.0865 20.86C15.0865 20.8681 15.0846 20.8283 15.1247 20.7882C15.1648 20.7481 15.2046 20.75 15.1965 20.75V21.25C15.2817 21.25 15.3915 21.2285 15.4783 21.1418C15.565 21.055 15.5865 20.9452 15.5865 20.86H15.0865ZM15.1965 20.75H12.0605V21.25H15.1965V20.75ZM12.0605 20.75C12.0524 20.75 12.0922 20.7481 12.1323 20.7882C12.1724 20.8283 12.1705 20.8681 12.1705 20.86H11.6705C11.6705 20.9452 11.692 21.055 11.7787 21.1418C11.8655 21.2285 11.9753 21.25 12.0605 21.25V20.75ZM12.1705 20.86V12.628H11.6705V20.86H12.1705ZM11.9205 12.378H7.7205V12.878H11.9205V12.378ZM7.4705 12.628V20.86H7.9705V12.628H7.4705ZM7.4705 20.86C7.4705 20.88 7.46542 20.8487 7.49728 20.8088C7.5146 20.7872 7.5372 20.7705 7.56135 20.7605C7.58397 20.7511 7.60156 20.75 7.6085 20.75V21.25C7.70101 21.25 7.81 21.2183 7.88772 21.1212C7.95692 21.0347 7.9705 20.9334 7.9705 20.86H7.4705ZM7.6085 20.75H4.4445V21.25H7.6085V20.75ZM22.8296 20.524L22.6953 20.735L22.7009 20.7384L22.8296 20.524ZM20.8416 18.48L20.6259 18.6066L20.6272 18.6086L20.8416 18.48ZM20.0856 15.652L19.8356 15.6512V15.652H20.0856ZM20.1136 6.776L20.3636 6.77679V6.776H20.1136ZM20.8416 3.976L20.6272 3.84736L20.6251 3.85093L20.8416 3.976ZM22.8576 1.96L22.9862 2.17437L22.8576 1.96ZM28.3456 1.96L28.2148 2.17308L28.3456 1.96ZM30.3056 3.976L30.0891 4.10109L30.0912 4.10462L30.3056 3.976ZM31.0616 6.776L30.8116 6.776L30.8116 6.77679L31.0616 6.776ZM31.0896 15.652H31.3396L31.3396 15.6512L31.0896 15.652ZM30.3336 18.48L30.118 18.3534L30.1171 18.3549L30.3336 18.48ZM28.3456 20.524L28.4763 20.7371L28.4776 20.7363L28.3456 20.524ZM27.0576 17.22L26.8736 17.0507L26.8733 17.0511L27.0576 17.22ZM27.7016 15.652H27.9516L27.9516 15.6512L27.7016 15.652ZM27.6736 6.776L27.4236 6.776L27.4236 6.77679L27.6736 6.776ZM27.0856 5.208L27.2702 5.03943L27.0856 5.208ZM24.1176 5.208L24.2944 5.38482L24.2982 5.38081L24.1176 5.208ZM24.1176 17.248L23.9332 17.417L23.9369 17.4208L24.1176 17.248ZM25.6016 21.03C24.6375 21.03 23.7582 20.7896 22.9582 20.3096L22.7009 20.7384C23.581 21.2664 24.5496 21.53 25.6016 21.53V21.03ZM22.9638 20.3131C22.1754 19.8114 21.5401 19.1583 21.0559 18.3514L20.6272 18.6086C21.151 19.4817 21.8411 20.1913 22.6953 20.7349L22.9638 20.3131ZM21.0572 18.3534C20.5764 17.5344 20.3356 16.6356 20.3356 15.652H19.8356C19.8356 16.7217 20.0987 17.7083 20.626 18.6066L21.0572 18.3534ZM20.3356 15.6528L20.3636 6.77679L19.8636 6.77521L19.8356 15.6512L20.3356 15.6528ZM20.3636 6.776C20.3636 5.79059 20.596 4.90081 21.058 4.10107L20.6251 3.85093C20.1165 4.73119 19.8636 5.70808 19.8636 6.776H20.3636ZM21.0559 4.10462C21.5388 3.29981 22.1814 2.65726 22.9862 2.17437L22.7289 1.74563C21.8538 2.27074 21.1523 2.97219 20.6272 3.84737L21.0559 4.10462ZM22.9862 2.17437C23.7869 1.69393 24.6571 1.454 25.6016 1.454V0.954C24.5674 0.954 23.6082 1.21807 22.7289 1.74563L22.9862 2.17437ZM25.6016 1.454C26.5656 1.454 27.4347 1.69436 28.2148 2.17308L28.4763 1.74692C27.6138 1.21764 26.6535 0.954 25.6016 0.954V1.454ZM28.2148 2.17308C29.0004 2.65518 29.6244 3.29682 30.0891 4.10107L30.522 3.85093C30.016 2.97517 29.3333 2.27282 28.4763 1.74692L28.2148 2.17308ZM30.0912 4.10462C30.5707 4.90386 30.8116 5.79237 30.8116 6.776H31.3116C31.3116 5.7063 31.0484 4.72813 30.5199 3.84737L30.0912 4.10462ZM30.8116 6.77679L30.8396 15.6528L31.3396 15.6512L31.3116 6.77521L30.8116 6.77679ZM30.8396 15.652C30.8396 16.6356 30.5987 17.5344 30.118 18.3534L30.5492 18.6066C31.0764 17.7083 31.3396 16.7217 31.3396 15.652H30.8396ZM30.1171 18.3549C29.6527 19.1586 29.0193 19.8103 28.2135 20.3117L28.4776 20.7363C29.3518 20.1924 30.0437 19.4813 30.55 18.6051L30.1171 18.3549ZM28.2148 20.3109C27.4347 20.7896 26.5656 21.03 25.6016 21.03V21.53C26.6535 21.53 27.6138 21.2664 28.4763 20.7371L28.2148 20.3109ZM25.6016 18.142C26.2381 18.142 26.7883 17.8837 27.2419 17.3889L26.8733 17.0511C26.5054 17.4523 26.0851 17.642 25.6016 17.642V18.142ZM27.2415 17.3893C27.7089 16.8813 27.9516 16.2996 27.9516 15.652H27.4516C27.4516 16.1617 27.2649 16.6254 26.8736 17.0507L27.2415 17.3893ZM27.9516 15.6512L27.9236 6.77521L27.4236 6.77679L27.4516 15.6528L27.9516 15.6512ZM27.9236 6.776C27.9236 6.10169 27.7069 5.51775 27.2702 5.03943L26.9009 5.37657C27.2482 5.75692 27.4236 6.21831 27.4236 6.776H27.9236ZM27.2702 5.03943C26.8294 4.55663 26.267 4.314 25.6016 4.314V4.814C26.1308 4.814 26.5578 5.00071 26.9009 5.37657L27.2702 5.03943ZM25.6016 4.314C24.9526 4.314 24.3933 4.55804 23.9369 5.03519L24.2982 5.38081C24.6631 4.99929 25.0932 4.814 25.6016 4.814V4.314ZM23.9408 5.03122C23.4787 5.49335 23.2516 6.0818 23.2516 6.776H23.7516C23.7516 6.20086 23.9351 5.74398 24.2943 5.38478L23.9408 5.03122ZM23.2516 6.776V15.652H23.7516V6.776H23.2516ZM23.2516 15.652C23.2516 16.3296 23.4797 16.9221 23.9333 17.4169L24.3019 17.0791C23.9341 16.6779 23.7516 16.2064 23.7516 15.652H23.2516ZM23.9369 17.4208C24.3933 17.898 24.9526 18.142 25.6016 18.142V17.642C25.0932 17.642 24.6631 17.4567 24.2982 17.0752L23.9369 17.4208ZM36.0184 20.86L35.7684 20.8593V20.86H36.0184ZM36.0744 1.624L36.3244 1.62473V1.624H36.0744ZM39.7984 1.624L40.0044 1.48199L39.9984 1.474L39.7984 1.624ZM42.3464 5.32L42.1406 5.4619L42.3464 5.76046L42.5523 5.4619L42.3464 5.32ZM44.8944 1.624L44.6943 1.47388L44.6886 1.4821L44.8944 1.624ZM48.6464 1.624H48.3964L48.3964 1.62473L48.6464 1.624ZM48.7024 20.86H48.9524L48.9524 20.8593L48.7024 20.86ZM45.3144 20.86H45.5644L45.5644 20.8595L45.3144 20.86ZM45.2864 6.58L45.5364 6.57951L45.5349 5.7805L45.0807 6.43791L45.2864 6.58ZM42.3464 10.836L42.1401 10.9772L42.3455 11.2773L42.5521 10.9781L42.3464 10.836ZM39.4344 6.58L39.6408 6.43883L39.186 5.7742L39.1844 6.57951L39.4344 6.58ZM39.4064 20.86L39.1564 20.8595V20.86H39.4064ZM36.1304 20.75C36.1374 20.75 36.155 20.7511 36.1776 20.7605C36.2017 20.7705 36.2243 20.7872 36.2417 20.8088C36.2735 20.8487 36.2684 20.88 36.2684 20.86H35.7684C35.7684 20.9334 35.782 21.0347 35.8512 21.1212C35.9289 21.2183 36.0379 21.25 36.1304 21.25V20.75ZM36.2684 20.8607L36.3244 1.62473L35.8244 1.62327L35.7684 20.8593L36.2684 20.8607ZM36.3244 1.624C36.3244 1.6252 36.324 1.67202 36.2792 1.71678C36.2345 1.76153 36.1876 1.762 36.1864 1.762V1.262C36.1106 1.262 36.0077 1.28114 35.9257 1.36322C35.8436 1.44531 35.8244 1.54813 35.8244 1.624H36.3244ZM36.1864 1.762H39.6024V1.262H36.1864V1.762ZM39.6024 1.762C39.6 1.762 39.5964 1.76166 39.5923 1.76056C39.5881 1.75945 39.5851 1.75802 39.5834 1.75706C39.5802 1.75524 39.5861 1.7576 39.5984 1.774L39.9984 1.474C39.9083 1.35384 39.7753 1.262 39.6024 1.262V1.762ZM39.5926 1.7659L42.1406 5.4619L42.5523 5.1781L40.0043 1.4821L39.5926 1.7659ZM42.5523 5.4619L45.1003 1.7659L44.6886 1.4821L42.1406 5.1781L42.5523 5.4619ZM45.0944 1.774C45.1067 1.7576 45.1127 1.75524 45.1095 1.75706C45.1078 1.75802 45.1047 1.75945 45.1006 1.76056C45.0965 1.76166 45.0928 1.762 45.0904 1.762V1.262C44.9176 1.262 44.7846 1.35384 44.6944 1.474L45.0944 1.774ZM45.0904 1.762H48.5344V1.262H45.0904V1.762ZM48.5344 1.762C48.5332 1.762 48.4864 1.76153 48.4417 1.71678C48.3969 1.67202 48.3964 1.6252 48.3964 1.624H48.8964C48.8964 1.54813 48.8773 1.44531 48.7952 1.36322C48.7131 1.28114 48.6103 1.262 48.5344 1.262V1.762ZM48.3964 1.62473L48.4524 20.8607L48.9524 20.8593L48.8964 1.62327L48.3964 1.62473ZM48.4524 20.86C48.4524 20.88 48.4474 20.8487 48.4792 20.8088C48.4965 20.7872 48.5191 20.7705 48.5433 20.7605C48.5659 20.7511 48.5835 20.75 48.5904 20.75V21.25C48.6829 21.25 48.7919 21.2183 48.8697 21.1212C48.9389 21.0347 48.9524 20.9334 48.9524 20.86H48.4524ZM48.5904 20.75H45.4264V21.25H48.5904V20.75ZM45.4264 20.75C45.4334 20.75 45.451 20.7511 45.4736 20.7605C45.4977 20.7705 45.5203 20.7872 45.5377 20.8088C45.5695 20.8487 45.5644 20.88 45.5644 20.86H45.0644C45.0644 20.9334 45.078 21.0347 45.1472 21.1212C45.2249 21.2183 45.3339 21.25 45.4264 21.25V20.75ZM45.5644 20.8595L45.5364 6.57951L45.0364 6.58049L45.0644 20.8605L45.5644 20.8595ZM45.0807 6.43791L42.1407 10.6939L42.5521 10.9781L45.4921 6.72209L45.0807 6.43791ZM42.5528 10.6948L39.6408 6.43883L39.2281 6.72117L42.1401 10.9772L42.5528 10.6948ZM39.1844 6.57951L39.1564 20.8595L39.6564 20.8605L39.6844 6.58049L39.1844 6.57951ZM39.1564 20.86C39.1564 20.88 39.1514 20.8487 39.1832 20.8088C39.2005 20.7872 39.2231 20.7705 39.2473 20.7605C39.2699 20.7511 39.2875 20.75 39.2944 20.75V21.25C39.3869 21.25 39.4959 21.2183 39.5737 21.1212C39.6429 21.0347 39.6564 20.9334 39.6564 20.86H39.1564ZM39.2944 20.75H36.1304V21.25H39.2944V20.75ZM53.8575 20.86L53.6075 20.8596V20.86H53.8575ZM53.8855 1.624L54.1355 1.62436V1.624H53.8855ZM57.2455 4.9V4.65H56.9955V4.9H57.2455ZM57.2455 9.268H56.9955V9.518H57.2455V9.268ZM63.0975 9.38H62.8475L62.8475 9.38221L63.0975 9.38ZM63.1255 12.544H63.3755L63.3755 12.5418L63.1255 12.544ZM57.2455 12.656V12.406H56.9955V12.656H57.2455ZM57.2455 17.556H56.9955V17.806H57.2455V17.556ZM53.9695 20.75C53.9764 20.75 53.994 20.7511 54.0167 20.7605C54.0408 20.7705 54.0634 20.7872 54.0807 20.8088C54.1126 20.8487 54.1075 20.88 54.1075 20.86H53.6075C53.6075 20.9334 53.6211 21.0347 53.6903 21.1212C53.768 21.2183 53.877 21.25 53.9695 21.25V20.75ZM54.1075 20.8604L54.1355 1.62436L53.6355 1.62364L53.6075 20.8596L54.1075 20.8604ZM54.1355 1.624C54.1355 1.6252 54.135 1.67202 54.0903 1.71678C54.0455 1.76153 53.9987 1.762 53.9975 1.762V1.262C53.9216 1.262 53.8188 1.28114 53.7367 1.36322C53.6546 1.44531 53.6355 1.54813 53.6355 1.624H54.1355ZM53.9975 1.762H62.9855V1.262H53.9975V1.762ZM62.9855 1.762C62.9786 1.762 62.961 1.76094 62.9384 1.75152C62.9142 1.74146 62.8916 1.72481 62.8743 1.70317C62.8424 1.66334 62.8475 1.63204 62.8475 1.652H63.3475C63.3475 1.57862 63.3339 1.47733 63.2647 1.39083C63.187 1.29367 63.078 1.262 62.9855 1.262V1.762ZM62.8475 1.652V4.788H63.3475V1.652H62.8475ZM62.8475 4.788C62.8475 4.7868 62.848 4.73998 62.8927 4.69522C62.9375 4.65047 62.9843 4.65 62.9855 4.65V5.15C63.0614 5.15 63.1642 5.13086 63.2463 5.04877C63.3284 4.96669 63.3475 4.86387 63.3475 4.788H62.8475ZM62.9855 4.65H57.2455V5.15H62.9855V4.65ZM56.9955 4.9V9.268H57.4955V4.9H56.9955ZM57.2455 9.518H62.9855V9.018H57.2455V9.518ZM62.9855 9.518C62.9843 9.518 62.9375 9.51753 62.8927 9.47278C62.848 9.42802 62.8475 9.3812 62.8475 9.38H63.3475C63.3475 9.30413 63.3284 9.20131 63.2463 9.11922C63.1642 9.03714 63.0614 9.018 62.9855 9.018V9.518ZM62.8475 9.38221L62.8755 12.5462L63.3755 12.5418L63.3475 9.37779L62.8475 9.38221ZM62.8755 12.544C62.8755 12.5428 62.876 12.496 62.9207 12.4512C62.9655 12.4065 63.0123 12.406 63.0135 12.406V12.906C63.0894 12.906 63.1922 12.8869 63.2743 12.8048C63.3564 12.7227 63.3755 12.6199 63.3755 12.544H62.8755ZM63.0135 12.406H57.2455V12.906H63.0135V12.406ZM56.9955 12.656V17.556H57.4955V12.656H56.9955ZM57.2455 17.806H63.0135V17.306H57.2455V17.806ZM63.0135 17.806C63.0066 17.806 62.989 17.8049 62.9664 17.7955C62.9422 17.7855 62.9196 17.7688 62.9023 17.7472C62.8704 17.7073 62.8755 17.676 62.8755 17.696H63.3755C63.3755 17.6226 63.3619 17.5213 63.2927 17.4348C63.215 17.3377 63.106 17.306 63.0135 17.306V17.806ZM62.8755 17.696V20.888H63.3755V17.696H62.8755ZM62.8755 20.888C62.8755 20.8868 62.876 20.84 62.9207 20.7952C62.9655 20.7505 63.0123 20.75 63.0135 20.75V21.25C63.0894 21.25 63.1922 21.2309 63.2743 21.1488C63.3564 21.0667 63.3755 20.9639 63.3755 20.888H62.8755ZM63.0135 20.75H53.9695V21.25H63.0135V20.75ZM68.4153 20.86L68.1653 20.8593V20.86H68.4153ZM68.4713 1.624L68.7213 1.62473V1.624H68.4713ZM72.1953 1.624L72.4013 1.48199L72.3953 1.474L72.1953 1.624ZM74.7433 5.32L74.5375 5.4619L74.7433 5.76046L74.9491 5.4619L74.7433 5.32ZM77.2913 1.624L77.0911 1.47388L77.0855 1.4821L77.2913 1.624ZM81.0433 1.624H80.7933V1.62473L81.0433 1.624ZM81.0993 20.86H81.3493V20.8593L81.0993 20.86ZM77.7113 20.86H77.9613V20.8595L77.7113 20.86ZM77.6833 6.58L77.9333 6.57951L77.9317 5.7805L77.4776 6.43791L77.6833 6.58ZM74.7433 10.836L74.537 10.9772L74.7423 11.2773L74.949 10.9781L74.7433 10.836ZM71.8313 6.58L72.0376 6.43883L71.5829 5.7742L71.5813 6.57951L71.8313 6.58ZM71.8033 20.86L71.5533 20.8595V20.86H71.8033ZM68.5273 20.75C68.5343 20.75 68.5518 20.7511 68.5745 20.7605C68.5986 20.7705 68.6212 20.7872 68.6385 20.8088C68.6704 20.8487 68.6653 20.88 68.6653 20.86H68.1653C68.1653 20.9334 68.1789 21.0347 68.2481 21.1212C68.3258 21.2183 68.4348 21.25 68.5273 21.25V20.75ZM68.6653 20.8607L68.7213 1.62473L68.2213 1.62327L68.1653 20.8593L68.6653 20.8607ZM68.7213 1.624C68.7213 1.6252 68.7208 1.67202 68.6761 1.71678C68.6313 1.76153 68.5845 1.762 68.5833 1.762V1.262C68.5074 1.262 68.4046 1.28114 68.3225 1.36322C68.2404 1.44531 68.2213 1.54813 68.2213 1.624H68.7213ZM68.5833 1.762H71.9993V1.262H68.5833V1.762ZM71.9993 1.762C71.9969 1.762 71.9933 1.76166 71.9891 1.76056C71.985 1.75945 71.9819 1.75802 71.9803 1.75706C71.9771 1.75524 71.983 1.7576 71.9953 1.774L72.3953 1.474C72.3052 1.35384 72.1722 1.262 71.9993 1.262V1.762ZM71.9895 1.7659L74.5375 5.4619L74.9491 5.1781L72.4011 1.4821L71.9895 1.7659ZM74.9491 5.4619L77.4971 1.7659L77.0855 1.4821L74.5375 5.1781L74.9491 5.4619ZM77.4913 1.774C77.5036 1.7576 77.5095 1.75524 77.5063 1.75706C77.5047 1.75802 77.5016 1.75945 77.4975 1.76056C77.4933 1.76166 77.4897 1.762 77.4873 1.762V1.262C77.3144 1.262 77.1814 1.35384 77.0913 1.474L77.4913 1.774ZM77.4873 1.762H80.9313V1.262H77.4873V1.762ZM80.9313 1.762C80.9301 1.762 80.8833 1.76153 80.8385 1.71678C80.7938 1.67202 80.7933 1.6252 80.7933 1.624H81.2933C81.2933 1.54813 81.2742 1.44531 81.1921 1.36322C81.11 1.28114 81.0072 1.262 80.9313 1.262V1.762ZM80.7933 1.62473L80.8493 20.8607L81.3493 20.8593L81.2933 1.62327L80.7933 1.62473ZM80.8493 20.86C80.8493 20.88 80.8442 20.8487 80.8761 20.8088C80.8934 20.7872 80.916 20.7705 80.9402 20.7605C80.9628 20.7511 80.9804 20.75 80.9873 20.75V21.25C81.0798 21.25 81.1888 21.2183 81.2665 21.1212C81.3357 21.0347 81.3493 20.9334 81.3493 20.86H80.8493ZM80.9873 20.75H77.8233V21.25H80.9873V20.75ZM77.8233 20.75C77.8303 20.75 77.8478 20.7511 77.8705 20.7605C77.8946 20.7705 77.9172 20.7872 77.9345 20.8088C77.9664 20.8487 77.9613 20.88 77.9613 20.86H77.4613C77.4613 20.9334 77.4749 21.0347 77.5441 21.1212C77.6218 21.2183 77.7308 21.25 77.8233 21.25V20.75ZM77.9613 20.8595L77.9333 6.57951L77.4333 6.58049L77.4613 20.8605L77.9613 20.8595ZM77.4776 6.43791L74.5376 10.6939L74.949 10.9781L77.889 6.72209L77.4776 6.43791ZM74.9496 10.6948L72.0376 6.43883L71.625 6.72117L74.537 10.9772L74.9496 10.6948ZM71.5813 6.57951L71.5533 20.8595L72.0533 20.8605L72.0813 6.58049L71.5813 6.57951ZM71.5533 20.86C71.5533 20.88 71.5482 20.8487 71.5801 20.8088C71.5974 20.7872 71.62 20.7705 71.6442 20.7605C71.6668 20.7511 71.6844 20.75 71.6913 20.75V21.25C71.7838 21.25 71.8928 21.2183 71.9705 21.1212C72.0397 21.0347 72.0533 20.9334 72.0533 20.86H71.5533ZM71.6913 20.75H68.5273V21.25H71.6913V20.75ZM85.3024 20.86L85.0564 20.8156L85.0524 20.8376V20.86H85.3024ZM88.7744 1.624L88.5318 1.56336L88.5298 1.57142L88.5284 1.57959L88.7744 1.624ZM93.1144 1.624L93.3607 1.58133L93.3591 1.57228L93.3569 1.56336L93.1144 1.624ZM96.4464 20.86L96.2 20.9027L96.2012 20.909L96.4464 20.86ZM93.0864 20.86L92.8389 20.8973L92.8412 20.909L93.0864 20.86ZM92.7784 18.816L93.0256 18.7787L92.9935 18.566H92.7784V18.816ZM88.9704 18.816V18.566H88.7552L88.7232 18.7787L88.9704 18.816ZM88.6624 20.86L88.9078 20.9091L88.9096 20.8973L88.6624 20.86ZM89.5304 15.82L89.2835 15.7805L89.2372 16.07H89.5304V15.82ZM92.2184 15.82V16.07H92.5075L92.4658 15.7839L92.2184 15.82ZM91.0704 7.952L91.3178 7.9159L91.3172 7.91198L91.0704 7.952ZM90.9024 6.916L91.1492 6.87598L90.6538 6.88913L90.9024 6.916ZM90.7904 7.952L91.0376 7.99158L91.0389 7.97887L90.7904 7.952ZM85.5484 20.9044L89.0204 1.66841L88.5284 1.57959L85.0564 20.8156L85.5484 20.9044ZM89.0169 1.68463C89.0168 1.68501 89.0099 1.71095 88.9796 1.73522C88.9484 1.76011 88.9193 1.762 88.9144 1.762V1.262C88.8348 1.262 88.745 1.28255 88.6672 1.34478C88.5902 1.40638 88.5506 1.48832 88.5318 1.56336L89.0169 1.68463ZM88.9144 1.762H92.9744V1.262H88.9144V1.762ZM92.9744 1.762C92.9694 1.762 92.9403 1.76011 92.9092 1.73522C92.8789 1.71095 92.8719 1.68501 92.8718 1.68463L93.3569 1.56336C93.3382 1.48832 93.2986 1.40638 93.2215 1.34478C93.1438 1.28255 93.054 1.262 92.9744 1.262V1.762ZM92.868 1.66667L96.2 20.9027L96.6927 20.8173L93.3607 1.58133L92.868 1.66667ZM96.2012 20.909C96.2046 20.9258 96.1881 20.8701 96.2372 20.8088C96.2875 20.7459 96.3481 20.75 96.3344 20.75V21.25C96.414 21.25 96.5399 21.2308 96.6276 21.1212C96.714 21.0132 96.7068 20.8875 96.6915 20.811L96.2012 20.909ZM96.3344 20.75H93.2264V21.25H96.3344V20.75ZM93.2264 20.75C93.2339 20.75 93.248 20.7512 93.2654 20.7579C93.2834 20.7648 93.2995 20.7755 93.3122 20.7882C93.336 20.8121 93.3353 20.8296 93.3315 20.811L92.8412 20.909C92.8562 20.9837 92.8881 21.0713 92.9586 21.1418C93.0351 21.2183 93.1322 21.25 93.2264 21.25V20.75ZM93.3336 20.8228L93.0256 18.7787L92.5312 18.8533L92.8392 20.8973L93.3336 20.8228ZM92.7784 18.566H88.9704V19.066H92.7784V18.566ZM88.7232 18.7787L88.4152 20.8228L88.9096 20.8973L89.2176 18.8533L88.7232 18.7787ZM88.4172 20.811C88.4135 20.8296 88.4128 20.8121 88.4366 20.7882C88.4493 20.7755 88.4654 20.7648 88.4834 20.7579C88.5008 20.7512 88.5149 20.75 88.5224 20.75V21.25C88.6165 21.25 88.7136 21.2183 88.7902 21.1418C88.8606 21.0713 88.8926 20.9837 88.9075 20.909L88.4172 20.811ZM88.5224 20.75H85.4144V21.25H88.5224V20.75ZM85.4144 20.75C85.4213 20.75 85.4389 20.7511 85.4615 20.7605C85.4857 20.7705 85.5083 20.7872 85.5256 20.8088C85.5575 20.8487 85.5524 20.88 85.5524 20.86H85.0524C85.0524 20.9334 85.066 21.0347 85.1352 21.1212C85.2129 21.2183 85.3219 21.25 85.4144 21.25V20.75ZM89.5304 16.07H92.2184V15.57H89.5304V16.07ZM92.4658 15.7839L91.3178 7.9159L90.823 7.98809L91.971 15.8561L92.4658 15.7839ZM91.3172 7.91198L91.1492 6.87598L90.6556 6.95602L90.8236 7.99202L91.3172 7.91198ZM90.6538 6.88913L90.5418 7.92513L91.0389 7.97887L91.1509 6.94287L90.6538 6.88913ZM90.5435 7.91247L89.2835 15.7805L89.7772 15.8595L91.0372 7.99153L90.5435 7.91247ZM101.004 20.86L100.754 20.8593V20.86H101.004ZM101.06 1.652L101.31 1.65273V1.652H101.06ZM104.42 8.288H104.17V9.12099L104.628 8.42566L104.42 8.288ZM108.816 1.624L108.616 1.474L108.611 1.48004L108.607 1.48634L108.816 1.624ZM112.288 1.624L112.499 1.75677L112.506 1.74657L112.511 1.7358L112.288 1.624ZM107.444 9.352L107.232 9.21922L107.159 9.33494L107.217 9.4585L107.444 9.352ZM112.876 20.888L112.649 20.9945L112.652 20.9998L112.876 20.888ZM109.152 20.888L109.394 20.8274L109.388 20.8048L109.379 20.7837L109.152 20.888ZM105.372 12.656L105.599 12.5517L105.407 12.1344L105.161 12.5218L105.372 12.656ZM104.392 14.196L104.181 14.0618L104.142 14.1232V14.196H104.392ZM101.116 20.75C101.123 20.75 101.14 20.7511 101.163 20.7605C101.187 20.7705 101.21 20.7872 101.227 20.8088C101.259 20.8487 101.254 20.88 101.254 20.86H100.754C100.754 20.9334 100.767 21.0347 100.836 21.1212C100.914 21.2183 101.023 21.25 101.116 21.25V20.75ZM101.254 20.8607L101.31 1.65273L100.81 1.65127L100.754 20.8593L101.254 20.8607ZM101.31 1.652C101.31 1.63204 101.315 1.66334 101.283 1.70317C101.266 1.72481 101.243 1.74146 101.219 1.75152C101.196 1.76094 101.179 1.762 101.172 1.762V1.262C101.079 1.262 100.97 1.29367 100.892 1.39082C100.823 1.47733 100.81 1.57862 100.81 1.652H101.31ZM101.172 1.762H104.308V1.262H101.172V1.762ZM104.308 1.762C104.301 1.762 104.283 1.76094 104.26 1.75152C104.236 1.74146 104.214 1.72481 104.196 1.70317C104.165 1.66334 104.17 1.63204 104.17 1.652H104.67C104.67 1.57862 104.656 1.47733 104.587 1.39083C104.509 1.29367 104.4 1.262 104.308 1.262V1.762ZM104.17 1.652V8.288H104.67V1.652H104.17ZM104.628 8.42566L109.024 1.76166L108.607 1.48634L104.211 8.15034L104.628 8.42566ZM109.016 1.774C109.028 1.7576 109.034 1.75525 109.031 1.75706C109.029 1.75802 109.026 1.75945 109.022 1.76056C109.018 1.76166 109.014 1.762 109.012 1.762V1.262C108.839 1.262 108.706 1.35384 108.616 1.474L109.016 1.774ZM109.012 1.762H112.232V1.262H109.012V1.762ZM112.232 1.762C112.231 1.762 112.226 1.76197 112.219 1.76084C112.212 1.75973 112.199 1.75719 112.184 1.75112C112.151 1.73792 112.106 1.70794 112.078 1.6518C112.052 1.59952 112.055 1.55357 112.059 1.5339C112.062 1.51471 112.067 1.50637 112.064 1.5122L112.511 1.7358C112.527 1.7043 112.544 1.66329 112.552 1.6161C112.56 1.56842 112.561 1.49914 112.525 1.4282C112.448 1.27295 112.287 1.262 112.232 1.262V1.762ZM112.076 1.49122L107.232 9.21922L107.655 9.48478L112.499 1.75677L112.076 1.49122ZM107.217 9.4585L112.649 20.9945L113.102 20.7815L107.67 9.2455L107.217 9.4585ZM112.652 20.9998C112.65 20.996 112.635 20.965 112.639 20.9162C112.644 20.8571 112.674 20.8073 112.712 20.7768C112.729 20.7638 112.743 20.7568 112.752 20.7532C112.76 20.7497 112.766 20.7485 112.766 20.7484C112.767 20.7483 112.758 20.75 112.736 20.75V21.25C112.779 21.25 112.825 21.2471 112.869 21.2376C112.912 21.2287 112.971 21.2104 113.025 21.1672C113.086 21.118 113.13 21.0449 113.137 20.9578C113.143 20.881 113.12 20.8173 113.099 20.7762L112.652 20.9998ZM112.736 20.75H109.32V21.25H112.736V20.75ZM109.32 20.75C109.304 20.75 109.32 20.7466 109.346 20.764C109.36 20.773 109.372 20.7849 109.381 20.7983C109.389 20.8113 109.393 20.8222 109.394 20.8274L108.909 20.9486C108.931 21.037 108.982 21.1219 109.069 21.18C109.151 21.2348 109.242 21.25 109.32 21.25V20.75ZM109.379 20.7837L105.599 12.5517L105.144 12.7603L108.924 20.9923L109.379 20.7837ZM105.161 12.5218L104.181 14.0618L104.603 14.3302L105.583 12.7902L105.161 12.5218ZM104.142 14.196V20.86H104.642V14.196H104.142ZM104.142 20.86C104.142 20.88 104.137 20.8487 104.168 20.8088C104.186 20.7872 104.208 20.7705 104.232 20.7605C104.255 20.7511 104.273 20.75 104.28 20.75V21.25C104.372 21.25 104.481 21.2183 104.559 21.1212C104.628 21.0347 104.642 20.9334 104.642 20.86H104.142ZM104.28 20.75H101.116V21.25H104.28V20.75ZM116.929 20.86L116.679 20.8596V20.86H116.929ZM116.957 1.624L117.207 1.62436V1.624H116.957ZM120.317 4.9V4.65H120.067V4.9H120.317ZM120.317 9.268H120.067V9.518H120.317V9.268ZM126.169 9.38H125.919L125.919 9.38221L126.169 9.38ZM126.197 12.544H126.447L126.447 12.5418L126.197 12.544ZM120.317 12.656V12.406H120.067V12.656H120.317ZM120.317 17.556H120.067V17.806H120.317V17.556ZM117.041 20.75C117.048 20.75 117.065 20.7511 117.088 20.7605C117.112 20.7705 117.134 20.7872 117.152 20.8088C117.184 20.8487 117.179 20.88 117.179 20.86H116.679C116.679 20.9334 116.692 21.0347 116.761 21.1212C116.839 21.2183 116.948 21.25 117.041 21.25V20.75ZM117.179 20.8604L117.207 1.62436L116.707 1.62364L116.679 20.8596L117.179 20.8604ZM117.207 1.624C117.207 1.6252 117.206 1.67202 117.161 1.71678C117.117 1.76153 117.07 1.762 117.069 1.762V1.262C116.993 1.262 116.89 1.28114 116.808 1.36322C116.726 1.44531 116.707 1.54813 116.707 1.624H117.207ZM117.069 1.762H126.057V1.262H117.069V1.762ZM126.057 1.762C126.05 1.762 126.032 1.76094 126.009 1.75152C125.985 1.74146 125.963 1.72481 125.945 1.70317C125.914 1.66334 125.919 1.63204 125.919 1.652H126.419C126.419 1.57862 126.405 1.47733 126.336 1.39083C126.258 1.29367 126.149 1.262 126.057 1.262V1.762ZM125.919 1.652V4.788H126.419V1.652H125.919ZM125.919 4.788C125.919 4.7868 125.919 4.73998 125.964 4.69522C126.009 4.65047 126.055 4.65 126.057 4.65V5.15C126.132 5.15 126.235 5.13086 126.317 5.04877C126.399 4.96669 126.419 4.86387 126.419 4.788H125.919ZM126.057 4.65H120.317V5.15H126.057V4.65ZM120.067 4.9V9.268H120.567V4.9H120.067ZM120.317 9.518H126.057V9.018H120.317V9.518ZM126.057 9.518C126.055 9.518 126.009 9.51753 125.964 9.47278C125.919 9.42802 125.919 9.3812 125.919 9.38H126.419C126.419 9.30413 126.399 9.20131 126.317 9.11922C126.235 9.03714 126.132 9.018 126.057 9.018V9.518ZM125.919 9.38221L125.947 12.5462L126.447 12.5418L126.419 9.37779L125.919 9.38221ZM125.947 12.544C125.947 12.5428 125.947 12.496 125.992 12.4512C126.037 12.4065 126.083 12.406 126.085 12.406V12.906C126.16 12.906 126.263 12.8869 126.345 12.8048C126.427 12.7227 126.447 12.6199 126.447 12.544H125.947ZM126.085 12.406H120.317V12.906H126.085V12.406ZM120.067 12.656V17.556H120.567V12.656H120.067ZM120.317 17.806H126.085V17.306H120.317V17.806ZM126.085 17.806C126.078 17.806 126.06 17.8049 126.037 17.7955C126.013 17.7855 125.991 17.7688 125.973 17.7472C125.942 17.7073 125.947 17.676 125.947 17.696H126.447C126.447 17.6226 126.433 17.5213 126.364 17.4348C126.286 17.3377 126.177 17.306 126.085 17.306V17.806ZM125.947 17.696V20.888H126.447V17.696H125.947ZM125.947 20.888C125.947 20.8868 125.947 20.84 125.992 20.7952C126.037 20.7505 126.083 20.75 126.085 20.75V21.25C126.16 21.25 126.263 21.2309 126.345 21.1488C126.427 21.0667 126.447 20.9639 126.447 20.888H125.947ZM126.085 20.75H117.041V21.25H126.085V20.75ZM131.486 20.86L131.236 20.8593V20.86H131.486ZM131.542 1.624L131.792 1.62473V1.624H131.542ZM140.082 2.268L139.954 2.48244L139.959 2.48564L140.082 2.268ZM142.126 4.256L141.912 4.38463L141.913 4.38675L142.126 4.256ZM142.574 8.932L142.808 9.02067L142.809 9.01806L142.574 8.932ZM141.846 10.332L142.046 10.482L142.05 10.4773L141.846 10.332ZM141.09 11.172L140.93 10.9799L140.731 11.1462L140.905 11.3392L141.09 11.172ZM142.602 15.12H142.352L142.352 15.1212L142.602 15.12ZM142.63 20.86H142.88L142.88 20.8588L142.63 20.86ZM138.486 13.384L138.303 13.554L138.31 13.5608L138.486 13.384ZM134.902 12.628V12.378H134.653L134.652 12.6271L134.902 12.628ZM134.874 20.86L134.624 20.8591V20.86H134.874ZM134.902 9.268H134.652V9.518H134.902V9.268ZM138.85 8.624L138.677 8.4435L138.85 8.624ZM138.85 5.516L138.674 5.69282L138.677 5.6965L138.85 5.516ZM134.902 4.872V4.622H134.652V4.872H134.902ZM131.598 20.75C131.605 20.75 131.623 20.7511 131.646 20.7605C131.67 20.7705 131.692 20.7872 131.71 20.8088C131.742 20.8487 131.736 20.88 131.736 20.86H131.236C131.236 20.9334 131.25 21.0347 131.319 21.1212C131.397 21.2183 131.506 21.25 131.598 21.25V20.75ZM131.736 20.8607L131.792 1.62473L131.292 1.62327L131.236 20.8593L131.736 20.8607ZM131.792 1.624C131.792 1.6252 131.792 1.67202 131.747 1.71678C131.702 1.76153 131.656 1.762 131.654 1.762V1.262C131.579 1.262 131.476 1.28114 131.394 1.36322C131.312 1.44531 131.292 1.54813 131.292 1.624H131.792ZM131.654 1.762H137.31V1.262H131.654V1.762ZM137.31 1.762C138.274 1.762 139.154 2.00238 139.954 2.48237L140.211 2.05363C139.331 1.52561 138.362 1.262 137.31 1.262V1.762ZM139.959 2.48564C140.781 2.94985 141.43 3.58196 141.912 4.38462L142.341 4.12737C141.814 3.25004 141.101 2.55681 140.205 2.05036L139.959 2.48564ZM141.913 4.38675C142.391 5.16543 142.632 6.05277 142.632 7.056H143.132C143.132 5.96857 142.87 4.98924 142.339 4.12524L141.913 4.38675ZM142.632 7.056C142.632 7.72186 142.533 8.31748 142.34 8.84594L142.809 9.01806C143.026 8.42652 143.132 7.77147 143.132 7.056H142.632ZM142.341 8.84334C142.141 9.36847 141.908 9.81529 141.643 10.1867L142.05 10.4773C142.345 10.0647 142.597 9.5782 142.808 9.02066L142.341 8.84334ZM141.646 10.182C141.372 10.5479 141.133 10.8108 140.93 10.9799L141.25 11.3641C141.496 11.1598 141.761 10.8628 142.046 10.482L141.646 10.182ZM140.905 11.3392C141.871 12.4132 142.352 13.6695 142.352 15.12H142.852C142.852 13.5465 142.326 12.1708 141.276 11.0048L140.905 11.3392ZM142.352 15.1212L142.38 20.8612L142.88 20.8588L142.852 15.1188L142.352 15.1212ZM142.38 20.86C142.38 20.8681 142.379 20.8283 142.419 20.7882C142.459 20.7481 142.499 20.75 142.49 20.75V21.25C142.576 21.25 142.685 21.2285 142.772 21.1418C142.859 21.055 142.88 20.9452 142.88 20.86H142.38ZM142.49 20.75H139.326V21.25H142.49V20.75ZM139.326 20.75C139.313 20.75 139.349 20.7462 139.392 20.779C139.417 20.7972 139.437 20.8221 139.45 20.8512C139.462 20.8789 139.464 20.9025 139.464 20.916H138.964C138.964 21.005 138.998 21.1081 139.092 21.179C139.173 21.2398 139.265 21.25 139.326 21.25V20.75ZM139.464 20.916V15.12H138.964V20.916H139.464ZM139.464 15.12C139.464 14.3801 139.194 13.7383 138.663 13.2072L138.31 13.5608C138.749 14.0003 138.964 14.5159 138.964 15.12H139.464ZM138.67 13.2141C138.156 12.6587 137.51 12.378 136.75 12.378V12.878C137.372 12.878 137.884 13.1013 138.303 13.5539L138.67 13.2141ZM136.75 12.378H134.902V12.878H136.75V12.378ZM134.652 12.6271L134.624 20.8591L135.124 20.8608L135.152 12.6288L134.652 12.6271ZM134.624 20.86C134.624 20.88 134.619 20.8487 134.651 20.8088C134.669 20.7872 134.691 20.7705 134.715 20.7605C134.738 20.7511 134.755 20.75 134.762 20.75V21.25C134.855 21.25 134.964 21.2183 135.042 21.1212C135.111 21.0347 135.124 20.9334 135.124 20.86H134.624ZM134.762 20.75H131.598V21.25H134.762V20.75ZM134.902 9.518H137.31V9.018H134.902V9.518ZM137.31 9.518C137.958 9.518 138.533 9.27489 139.023 8.8045L138.677 8.4435C138.272 8.83178 137.82 9.018 137.31 9.018V9.518ZM139.023 8.8045C139.52 8.3284 139.772 7.74071 139.772 7.056H139.272C139.272 7.60329 139.077 8.06093 138.677 8.4435L139.023 8.8045ZM139.772 7.056C139.772 6.3876 139.518 5.80993 139.023 5.3355L138.677 5.6965C139.078 6.08073 139.272 6.52973 139.272 7.056H139.772ZM139.027 5.33922C138.552 4.86387 137.975 4.622 137.31 4.622V5.122C137.84 5.122 138.29 5.30946 138.674 5.69278L139.027 5.33922ZM137.31 4.622H134.902V5.122H137.31V4.622ZM134.652 4.872V9.268H135.152V4.872H134.652ZM149.7 20.524L149.566 20.735L149.572 20.7384L149.7 20.524ZM147.712 18.48L147.494 18.6031L147.498 18.6086L147.712 18.48ZM150.988 17.248L150.804 17.417L150.808 17.4208L150.988 17.248ZM153.956 17.22L153.772 17.0511L153.956 17.22ZM153.228 13.86L153.351 13.6421L153.228 13.86ZM151.828 13.076L151.95 12.8578L151.828 13.076ZM150.036 12.068L149.91 12.2841L149.913 12.2855L150.036 12.068ZM147.74 9.828L147.519 9.94521L147.522 9.95056L147.74 9.828ZM147.768 3.948L147.981 4.07876L147.983 4.07662L147.768 3.948ZM149.756 1.96L149.631 1.74352L149.629 1.74477L149.756 1.96ZM155.188 1.988L155.057 2.20115L155.063 2.20447L155.188 1.988ZM157.176 3.976L156.96 4.10111L156.963 4.10675L157.176 3.976ZM154.572 9.044H154.822L154.822 9.04095L154.572 9.044ZM154.544 6.748H154.294L154.294 6.75105L154.544 6.748ZM153.928 5.152L154.105 4.97522V4.97522L153.928 5.152ZM150.988 5.208L151.169 5.38084L151.172 5.37693L150.988 5.208ZM150.764 8.288L150.975 8.15378V8.15378L150.764 8.288ZM152.192 9.464L152.321 9.24941L152.311 9.24407L152.192 9.464ZM152.724 9.772L152.6 9.98906L152.609 9.99418L152.618 9.99854L152.724 9.772ZM153.62 10.248L153.493 10.4637L153.503 10.4689L153.62 10.248ZM154.46 10.696L154.342 10.9162L154.348 10.9196L154.46 10.696ZM154.936 10.948L154.798 11.156L154.806 11.1614L154.814 11.1661L154.936 10.948ZM157.148 12.88L156.944 13.0244L156.946 13.0267L157.148 12.88ZM157.204 18.536L156.989 18.4094L156.988 18.4109L157.204 18.536ZM155.216 20.552L155.343 20.7672L155.345 20.7664L155.216 20.552ZM152.472 21.03C151.508 21.03 150.629 20.7896 149.829 20.3096L149.572 20.7384C150.452 21.2664 151.42 21.53 152.472 21.53V21.03ZM149.834 20.3131C149.046 19.8114 148.411 19.1583 147.927 18.3514L147.498 18.6086C148.022 19.4817 148.712 20.1913 149.566 20.7349L149.834 20.3131ZM147.93 18.357C147.467 17.5374 147.234 16.6374 147.234 15.652H146.734C146.734 16.7199 146.987 17.7053 147.495 18.603L147.93 18.357ZM147.234 15.652V14.364H146.734V15.652H147.234ZM147.234 14.364C147.234 14.3559 147.236 14.3957 147.196 14.4358C147.156 14.4759 147.116 14.474 147.124 14.474V13.974C147.039 13.974 146.929 13.9955 146.842 14.0822C146.756 14.169 146.734 14.2788 146.734 14.364H147.234ZM147.124 14.474H150.26V13.974H147.124V14.474ZM150.26 14.474C150.253 14.474 150.236 14.4729 150.213 14.4635C150.189 14.4535 150.166 14.4368 150.149 14.4152C150.117 14.3753 150.122 14.344 150.122 14.364H150.622C150.622 14.2906 150.609 14.1893 150.539 14.1028C150.462 14.0057 150.353 13.974 150.26 13.974V14.474ZM150.122 14.364V15.652H150.622V14.364H150.122ZM150.122 15.652C150.122 16.3296 150.35 16.9221 150.804 17.4169L151.172 17.0791C150.805 16.6779 150.622 16.2064 150.622 15.652H150.122ZM150.808 17.4208C151.264 17.898 151.823 18.142 152.472 18.142V17.642C151.964 17.642 151.534 17.4567 151.169 17.0752L150.808 17.4208ZM152.472 18.142C153.125 18.142 153.685 17.8857 154.14 17.3889L153.772 17.0511C153.406 17.4503 152.977 17.642 152.472 17.642V18.142ZM154.14 17.3889C154.593 16.8957 154.822 16.3131 154.822 15.652H154.322C154.322 16.1856 154.141 16.6483 153.772 17.0511L154.14 17.3889ZM154.822 15.652C154.822 14.8313 154.283 14.1667 153.351 13.6421L153.106 14.0779C153.965 14.5613 154.322 15.0914 154.322 15.652H154.822ZM153.351 13.6421C153.052 13.4739 152.585 13.2124 151.95 12.8578L151.706 13.2942C152.341 13.6489 152.807 13.9101 153.106 14.0779L153.351 13.6421ZM151.95 12.8578C151.316 12.5033 150.719 12.1676 150.159 11.8505L149.913 12.2855C150.473 12.6031 151.071 12.9394 151.706 13.2942L151.95 12.8578ZM150.162 11.8519C149.168 11.2735 148.437 10.5569 147.958 9.70543L147.522 9.95056C148.051 10.8911 148.851 11.6679 149.91 12.2841L150.162 11.8519ZM147.961 9.71082C147.497 8.83574 147.262 7.84997 147.262 6.748H146.762C146.762 7.92337 147.013 8.99092 147.519 9.94518L147.961 9.71082ZM147.262 6.748C147.262 5.74477 147.503 4.85743 147.981 4.07875L147.555 3.81725C147.025 4.68124 146.762 5.66057 146.762 6.748H147.262ZM147.983 4.07662C148.466 3.2713 149.099 2.63882 149.883 2.17523L149.629 1.74477C148.771 2.25185 148.079 2.9447 147.554 3.81938L147.983 4.07662ZM149.881 2.17647C150.683 1.71311 151.545 1.482 152.472 1.482V0.981999C151.458 0.981999 150.509 1.23622 149.631 1.74353L149.881 2.17647ZM152.472 1.482C153.417 1.482 154.277 1.72189 155.057 2.20108L155.319 1.77492C154.457 1.24611 153.506 0.981999 152.472 0.981999V1.482ZM155.063 2.20447C155.865 2.66787 156.496 3.29902 156.96 4.10107L157.393 3.85093C156.885 2.97298 156.191 2.27879 155.313 1.77153L155.063 2.20447ZM156.963 4.10675C157.441 4.88615 157.682 5.76434 157.682 6.748H158.182C158.182 5.67832 157.919 4.70852 157.389 3.84524L156.963 4.10675ZM157.682 6.748V9.044H158.182V6.748H157.682ZM157.682 9.044C157.682 9.0428 157.683 8.99598 157.727 8.95122C157.772 8.90647 157.819 8.906 157.82 8.906V9.406C157.896 9.406 157.999 9.38686 158.081 9.30478C158.163 9.22269 158.182 9.11987 158.182 9.044H157.682ZM157.82 8.906H154.684V9.406H157.82V8.906ZM154.684 8.906C154.685 8.906 154.732 8.90647 154.777 8.95122C154.822 8.99598 154.822 9.0428 154.822 9.044H154.322C154.322 9.11987 154.341 9.22269 154.423 9.30478C154.506 9.38686 154.608 9.406 154.684 9.406V8.906ZM154.822 9.04095L154.794 6.74495L154.294 6.75105L154.322 9.04705L154.822 9.04095ZM154.794 6.748C154.794 6.03741 154.569 5.4388 154.105 4.97522L153.751 5.32878C154.109 5.68653 154.294 6.15193 154.294 6.748H154.794ZM154.105 4.97522C153.649 4.51961 153.101 4.286 152.472 4.286V4.786C152.963 4.786 153.386 4.96305 153.751 5.32878L154.105 4.97522ZM152.472 4.286C151.82 4.286 151.259 4.54234 150.804 5.03907L151.172 5.37693C151.538 4.97766 151.967 4.786 152.472 4.786V4.286ZM150.808 5.03519C150.352 5.51133 150.122 6.08667 150.122 6.748H150.622C150.622 6.21466 150.803 5.76333 151.169 5.38081L150.808 5.03519ZM150.122 6.748C150.122 7.39901 150.26 7.96203 150.553 8.42222L150.975 8.15378C150.745 7.79263 150.622 7.32899 150.622 6.748H150.122ZM150.553 8.42222C150.847 8.88444 151.366 9.30147 152.073 9.68393L152.311 9.24407C151.637 8.87987 151.204 8.51289 150.975 8.15378L150.553 8.42222ZM152.064 9.67837C152.16 9.73594 152.339 9.83987 152.6 9.98906L152.848 9.55494C152.587 9.40547 152.412 9.30406 152.321 9.24963L152.064 9.67837ZM152.618 9.99854C152.89 10.1253 153.182 10.2801 153.493 10.4635L153.747 10.0325C153.424 9.84256 153.118 9.68003 152.83 9.54545L152.618 9.99854ZM153.503 10.4689C153.82 10.6367 154.1 10.7858 154.342 10.9161L154.579 10.4759C154.335 10.3449 154.055 10.1952 153.737 10.0271L153.503 10.4689ZM154.348 10.9196C154.616 11.0533 154.758 11.1294 154.798 11.156L155.075 10.74C155.003 10.6919 154.827 10.6001 154.572 10.4724L154.348 10.9196ZM154.814 11.1661C155.719 11.6732 156.427 12.2934 156.944 13.0244L157.352 12.7356C156.787 11.9359 156.02 11.2682 155.058 10.7299L154.814 11.1661ZM156.946 13.0267C157.451 13.723 157.71 14.5929 157.71 15.652H158.21C158.21 14.5085 157.929 13.5304 157.351 12.7333L156.946 13.0267ZM157.71 15.652C157.71 16.6747 157.469 17.5918 156.989 18.4095L157.42 18.6625C157.948 17.7629 158.21 16.7573 158.21 15.652H157.71ZM156.988 18.4109C156.524 19.2138 155.892 19.8552 155.088 20.3376L155.345 20.7664C156.221 20.2408 156.914 19.5382 157.421 18.6611L156.988 18.4109ZM155.089 20.3368C154.308 20.798 153.438 21.03 152.472 21.03V21.53C153.522 21.53 154.481 21.2766 155.343 20.7672L155.089 20.3368Z" fill="#040032"/>
</g>
<defs>
<filter id="filter0_d" x="0.0825043" y="0.954002" width="162.128" height="28.576" filterUnits="userSpaceOnUse" color-interpolation-filters="sRGB">
<feFlood flood-opacity="0" result="BackgroundImageFix"/>
<feColorMatrix in="SourceAlpha" type="matrix" values="0 0 0 0 0 0 0 0 0 0 0 0 0 0 0 0 0 0 127 0"/>
<feOffset dy="4"/>
<feGaussianBlur stdDeviation="2"/>
<feColorMatrix type="matrix" values="0 0 0 0 1 0 0 0 0 1 0 0 0 0 1 0 0 0 0.25 0"/>
<feBlend mode="normal" in2="BackgroundImageFix" result="effect1_dropShadow"/>
<feBlend mode="normal" in="SourceGraphic" in2="effect1_dropShadow" result="shape"/>
</filter>
</defs>
</svg>
