<svg width="159" height="26" viewBox="0 0 159 26" fill="none" xmlns="http://www.w3.org/2000/svg">
<g filter="url(#filter0_d)">
<path d="M2.4445 22C2.36983 22 2.3325 21.9533 2.3325 21.86L2.3605 2.624C2.3605 2.54933 2.40717 2.512 2.5005 2.512H5.6085C5.70183 2.512 5.7485 2.54933 5.7485 2.624L5.7205 10.24H9.9205V2.624C9.9205 2.54933 9.95784 2.512 10.0325 2.512H13.1405C13.2338 2.512 13.2805 2.54933 13.2805 2.624L13.3365 21.86C13.3365 21.9533 13.2898 22 13.1965 22H10.0605C9.96717 22 9.9205 21.9533 9.9205 21.86V13.628H5.7205V21.86C5.7205 21.9533 5.68317 22 5.6085 22H2.4445ZM23.6016 22.28C22.5936 22.28 21.6696 22.028 20.8296 21.524C20.0082 21.0013 19.3456 20.32 18.8416 19.48C18.3376 18.6213 18.0856 17.6787 18.0856 16.652L18.1136 7.776C18.1136 6.74933 18.3562 5.816 18.8416 4.976C19.3456 4.136 20.0176 3.464 20.8576 2.96C21.6976 2.456 22.6122 2.204 23.6016 2.204C24.6096 2.204 25.5242 2.456 26.3456 2.96C27.1669 3.464 27.8202 4.136 28.3056 4.976C28.8096 5.816 29.0616 6.74933 29.0616 7.776L29.0896 16.652C29.0896 17.6787 28.8376 18.6213 28.3336 19.48C27.8482 20.32 27.1856 21.0013 26.3456 21.524C25.5242 22.028 24.6096 22.28 23.6016 22.28ZM23.6016 18.892C24.1616 18.892 24.6469 18.668 25.0576 18.22C25.4869 17.7533 25.7016 17.2307 25.7016 16.652L25.6736 7.776C25.6736 7.16 25.4776 6.63733 25.0856 6.208C24.6936 5.77867 24.1989 5.564 23.6016 5.564C23.0229 5.564 22.5282 5.77867 22.1176 6.208C21.7069 6.61867 21.5016 7.14133 21.5016 7.776V16.652C21.5016 17.268 21.7069 17.8 22.1176 18.248C22.5282 18.6773 23.0229 18.892 23.6016 18.892ZM34.1304 22C34.0558 22 34.0184 21.9533 34.0184 21.86L34.0744 2.624C34.0744 2.54933 34.1118 2.512 34.1864 2.512H37.6024C37.6771 2.512 37.7424 2.54933 37.7984 2.624L40.3464 6.32L42.8944 2.624C42.9504 2.54933 43.0158 2.512 43.0904 2.512H46.5344C46.6091 2.512 46.6464 2.54933 46.6464 2.624L46.7024 21.86C46.7024 21.9533 46.6651 22 46.5904 22H43.4264C43.3518 22 43.3144 21.9533 43.3144 21.86L43.2864 7.58L40.3464 11.836L37.4344 7.58L37.4064 21.86C37.4064 21.9533 37.3691 22 37.2944 22H34.1304ZM51.9695 22C51.8948 22 51.8575 21.9533 51.8575 21.86L51.8855 2.624C51.8855 2.54933 51.9228 2.512 51.9975 2.512H60.9855C61.0602 2.512 61.0975 2.55867 61.0975 2.652V5.788C61.0975 5.86267 61.0602 5.9 60.9855 5.9H55.2455V10.268H60.9855C61.0602 10.268 61.0975 10.3053 61.0975 10.38L61.1255 13.544C61.1255 13.6187 61.0882 13.656 61.0135 13.656H55.2455V18.556H61.0135C61.0882 18.556 61.1255 18.6027 61.1255 18.696V21.888C61.1255 21.9627 61.0882 22 61.0135 22H51.9695ZM66.5273 22C66.4526 22 66.4153 21.9533 66.4153 21.86L66.4713 2.624C66.4713 2.54933 66.5086 2.512 66.5833 2.512H69.9993C70.074 2.512 70.1393 2.54933 70.1953 2.624L72.7433 6.32L75.2913 2.624C75.3473 2.54933 75.4126 2.512 75.4873 2.512H78.9313C79.006 2.512 79.0433 2.54933 79.0433 2.624L79.0993 21.86C79.0993 21.9533 79.062 22 78.9873 22H75.8233C75.7486 22 75.7113 21.9533 75.7113 21.86L75.6833 7.58L72.7433 11.836L69.8313 7.58L69.8033 21.86C69.8033 21.9533 69.766 22 69.6913 22H66.5273ZM83.3024 21.86L86.7744 2.624C86.793 2.54933 86.8397 2.512 86.9144 2.512H90.9744C91.049 2.512 91.0957 2.54933 91.1144 2.624L94.4464 21.86C94.465 21.9533 94.4277 22 94.3344 22H91.2264C91.1517 22 91.105 21.9533 91.0864 21.86L90.7784 19.816H86.9704L86.6624 21.86C86.6437 21.9533 86.597 22 86.5224 22H83.4144C83.3397 22 83.3024 21.9533 83.3024 21.86ZM87.5304 16.82H90.2184L89.0704 8.952L88.9024 7.916L88.7904 8.952L87.5304 16.82ZM99.1156 22C99.0409 22 99.0036 21.9533 99.0036 21.86L99.0596 2.652C99.0596 2.55867 99.0969 2.512 99.1716 2.512H102.308C102.382 2.512 102.42 2.55867 102.42 2.652V9.288L106.816 2.624C106.872 2.54933 106.937 2.512 107.012 2.512H110.232C110.306 2.512 110.325 2.54933 110.288 2.624L105.444 10.352L110.876 21.888C110.913 21.9627 110.866 22 110.736 22H107.32C107.226 22 107.17 21.9627 107.152 21.888L103.372 13.656L102.392 15.196V21.86C102.392 21.9533 102.354 22 102.28 22H99.1156ZM115.041 22C114.966 22 114.929 21.9533 114.929 21.86L114.957 2.624C114.957 2.54933 114.994 2.512 115.069 2.512H124.057C124.131 2.512 124.169 2.55867 124.169 2.652V5.788C124.169 5.86267 124.131 5.9 124.057 5.9H118.317V10.268H124.057C124.131 10.268 124.169 10.3053 124.169 10.38L124.197 13.544C124.197 13.6187 124.159 13.656 124.085 13.656H118.317V18.556H124.085C124.159 18.556 124.197 18.6027 124.197 18.696V21.888C124.197 21.9627 124.159 22 124.085 22H115.041ZM129.598 22C129.524 22 129.486 21.9533 129.486 21.86L129.542 2.624C129.542 2.54933 129.58 2.512 129.654 2.512H135.31C136.318 2.512 137.242 2.764 138.082 3.268C138.941 3.75333 139.622 4.416 140.126 5.256C140.63 6.07733 140.882 7.01067 140.882 8.056C140.882 8.74667 140.78 9.372 140.574 9.932C140.369 10.4733 140.126 10.94 139.846 11.332C139.566 11.7053 139.314 11.9853 139.09 12.172C140.098 13.292 140.602 14.608 140.602 16.12L140.63 21.86C140.63 21.9533 140.584 22 140.49 22H137.326C137.252 22 137.214 21.972 137.214 21.916V16.12C137.214 15.448 136.972 14.8693 136.486 14.384C136.02 13.88 135.441 13.628 134.75 13.628H132.902L132.874 21.86C132.874 21.9533 132.837 22 132.762 22H129.598ZM132.902 10.268H135.31C135.889 10.268 136.402 10.0533 136.85 9.624C137.298 9.19467 137.522 8.672 137.522 8.056C137.522 7.45867 137.298 6.94533 136.85 6.516C136.421 6.08667 135.908 5.872 135.31 5.872H132.902V10.268ZM150.472 22.28C149.464 22.28 148.54 22.028 147.7 21.524C146.879 21.0013 146.216 20.32 145.712 19.48C145.227 18.6213 144.984 17.6787 144.984 16.652V15.364C144.984 15.2707 145.031 15.224 145.124 15.224H148.26C148.335 15.224 148.372 15.2707 148.372 15.364V16.652C148.372 17.268 148.578 17.8 148.988 18.248C149.399 18.6773 149.894 18.892 150.472 18.892C151.051 18.892 151.546 18.668 151.956 18.22C152.367 17.772 152.572 17.2493 152.572 16.652C152.572 15.9613 152.124 15.364 151.228 14.86C150.93 14.692 150.463 14.4307 149.828 14.076C149.194 13.7213 148.596 13.3853 148.036 13.068C147.01 12.4707 146.244 11.724 145.74 10.828C145.255 9.91333 145.012 8.88667 145.012 7.748C145.012 6.70267 145.264 5.76933 145.768 4.948C146.272 4.108 146.935 3.44533 147.756 2.96C148.596 2.47467 149.502 2.232 150.472 2.232C151.462 2.232 152.367 2.484 153.188 2.988C154.028 3.47333 154.691 4.136 155.176 4.976C155.68 5.79733 155.932 6.72133 155.932 7.748V10.044C155.932 10.1187 155.895 10.156 155.82 10.156H152.684C152.61 10.156 152.572 10.1187 152.572 10.044L152.544 7.748C152.544 7.09467 152.339 6.56267 151.928 6.152C151.518 5.74133 151.032 5.536 150.472 5.536C149.894 5.536 149.399 5.76 148.988 6.208C148.578 6.63733 148.372 7.15067 148.372 7.748C148.372 8.364 148.503 8.87733 148.764 9.288C149.026 9.69867 149.502 10.0907 150.192 10.464C150.286 10.52 150.463 10.6227 150.724 10.772C151.004 10.9027 151.303 11.0613 151.62 11.248C151.938 11.416 152.218 11.5653 152.46 11.696C152.722 11.8267 152.88 11.9107 152.936 11.948C153.87 12.4707 154.607 13.1147 155.148 13.88C155.69 14.6267 155.96 15.5507 155.96 16.652C155.96 17.716 155.708 18.6773 155.204 19.536C154.719 20.376 154.056 21.048 153.216 21.552C152.395 22.0373 151.48 22.28 150.472 22.28Z" fill="white"/>
<path d="M2.3325 21.86L2.0825 21.8596V21.86H2.3325ZM2.3605 2.624L2.6105 2.62436V2.624H2.3605ZM5.7485 2.624L5.9985 2.62492V2.624H5.7485ZM5.7205 10.24L5.4705 10.2391L5.46958 10.49H5.7205V10.24ZM9.9205 10.24V10.49H10.1705V10.24H9.9205ZM13.2805 2.624L13.0305 2.624L13.0305 2.62473L13.2805 2.624ZM13.3365 21.86L13.5865 21.86L13.5865 21.8593L13.3365 21.86ZM9.9205 13.628H10.1705V13.378H9.9205V13.628ZM5.7205 13.628V13.378H5.4705V13.628H5.7205ZM2.4445 21.75C2.45145 21.75 2.46903 21.7511 2.49166 21.7605C2.5158 21.7705 2.53841 21.7872 2.55572 21.8088C2.58759 21.8487 2.5825 21.88 2.5825 21.86H2.0825C2.0825 21.9334 2.09608 22.0347 2.16528 22.1212C2.24301 22.2183 2.35199 22.25 2.4445 22.25V21.75ZM2.5825 21.8604L2.6105 2.62436L2.1105 2.62364L2.0825 21.8596L2.5825 21.8604ZM2.6105 2.624C2.6105 2.63094 2.60945 2.64853 2.60002 2.67115C2.58996 2.6953 2.57331 2.71791 2.55168 2.73522C2.51184 2.76708 2.48055 2.762 2.5005 2.762V2.262C2.42712 2.262 2.32583 2.27558 2.23933 2.34478C2.14217 2.4225 2.1105 2.53149 2.1105 2.624H2.6105ZM2.5005 2.762H5.6085V2.262H2.5005V2.762ZM5.6085 2.762C5.62846 2.762 5.59716 2.76708 5.55733 2.73522C5.53569 2.71791 5.51904 2.6953 5.50898 2.67115C5.49956 2.64853 5.4985 2.63094 5.4985 2.624H5.9985C5.9985 2.53149 5.96683 2.4225 5.86968 2.34478C5.78318 2.27558 5.68188 2.262 5.6085 2.262V2.762ZM5.4985 2.62308L5.4705 10.2391L5.9705 10.2409L5.9985 2.62492L5.4985 2.62308ZM5.7205 10.49H9.9205V9.99H5.7205V10.49ZM10.1705 10.24V2.624H9.6705V10.24H10.1705ZM10.1705 2.624C10.1705 2.6252 10.17 2.67202 10.1253 2.71678C10.0805 2.76153 10.0337 2.762 10.0325 2.762V2.262C9.95663 2.262 9.85381 2.28114 9.77173 2.36322C9.68964 2.44531 9.6705 2.54813 9.6705 2.624H10.1705ZM10.0325 2.762H13.1405V2.262H10.0325V2.762ZM13.1405 2.762C13.1605 2.762 13.1292 2.76708 13.0893 2.73522C13.0677 2.71791 13.051 2.6953 13.041 2.67115C13.0316 2.64853 13.0305 2.63094 13.0305 2.624H13.5305C13.5305 2.53149 13.4988 2.4225 13.4017 2.34478C13.3152 2.27558 13.2139 2.262 13.1405 2.262V2.762ZM13.0305 2.62473L13.0865 21.8607L13.5865 21.8593L13.5305 2.62327L13.0305 2.62473ZM13.0865 21.86C13.0865 21.8681 13.0846 21.8283 13.1247 21.7882C13.1648 21.7481 13.2046 21.75 13.1965 21.75V22.25C13.2817 22.25 13.3915 22.2285 13.4783 22.1418C13.565 22.055 13.5865 21.9452 13.5865 21.86H13.0865ZM13.1965 21.75H10.0605V22.25H13.1965V21.75ZM10.0605 21.75C10.0524 21.75 10.0922 21.7481 10.1323 21.7882C10.1724 21.8283 10.1705 21.8681 10.1705 21.86H9.6705C9.6705 21.9452 9.69197 22.055 9.77873 22.1418C9.86548 22.2285 9.9753 22.25 10.0605 22.25V21.75ZM10.1705 21.86V13.628H9.6705V21.86H10.1705ZM9.9205 13.378H5.7205V13.878H9.9205V13.378ZM5.4705 13.628V21.86H5.9705V13.628H5.4705ZM5.4705 21.86C5.4705 21.88 5.46542 21.8487 5.49728 21.8088C5.5146 21.7872 5.5372 21.7705 5.56135 21.7605C5.58397 21.7511 5.60156 21.75 5.6085 21.75V22.25C5.70101 22.25 5.81 22.2183 5.88772 22.1212C5.95692 22.0347 5.9705 21.9334 5.9705 21.86H5.4705ZM5.6085 21.75H2.4445V22.25H5.6085V21.75ZM20.8296 21.524L20.6953 21.735L20.7009 21.7384L20.8296 21.524ZM18.8416 19.48L18.6259 19.6066L18.6272 19.6086L18.8416 19.48ZM18.0856 16.652L17.8356 16.6512V16.652H18.0856ZM18.1136 7.776L18.3636 7.77679V7.776H18.1136ZM18.8416 4.976L18.6272 4.84736L18.6251 4.85093L18.8416 4.976ZM20.8576 2.96L20.9862 3.17437L20.9862 3.17437L20.8576 2.96ZM26.3456 2.96L26.2148 3.17308L26.2148 3.17308L26.3456 2.96ZM28.3056 4.976L28.0891 5.10109L28.0912 5.10462L28.3056 4.976ZM29.0616 7.776L28.8116 7.776L28.8116 7.77679L29.0616 7.776ZM29.0896 16.652L29.3396 16.652L29.3396 16.6512L29.0896 16.652ZM28.3336 19.48L28.118 19.3534L28.1171 19.3549L28.3336 19.48ZM26.3456 21.524L26.4763 21.7371L26.4776 21.7363L26.3456 21.524ZM25.0576 18.22L24.8736 18.0507L24.8733 18.0511L25.0576 18.22ZM25.7016 16.652L25.9516 16.652L25.9516 16.6512L25.7016 16.652ZM25.6736 7.776L25.4236 7.776L25.4236 7.77679L25.6736 7.776ZM25.0856 6.208L25.2702 6.03943L25.2702 6.03943L25.0856 6.208ZM22.1176 6.208L22.2944 6.38482L22.2982 6.38081L22.1176 6.208ZM22.1176 18.248L21.9332 18.417L21.9369 18.4208L22.1176 18.248ZM23.6016 22.03C22.6375 22.03 21.7582 21.7896 20.9582 21.3096L20.7009 21.7384C21.581 22.2664 22.5496 22.53 23.6016 22.53V22.03ZM20.9638 21.3131C20.1754 20.8114 19.5401 20.1583 19.0559 19.3514L18.6272 19.6086C19.151 20.4817 19.8411 21.1913 20.6953 21.7349L20.9638 21.3131ZM19.0572 19.3534C18.5764 18.5344 18.3356 17.6356 18.3356 16.652H17.8356C17.8356 17.7217 18.0987 18.7083 18.626 19.6066L19.0572 19.3534ZM18.3356 16.6528L18.3636 7.77679L17.8636 7.77521L17.8356 16.6512L18.3356 16.6528ZM18.3636 7.776C18.3636 6.79059 18.596 5.90081 19.058 5.10107L18.6251 4.85093C18.1165 5.73119 17.8636 6.70808 17.8636 7.776H18.3636ZM19.0559 5.10462C19.5388 4.29981 20.1814 3.65726 20.9862 3.17437L20.7289 2.74563C19.8538 3.27074 19.1523 3.97219 18.6272 4.84737L19.0559 5.10462ZM20.9862 3.17437C21.7869 2.69393 22.6571 2.454 23.6016 2.454V1.954C22.5674 1.954 21.6082 2.21807 20.7289 2.74563L20.9862 3.17437ZM23.6016 2.454C24.5656 2.454 25.4347 2.69436 26.2148 3.17308L26.4763 2.74692C25.6138 2.21764 24.6535 1.954 23.6016 1.954V2.454ZM26.2148 3.17308C27.0004 3.65518 27.6244 4.29682 28.0891 5.10107L28.522 4.85093C28.016 3.97517 27.3333 3.27282 26.4763 2.74692L26.2148 3.17308ZM28.0912 5.10462C28.5707 5.90386 28.8116 6.79237 28.8116 7.776H29.3116C29.3116 6.7063 29.0484 5.72813 28.5199 4.84737L28.0912 5.10462ZM28.8116 7.77679L28.8396 16.6528L29.3396 16.6512L29.3116 7.77521L28.8116 7.77679ZM28.8396 16.652C28.8396 17.6356 28.5987 18.5344 28.118 19.3534L28.5492 19.6066C29.0764 18.7083 29.3396 17.7217 29.3396 16.652H28.8396ZM28.1171 19.3549C27.6527 20.1587 27.0193 20.8103 26.2135 21.3117L26.4776 21.7363C27.3518 21.1924 28.0437 20.4813 28.55 19.6051L28.1171 19.3549ZM26.2148 21.3109C25.4347 21.7896 24.5656 22.03 23.6016 22.03V22.53C24.6535 22.53 25.6138 22.2664 26.4763 21.7371L26.2148 21.3109ZM23.6016 19.142C24.2381 19.142 24.7883 18.8837 25.2419 18.3889L24.8733 18.0511C24.5054 18.4523 24.0851 18.642 23.6016 18.642V19.142ZM25.2415 18.3893C25.7089 17.8813 25.9516 17.2996 25.9516 16.652H25.4516C25.4516 17.1617 25.2649 17.6254 24.8736 18.0507L25.2415 18.3893ZM25.9516 16.6512L25.9236 7.77521L25.4236 7.77679L25.4516 16.6528L25.9516 16.6512ZM25.9236 7.776C25.9236 7.10169 25.7069 6.51775 25.2702 6.03943L24.9009 6.37657C25.2482 6.75692 25.4236 7.21831 25.4236 7.776H25.9236ZM25.2702 6.03943C24.8294 5.55663 24.267 5.314 23.6016 5.314V5.814C24.1308 5.814 24.5578 6.00071 24.9009 6.37657L25.2702 6.03943ZM23.6016 5.314C22.9526 5.314 22.3933 5.55804 21.9369 6.03519L22.2982 6.38081C22.6631 5.99929 23.0932 5.814 23.6016 5.814V5.314ZM21.9408 6.03122C21.4787 6.49335 21.2516 7.0818 21.2516 7.776H21.7516C21.7516 7.20086 21.9351 6.74398 22.2943 6.38478L21.9408 6.03122ZM21.2516 7.776V16.652H21.7516V7.776H21.2516ZM21.2516 16.652C21.2516 17.3296 21.4797 17.9221 21.9333 18.4169L22.3019 18.0791C21.9341 17.6779 21.7516 17.2064 21.7516 16.652H21.2516ZM21.9369 18.4208C22.3933 18.898 22.9526 19.142 23.6016 19.142V18.642C23.0932 18.642 22.6631 18.4567 22.2982 18.0752L21.9369 18.4208ZM34.0184 21.86L33.7684 21.8593V21.86H34.0184ZM34.0744 2.624L34.3244 2.62473V2.624H34.0744ZM37.7984 2.624L38.0044 2.48199L37.9984 2.474L37.7984 2.624ZM40.3464 6.32L40.1406 6.4619L40.3464 6.76046L40.5523 6.4619L40.3464 6.32ZM42.8944 2.624L42.6943 2.47388L42.6886 2.4821L42.8944 2.624ZM46.6464 2.624L46.3964 2.624L46.3964 2.62473L46.6464 2.624ZM46.7024 21.86L46.9524 21.86L46.9524 21.8593L46.7024 21.86ZM43.3144 21.86H43.5644L43.5644 21.8595L43.3144 21.86ZM43.2864 7.58L43.5364 7.57951L43.5349 6.7805L43.0807 7.43791L43.2864 7.58ZM40.3464 11.836L40.1401 11.9772L40.3455 12.2773L40.5521 11.9781L40.3464 11.836ZM37.4344 7.58L37.6408 7.43883L37.186 6.7742L37.1844 7.57951L37.4344 7.58ZM37.4064 21.86L37.1564 21.8595V21.86H37.4064ZM34.1304 21.75C34.1374 21.75 34.155 21.7511 34.1776 21.7605C34.2017 21.7705 34.2243 21.7872 34.2417 21.8088C34.2735 21.8487 34.2684 21.88 34.2684 21.86H33.7684C33.7684 21.9334 33.782 22.0347 33.8512 22.1212C33.9289 22.2183 34.0379 22.25 34.1304 22.25V21.75ZM34.2684 21.8607L34.3244 2.62473L33.8244 2.62327L33.7684 21.8593L34.2684 21.8607ZM34.3244 2.624C34.3244 2.6252 34.324 2.67202 34.2792 2.71678C34.2345 2.76153 34.1876 2.762 34.1864 2.762V2.262C34.1106 2.262 34.0077 2.28114 33.9257 2.36322C33.8436 2.44531 33.8244 2.54813 33.8244 2.624H34.3244ZM34.1864 2.762H37.6024V2.262H34.1864V2.762ZM37.6024 2.762C37.6 2.762 37.5964 2.76166 37.5923 2.76056C37.5881 2.75945 37.5851 2.75802 37.5834 2.75706C37.5802 2.75524 37.5861 2.7576 37.5984 2.774L37.9984 2.474C37.9083 2.35384 37.7753 2.262 37.6024 2.262V2.762ZM37.5926 2.7659L40.1406 6.4619L40.5523 6.1781L38.0043 2.4821L37.5926 2.7659ZM40.5523 6.4619L43.1003 2.7659L42.6886 2.4821L40.1406 6.1781L40.5523 6.4619ZM43.0944 2.774C43.1067 2.7576 43.1127 2.75524 43.1095 2.75706C43.1078 2.75802 43.1047 2.75945 43.1006 2.76056C43.0965 2.76166 43.0929 2.762 43.0904 2.762V2.262C42.9176 2.262 42.7846 2.35384 42.6944 2.474L43.0944 2.774ZM43.0904 2.762H46.5344V2.262H43.0904V2.762ZM46.5344 2.762C46.5332 2.762 46.4864 2.76153 46.4417 2.71678C46.3969 2.67202 46.3964 2.6252 46.3964 2.624H46.8964C46.8964 2.54813 46.8773 2.44531 46.7952 2.36322C46.7131 2.28114 46.6103 2.262 46.5344 2.262V2.762ZM46.3964 2.62473L46.4524 21.8607L46.9524 21.8593L46.8964 2.62327L46.3964 2.62473ZM46.4524 21.86C46.4524 21.88 46.4474 21.8487 46.4792 21.8088C46.4965 21.7872 46.5191 21.7705 46.5433 21.7605C46.5659 21.7511 46.5835 21.75 46.5904 21.75V22.25C46.6829 22.25 46.7919 22.2183 46.8697 22.1212C46.9389 22.0347 46.9524 21.9334 46.9524 21.86H46.4524ZM46.5904 21.75H43.4264V22.25H46.5904V21.75ZM43.4264 21.75C43.4334 21.75 43.451 21.7511 43.4736 21.7605C43.4977 21.7705 43.5203 21.7872 43.5377 21.8088C43.5695 21.8487 43.5644 21.88 43.5644 21.86H43.0644C43.0644 21.9334 43.078 22.0347 43.1472 22.1212C43.2249 22.2183 43.3339 22.25 43.4264 22.25V21.75ZM43.5644 21.8595L43.5364 7.57951L43.0364 7.58049L43.0644 21.8605L43.5644 21.8595ZM43.0807 7.43791L40.1407 11.6939L40.5521 11.9781L43.4921 7.72209L43.0807 7.43791ZM40.5528 11.6948L37.6408 7.43883L37.2281 7.72117L40.1401 11.9772L40.5528 11.6948ZM37.1844 7.57951L37.1564 21.8595L37.6564 21.8605L37.6844 7.58049L37.1844 7.57951ZM37.1564 21.86C37.1564 21.88 37.1514 21.8487 37.1832 21.8088C37.2005 21.7872 37.2231 21.7705 37.2473 21.7605C37.2699 21.7511 37.2875 21.75 37.2944 21.75V22.25C37.3869 22.25 37.4959 22.2183 37.5737 22.1212C37.6429 22.0347 37.6564 21.9334 37.6564 21.86H37.1564ZM37.2944 21.75H34.1304V22.25H37.2944V21.75ZM51.8575 21.86L51.6075 21.8596V21.86H51.8575ZM51.8855 2.624L52.1355 2.62436V2.624H51.8855ZM55.2455 5.9V5.65H54.9955V5.9H55.2455ZM55.2455 10.268H54.9955V10.518H55.2455V10.268ZM61.0975 10.38L60.8475 10.38L60.8475 10.3822L61.0975 10.38ZM61.1255 13.544H61.3755L61.3755 13.5418L61.1255 13.544ZM55.2455 13.656V13.406H54.9955V13.656H55.2455ZM55.2455 18.556H54.9955V18.806H55.2455V18.556ZM51.9695 21.75C51.9764 21.75 51.994 21.7511 52.0167 21.7605C52.0408 21.7705 52.0634 21.7872 52.0807 21.8088C52.1126 21.8487 52.1075 21.88 52.1075 21.86H51.6075C51.6075 21.9334 51.6211 22.0347 51.6903 22.1212C51.768 22.2183 51.877 22.25 51.9695 22.25V21.75ZM52.1075 21.8604L52.1355 2.62436L51.6355 2.62364L51.6075 21.8596L52.1075 21.8604ZM52.1355 2.624C52.1355 2.6252 52.135 2.67202 52.0903 2.71678C52.0455 2.76153 51.9987 2.762 51.9975 2.762V2.262C51.9216 2.262 51.8188 2.28114 51.7367 2.36322C51.6546 2.44531 51.6355 2.54813 51.6355 2.624H52.1355ZM51.9975 2.762H60.9855V2.262H51.9975V2.762ZM60.9855 2.762C60.9786 2.762 60.961 2.76094 60.9383 2.75152C60.9142 2.74146 60.8916 2.72481 60.8743 2.70317C60.8424 2.66334 60.8475 2.63204 60.8475 2.652H61.3475C61.3475 2.57862 61.3339 2.47733 61.2647 2.39083C61.187 2.29367 61.078 2.262 60.9855 2.262V2.762ZM60.8475 2.652V5.788H61.3475V2.652H60.8475ZM60.8475 5.788C60.8475 5.7868 60.848 5.73998 60.8927 5.69522C60.9375 5.65047 60.9843 5.65 60.9855 5.65V6.15C61.0614 6.15 61.1642 6.13086 61.2463 6.04877C61.3284 5.96669 61.3475 5.86387 61.3475 5.788H60.8475ZM60.9855 5.65H55.2455V6.15H60.9855V5.65ZM54.9955 5.9V10.268H55.4955V5.9H54.9955ZM55.2455 10.518H60.9855V10.018H55.2455V10.518ZM60.9855 10.518C60.9843 10.518 60.9375 10.5175 60.8927 10.4728C60.848 10.428 60.8475 10.3812 60.8475 10.38H61.3475C61.3475 10.3041 61.3284 10.2013 61.2463 10.1192C61.1642 10.0371 61.0614 10.018 60.9855 10.018V10.518ZM60.8475 10.3822L60.8755 13.5462L61.3755 13.5418L61.3475 10.3778L60.8475 10.3822ZM60.8755 13.544C60.8755 13.5428 60.876 13.496 60.9207 13.4512C60.9655 13.4065 61.0123 13.406 61.0135 13.406V13.906C61.0894 13.906 61.1922 13.8869 61.2743 13.8048C61.3564 13.7227 61.3755 13.6199 61.3755 13.544H60.8755ZM61.0135 13.406H55.2455V13.906H61.0135V13.406ZM54.9955 13.656V18.556H55.4955V13.656H54.9955ZM55.2455 18.806H61.0135V18.306H55.2455V18.806ZM61.0135 18.806C61.0066 18.806 60.989 18.8049 60.9663 18.7955C60.9422 18.7855 60.9196 18.7688 60.9023 18.7472C60.8704 18.7073 60.8755 18.676 60.8755 18.696H61.3755C61.3755 18.6226 61.3619 18.5213 61.2927 18.4348C61.215 18.3377 61.106 18.306 61.0135 18.306V18.806ZM60.8755 18.696V21.888H61.3755V18.696H60.8755ZM60.8755 21.888C60.8755 21.8868 60.876 21.84 60.9207 21.7952C60.9655 21.7505 61.0123 21.75 61.0135 21.75V22.25C61.0894 22.25 61.1922 22.2309 61.2743 22.1488C61.3564 22.0667 61.3755 21.9639 61.3755 21.888H60.8755ZM61.0135 21.75H51.9695V22.25H61.0135V21.75ZM66.4153 21.86L66.1653 21.8593V21.86H66.4153ZM66.4713 2.624L66.7213 2.62473V2.624H66.4713ZM70.1953 2.624L70.4013 2.48199L70.3953 2.474L70.1953 2.624ZM72.7433 6.32L72.5375 6.4619L72.7433 6.76046L72.9491 6.4619L72.7433 6.32ZM75.2913 2.624L75.0912 2.47388L75.0855 2.4821L75.2913 2.624ZM79.0433 2.624L78.7933 2.624L78.7933 2.62473L79.0433 2.624ZM79.0993 21.86L79.3493 21.86L79.3493 21.8593L79.0993 21.86ZM75.7113 21.86H75.9613L75.9613 21.8595L75.7113 21.86ZM75.6833 7.58L75.9333 7.57951L75.9317 6.7805L75.4776 7.43791L75.6833 7.58ZM72.7433 11.836L72.537 11.9772L72.7423 12.2773L72.949 11.9781L72.7433 11.836ZM69.8313 7.58L70.0376 7.43883L69.5829 6.7742L69.5813 7.57951L69.8313 7.58ZM69.8033 21.86L69.5533 21.8595V21.86H69.8033ZM66.5273 21.75C66.5343 21.75 66.5518 21.7511 66.5745 21.7605C66.5986 21.7705 66.6212 21.7872 66.6385 21.8088C66.6704 21.8487 66.6653 21.88 66.6653 21.86H66.1653C66.1653 21.9334 66.1789 22.0347 66.2481 22.1212C66.3258 22.2183 66.4348 22.25 66.5273 22.25V21.75ZM66.6653 21.8607L66.7213 2.62473L66.2213 2.62327L66.1653 21.8593L66.6653 21.8607ZM66.7213 2.624C66.7213 2.6252 66.7208 2.67202 66.6761 2.71678C66.6313 2.76153 66.5845 2.762 66.5833 2.762V2.262C66.5074 2.262 66.4046 2.28114 66.3225 2.36322C66.2404 2.44531 66.2213 2.54813 66.2213 2.624H66.7213ZM66.5833 2.762H69.9993V2.262H66.5833V2.762ZM69.9993 2.762C69.9969 2.762 69.9933 2.76166 69.9891 2.76056C69.985 2.75945 69.9819 2.75802 69.9803 2.75706C69.9771 2.75524 69.983 2.7576 69.9953 2.774L70.3953 2.474C70.3052 2.35384 70.1722 2.262 69.9993 2.262V2.762ZM69.9895 2.7659L72.5375 6.4619L72.9491 6.1781L70.4011 2.4821L69.9895 2.7659ZM72.9491 6.4619L75.4971 2.7659L75.0855 2.4821L72.5375 6.1781L72.9491 6.4619ZM75.4913 2.774C75.5036 2.7576 75.5095 2.75524 75.5063 2.75706C75.5047 2.75802 75.5016 2.75945 75.4975 2.76056C75.4933 2.76166 75.4897 2.762 75.4873 2.762V2.262C75.3144 2.262 75.1814 2.35384 75.0913 2.474L75.4913 2.774ZM75.4873 2.762H78.9313V2.262H75.4873V2.762ZM78.9313 2.762C78.9301 2.762 78.8833 2.76153 78.8385 2.71678C78.7938 2.67202 78.7933 2.6252 78.7933 2.624H79.2933C79.2933 2.54813 79.2742 2.44531 79.1921 2.36322C79.11 2.28114 79.0072 2.262 78.9313 2.262V2.762ZM78.7933 2.62473L78.8493 21.8607L79.3493 21.8593L79.2933 2.62327L78.7933 2.62473ZM78.8493 21.86C78.8493 21.88 78.8442 21.8487 78.8761 21.8088C78.8934 21.7872 78.916 21.7705 78.9402 21.7605C78.9628 21.7511 78.9804 21.75 78.9873 21.75V22.25C79.0798 22.25 79.1888 22.2183 79.2665 22.1212C79.3357 22.0347 79.3493 21.9334 79.3493 21.86H78.8493ZM78.9873 21.75H75.8233V22.25H78.9873V21.75ZM75.8233 21.75C75.8303 21.75 75.8478 21.7511 75.8705 21.7605C75.8946 21.7705 75.9172 21.7872 75.9345 21.8088C75.9664 21.8487 75.9613 21.88 75.9613 21.86H75.4613C75.4613 21.9334 75.4749 22.0347 75.5441 22.1212C75.6218 22.2183 75.7308 22.25 75.8233 22.25V21.75ZM75.9613 21.8595L75.9333 7.57951L75.4333 7.58049L75.4613 21.8605L75.9613 21.8595ZM75.4776 7.43791L72.5376 11.6939L72.949 11.9781L75.889 7.72209L75.4776 7.43791ZM72.9496 11.6948L70.0376 7.43883L69.625 7.72117L72.537 11.9772L72.9496 11.6948ZM69.5813 7.57951L69.5533 21.8595L70.0533 21.8605L70.0813 7.58049L69.5813 7.57951ZM69.5533 21.86C69.5533 21.88 69.5482 21.8487 69.5801 21.8088C69.5974 21.7872 69.62 21.7705 69.6442 21.7605C69.6668 21.7511 69.6844 21.75 69.6913 21.75V22.25C69.7838 22.25 69.8928 22.2183 69.9705 22.1212C70.0397 22.0347 70.0533 21.9334 70.0533 21.86H69.5533ZM69.6913 21.75H66.5273V22.25H69.6913V21.75ZM83.3024 21.86L83.0564 21.8156L83.0524 21.8376V21.86H83.3024ZM86.7744 2.624L86.5318 2.56337L86.5298 2.57142L86.5284 2.57959L86.7744 2.624ZM91.1144 2.624L91.3607 2.58133L91.3591 2.57228L91.3569 2.56336L91.1144 2.624ZM94.4464 21.86L94.2 21.9027L94.2012 21.909L94.4464 21.86ZM91.0864 21.86L90.8389 21.8973L90.8412 21.909L91.0864 21.86ZM90.7784 19.816L91.0256 19.7787L90.9935 19.566H90.7784V19.816ZM86.9704 19.816V19.566H86.7552L86.7232 19.7787L86.9704 19.816ZM86.6624 21.86L86.9078 21.9091L86.9096 21.8973L86.6624 21.86ZM87.5304 16.82L87.2835 16.7805L87.2372 17.07H87.5304V16.82ZM90.2184 16.82V17.07H90.5075L90.4658 16.7839L90.2184 16.82ZM89.0704 8.952L89.3178 8.9159L89.3172 8.91198L89.0704 8.952ZM88.9024 7.916L89.1492 7.87598L88.6538 7.88913L88.9024 7.916ZM88.7904 8.952L89.0376 8.99158L89.0389 8.97887L88.7904 8.952ZM83.5484 21.9044L87.0204 2.66841L86.5284 2.57959L83.0564 21.8156L83.5484 21.9044ZM87.0169 2.68463C87.0168 2.68501 87.0099 2.71095 86.9796 2.73522C86.9484 2.76011 86.9193 2.762 86.9144 2.762V2.262C86.8348 2.262 86.745 2.28255 86.6672 2.34478C86.5902 2.40638 86.5506 2.48832 86.5318 2.56337L87.0169 2.68463ZM86.9144 2.762H90.9744V2.262H86.9144V2.762ZM90.9744 2.762C90.9694 2.762 90.9403 2.76011 90.9092 2.73522C90.8789 2.71095 90.8719 2.68501 90.8718 2.68463L91.3569 2.56336C91.3382 2.48832 91.2986 2.40638 91.2216 2.34478C91.1438 2.28255 91.054 2.262 90.9744 2.262V2.762ZM90.868 2.66667L94.2 21.9027L94.6927 21.8173L91.3607 2.58133L90.868 2.66667ZM94.2012 21.909C94.2046 21.9258 94.1881 21.8701 94.2372 21.8088C94.2875 21.7459 94.3481 21.75 94.3344 21.75V22.25C94.414 22.25 94.5399 22.2308 94.6276 22.1212C94.714 22.0132 94.7068 21.8875 94.6915 21.811L94.2012 21.909ZM94.3344 21.75H91.2264V22.25H94.3344V21.75ZM91.2264 21.75C91.2339 21.75 91.248 21.7512 91.2654 21.7579C91.2834 21.7648 91.2995 21.7755 91.3122 21.7882C91.336 21.8121 91.3353 21.8296 91.3315 21.811L90.8412 21.909C90.8562 21.9837 90.8881 22.0713 90.9586 22.1418C91.0351 22.2183 91.1322 22.25 91.2264 22.25V21.75ZM91.3336 21.8227L91.0256 19.7787L90.5312 19.8533L90.8392 21.8973L91.3336 21.8227ZM90.7784 19.566H86.9704V20.066H90.7784V19.566ZM86.7232 19.7787L86.4152 21.8227L86.9096 21.8973L87.2176 19.8533L86.7232 19.7787ZM86.4172 21.811C86.4135 21.8296 86.4128 21.8121 86.4366 21.7882C86.4493 21.7755 86.4654 21.7648 86.4834 21.7579C86.5008 21.7512 86.5149 21.75 86.5224 21.75V22.25C86.6165 22.25 86.7136 22.2183 86.7902 22.1418C86.8606 22.0713 86.8926 21.9837 86.9075 21.909L86.4172 21.811ZM86.5224 21.75H83.4144V22.25H86.5224V21.75ZM83.4144 21.75C83.4213 21.75 83.4389 21.7511 83.4615 21.7605C83.4857 21.7705 83.5083 21.7872 83.5256 21.8088C83.5575 21.8487 83.5524 21.88 83.5524 21.86H83.0524C83.0524 21.9334 83.066 22.0347 83.1352 22.1212C83.2129 22.2183 83.3219 22.25 83.4144 22.25V21.75ZM87.5304 17.07H90.2184V16.57H87.5304V17.07ZM90.4658 16.7839L89.3178 8.9159L88.823 8.98809L89.971 16.8561L90.4658 16.7839ZM89.3172 8.91198L89.1492 7.87598L88.6556 7.95602L88.8236 8.99202L89.3172 8.91198ZM88.6538 7.88913L88.5418 8.92513L89.0389 8.97887L89.1509 7.94287L88.6538 7.88913ZM88.5435 8.91247L87.2835 16.7805L87.7772 16.8595L89.0372 8.99153L88.5435 8.91247ZM99.0036 21.86L98.7536 21.8593V21.86H99.0036ZM99.0596 2.652L99.3096 2.65273V2.652H99.0596ZM102.42 9.288H102.17V10.121L102.628 9.42566L102.42 9.288ZM106.816 2.624L106.616 2.474L106.611 2.48004L106.607 2.48634L106.816 2.624ZM110.288 2.624L110.499 2.75677L110.506 2.74657L110.511 2.7358L110.288 2.624ZM105.444 10.352L105.232 10.2192L105.159 10.3349L105.217 10.4585L105.444 10.352ZM110.876 21.888L110.649 21.9945L110.652 21.9998L110.876 21.888ZM107.152 21.888L107.394 21.8274L107.388 21.8048L107.379 21.7837L107.152 21.888ZM103.372 13.656L103.599 13.5517L103.407 13.1344L103.161 13.5218L103.372 13.656ZM102.392 15.196L102.181 15.0618L102.142 15.1232V15.196H102.392ZM99.1156 21.75C99.1225 21.75 99.1401 21.7511 99.1628 21.7605C99.1869 21.7705 99.2095 21.7872 99.2268 21.8088C99.2587 21.8487 99.2536 21.88 99.2536 21.86H98.7536C98.7536 21.9334 98.7672 22.0347 98.8364 22.1212C98.9141 22.2183 99.0231 22.25 99.1156 22.25V21.75ZM99.2536 21.8607L99.3096 2.65273L98.8096 2.65127L98.7536 21.8593L99.2536 21.8607ZM99.3096 2.652C99.3096 2.63204 99.3147 2.66334 99.2828 2.70317C99.2655 2.72481 99.2429 2.74146 99.2188 2.75152C99.1961 2.76094 99.1785 2.762 99.1716 2.762V2.262C99.0791 2.262 98.9701 2.29367 98.8924 2.39082C98.8232 2.47733 98.8096 2.57862 98.8096 2.652H99.3096ZM99.1716 2.762H102.308V2.262H99.1716V2.762ZM102.308 2.762C102.301 2.762 102.283 2.76094 102.26 2.75152C102.236 2.74146 102.214 2.72481 102.196 2.70317C102.165 2.66334 102.17 2.63204 102.17 2.652H102.67C102.67 2.57862 102.656 2.47733 102.587 2.39083C102.509 2.29367 102.4 2.262 102.308 2.262V2.762ZM102.17 2.652V9.288H102.67V2.652H102.17ZM102.628 9.42566L107.024 2.76166L106.607 2.48634L102.211 9.15034L102.628 9.42566ZM107.016 2.774C107.028 2.7576 107.034 2.75525 107.031 2.75706C107.029 2.75802 107.026 2.75945 107.022 2.76056C107.018 2.76166 107.014 2.762 107.012 2.762V2.262C106.839 2.262 106.706 2.35384 106.616 2.474L107.016 2.774ZM107.012 2.762H110.232V2.262H107.012V2.762ZM110.232 2.762C110.231 2.762 110.226 2.76197 110.219 2.76084C110.212 2.75973 110.199 2.75719 110.184 2.75112C110.151 2.73792 110.106 2.70794 110.078 2.6518C110.052 2.59953 110.055 2.55357 110.059 2.5339C110.062 2.51471 110.067 2.50637 110.064 2.5122L110.511 2.7358C110.527 2.7043 110.544 2.66329 110.552 2.6161C110.56 2.56842 110.561 2.49914 110.525 2.4282C110.448 2.27295 110.287 2.262 110.232 2.262V2.762ZM110.076 2.49122L105.232 10.2192L105.655 10.4848L110.499 2.75677L110.076 2.49122ZM105.217 10.4585L110.649 21.9945L111.102 21.7815L105.67 10.2455L105.217 10.4585ZM110.652 21.9998C110.65 21.996 110.635 21.965 110.639 21.9162C110.644 21.8571 110.674 21.8073 110.712 21.7768C110.729 21.7638 110.743 21.7568 110.752 21.7532C110.76 21.7497 110.766 21.7485 110.766 21.7484C110.767 21.7483 110.758 21.75 110.736 21.75V22.25C110.779 22.25 110.825 22.2471 110.869 22.2376C110.912 22.2287 110.971 22.2104 111.025 22.1672C111.086 22.118 111.13 22.0449 111.137 21.9578C111.143 21.881 111.12 21.8173 111.099 21.7762L110.652 21.9998ZM110.736 21.75H107.32V22.25H110.736V21.75ZM107.32 21.75C107.304 21.75 107.32 21.7466 107.346 21.764C107.36 21.773 107.372 21.7849 107.381 21.7983C107.389 21.8113 107.393 21.8222 107.394 21.8274L106.909 21.9486C106.931 22.037 106.982 22.1219 107.069 22.18C107.151 22.2348 107.242 22.25 107.32 22.25V21.75ZM107.379 21.7837L103.599 13.5517L103.144 13.7603L106.924 21.9923L107.379 21.7837ZM103.161 13.5218L102.181 15.0618L102.603 15.3302L103.583 13.7902L103.161 13.5218ZM102.142 15.196V21.86H102.642V15.196H102.142ZM102.142 21.86C102.142 21.88 102.137 21.8487 102.168 21.8088C102.186 21.7872 102.208 21.7705 102.232 21.7605C102.255 21.7511 102.273 21.75 102.28 21.75V22.25C102.372 22.25 102.481 22.2183 102.559 22.1212C102.628 22.0347 102.642 21.9334 102.642 21.86H102.142ZM102.28 21.75H99.1156V22.25H102.28V21.75ZM114.929 21.86L114.679 21.8596V21.86H114.929ZM114.957 2.624L115.207 2.62436V2.624H114.957ZM118.317 5.9V5.65H118.067V5.9H118.317ZM118.317 10.268H118.067V10.518H118.317V10.268ZM124.169 10.38L123.919 10.38L123.919 10.3822L124.169 10.38ZM124.197 13.544H124.447L124.447 13.5418L124.197 13.544ZM118.317 13.656V13.406H118.067V13.656H118.317ZM118.317 18.556H118.067V18.806H118.317V18.556ZM115.041 21.75C115.048 21.75 115.065 21.7511 115.088 21.7605C115.112 21.7705 115.135 21.7872 115.152 21.8088C115.184 21.8487 115.179 21.88 115.179 21.86H114.679C114.679 21.9334 114.692 22.0347 114.761 22.1212C114.839 22.2183 114.948 22.25 115.041 22.25V21.75ZM115.179 21.8604L115.207 2.62436L114.707 2.62364L114.679 21.8596L115.179 21.8604ZM115.207 2.624C115.207 2.6252 115.206 2.67202 115.161 2.71678C115.117 2.76153 115.07 2.762 115.069 2.762V2.262C114.993 2.262 114.89 2.28114 114.808 2.36322C114.726 2.44531 114.707 2.54813 114.707 2.624H115.207ZM115.069 2.762H124.057V2.262H115.069V2.762ZM124.057 2.762C124.05 2.762 124.032 2.76094 124.009 2.75152C123.985 2.74146 123.963 2.72481 123.945 2.70317C123.914 2.66334 123.919 2.63204 123.919 2.652H124.419C124.419 2.57862 124.405 2.47733 124.336 2.39083C124.258 2.29367 124.149 2.262 124.057 2.262V2.762ZM123.919 2.652V5.788H124.419V2.652H123.919ZM123.919 5.788C123.919 5.7868 123.919 5.73998 123.964 5.69522C124.009 5.65047 124.055 5.65 124.057 5.65V6.15C124.132 6.15 124.235 6.13086 124.317 6.04877C124.399 5.96669 124.419 5.86387 124.419 5.788H123.919ZM124.057 5.65H118.317V6.15H124.057V5.65ZM118.067 5.9V10.268H118.567V5.9H118.067ZM118.317 10.518H124.057V10.018H118.317V10.518ZM124.057 10.518C124.055 10.518 124.009 10.5175 123.964 10.4728C123.919 10.428 123.919 10.3812 123.919 10.38H124.419C124.419 10.3041 124.399 10.2013 124.317 10.1192C124.235 10.0371 124.132 10.018 124.057 10.018V10.518ZM123.919 10.3822L123.947 13.5462L124.447 13.5418L124.419 10.3778L123.919 10.3822ZM123.947 13.544C123.947 13.5428 123.947 13.496 123.992 13.4512C124.037 13.4065 124.083 13.406 124.085 13.406V13.906C124.16 13.906 124.263 13.8869 124.345 13.8048C124.427 13.7227 124.447 13.6199 124.447 13.544H123.947ZM124.085 13.406H118.317V13.906H124.085V13.406ZM118.067 13.656V18.556H118.567V13.656H118.067ZM118.317 18.806H124.085V18.306H118.317V18.806ZM124.085 18.806C124.078 18.806 124.06 18.8049 124.037 18.7955C124.013 18.7855 123.991 18.7688 123.973 18.7472C123.942 18.7073 123.947 18.676 123.947 18.696H124.447C124.447 18.6226 124.433 18.5213 124.364 18.4348C124.286 18.3377 124.177 18.306 124.085 18.306V18.806ZM123.947 18.696V21.888H124.447V18.696H123.947ZM123.947 21.888C123.947 21.8868 123.947 21.84 123.992 21.7952C124.037 21.7505 124.083 21.75 124.085 21.75V22.25C124.16 22.25 124.263 22.2309 124.345 22.1488C124.427 22.0667 124.447 21.9639 124.447 21.888H123.947ZM124.085 21.75H115.041V22.25H124.085V21.75ZM129.486 21.86L129.236 21.8593V21.86H129.486ZM129.542 2.624L129.792 2.62473V2.624H129.542ZM138.082 3.268L137.954 3.48244L137.959 3.48564L138.082 3.268ZM140.126 5.256L139.912 5.38463L139.913 5.38675L140.126 5.256ZM140.574 9.932L140.808 10.0207L140.809 10.0181L140.574 9.932ZM139.846 11.332L140.046 11.482L140.05 11.4773L139.846 11.332ZM139.09 12.172L138.93 11.9799L138.731 12.1462L138.905 12.3392L139.09 12.172ZM140.602 16.12H140.352L140.352 16.1212L140.602 16.12ZM140.63 21.86L140.88 21.86L140.88 21.8588L140.63 21.86ZM136.486 14.384L136.303 14.554L136.31 14.5608L136.486 14.384ZM132.902 13.628V13.378H132.653L132.652 13.6271L132.902 13.628ZM132.874 21.86L132.624 21.8591V21.86H132.874ZM132.902 10.268H132.652V10.518H132.902V10.268ZM136.85 9.624L136.677 9.4435L136.677 9.4435L136.85 9.624ZM136.85 6.516L136.674 6.69282L136.677 6.6965L136.85 6.516ZM132.902 5.872V5.622H132.652V5.872H132.902ZM129.598 21.75C129.605 21.75 129.623 21.7511 129.646 21.7605C129.67 21.7705 129.692 21.7872 129.71 21.8088C129.741 21.8487 129.736 21.88 129.736 21.86H129.236C129.236 21.9334 129.25 22.0347 129.319 22.1212C129.397 22.2183 129.506 22.25 129.598 22.25V21.75ZM129.736 21.8607L129.792 2.62473L129.292 2.62327L129.236 21.8593L129.736 21.8607ZM129.792 2.624C129.792 2.6252 129.792 2.67202 129.747 2.71678C129.702 2.76153 129.656 2.762 129.654 2.762V2.262C129.579 2.262 129.476 2.28114 129.394 2.36322C129.312 2.44531 129.292 2.54813 129.292 2.624H129.792ZM129.654 2.762H135.31V2.262H129.654V2.762ZM135.31 2.762C136.274 2.762 137.154 3.00238 137.954 3.48237L138.211 3.05363C137.331 2.52561 136.362 2.262 135.31 2.262V2.762ZM137.959 3.48564C138.781 3.94985 139.43 4.58196 139.912 5.38462L140.341 5.12737C139.814 4.25004 139.101 3.55681 138.205 3.05036L137.959 3.48564ZM139.913 5.38675C140.391 6.16543 140.632 7.05277 140.632 8.056H141.132C141.132 6.96857 140.87 5.98924 140.339 5.12524L139.913 5.38675ZM140.632 8.056C140.632 8.72186 140.533 9.31748 140.34 9.84594L140.809 10.0181C141.026 9.42652 141.132 8.77147 141.132 8.056H140.632ZM140.341 9.84334C140.141 10.3685 139.908 10.8153 139.643 11.1867L140.05 11.4773C140.345 11.0647 140.597 10.5782 140.808 10.0207L140.341 9.84334ZM139.646 11.182C139.372 11.5479 139.133 11.8108 138.93 11.9799L139.25 12.3641C139.496 12.1598 139.761 11.8628 140.046 11.482L139.646 11.182ZM138.905 12.3392C139.871 13.4132 140.352 14.6695 140.352 16.12H140.852C140.852 14.5465 140.326 13.1708 139.276 12.0048L138.905 12.3392ZM140.352 16.1212L140.38 21.8612L140.88 21.8588L140.852 16.1188L140.352 16.1212ZM140.38 21.86C140.38 21.8681 140.379 21.8283 140.419 21.7882C140.459 21.7481 140.499 21.75 140.49 21.75V22.25C140.576 22.25 140.685 22.2285 140.772 22.1418C140.859 22.055 140.88 21.9452 140.88 21.86H140.38ZM140.49 21.75H137.326V22.25H140.49V21.75ZM137.326 21.75C137.313 21.75 137.349 21.7462 137.392 21.779C137.417 21.7972 137.437 21.8221 137.45 21.8512C137.462 21.8789 137.464 21.9025 137.464 21.916H136.964C136.964 22.005 136.998 22.1081 137.092 22.179C137.173 22.2398 137.265 22.25 137.326 22.25V21.75ZM137.464 21.916V16.12H136.964V21.916H137.464ZM137.464 16.12C137.464 15.3801 137.194 14.7383 136.663 14.2072L136.31 14.5608C136.749 15.0003 136.964 15.5159 136.964 16.12H137.464ZM136.67 14.2141C136.156 13.6587 135.51 13.378 134.75 13.378V13.878C135.372 13.878 135.884 14.1013 136.303 14.5539L136.67 14.2141ZM134.75 13.378H132.902V13.878H134.75V13.378ZM132.652 13.6271L132.624 21.8591L133.124 21.8609L133.152 13.6288L132.652 13.6271ZM132.624 21.86C132.624 21.88 132.619 21.8487 132.651 21.8088C132.669 21.7872 132.691 21.7705 132.715 21.7605C132.738 21.7511 132.755 21.75 132.762 21.75V22.25C132.855 22.25 132.964 22.2183 133.042 22.1212C133.111 22.0347 133.124 21.9334 133.124 21.86H132.624ZM132.762 21.75H129.598V22.25H132.762V21.75ZM132.902 10.518H135.31V10.018H132.902V10.518ZM135.31 10.518C135.958 10.518 136.533 10.2749 137.023 9.8045L136.677 9.4435C136.272 9.83178 135.82 10.018 135.31 10.018V10.518ZM137.023 9.8045C137.52 9.3284 137.772 8.74071 137.772 8.056H137.272C137.272 8.60329 137.077 9.06093 136.677 9.4435L137.023 9.8045ZM137.772 8.056C137.772 7.3876 137.518 6.80993 137.023 6.3355L136.677 6.6965C137.078 7.08073 137.272 7.52973 137.272 8.056H137.772ZM137.027 6.33922C136.552 5.86387 135.975 5.622 135.31 5.622V6.122C135.84 6.122 136.29 6.30946 136.674 6.69278L137.027 6.33922ZM135.31 5.622H132.902V6.122H135.31V5.622ZM132.652 5.872V10.268H133.152V5.872H132.652ZM147.7 21.524L147.566 21.735L147.572 21.7384L147.7 21.524ZM145.712 19.48L145.494 19.6031L145.498 19.6086L145.712 19.48ZM148.988 18.248L148.804 18.417L148.808 18.4208L148.988 18.248ZM151.956 18.22L151.772 18.0511L151.772 18.0511L151.956 18.22ZM151.228 14.86L151.351 14.6421L151.351 14.6421L151.228 14.86ZM149.828 14.076L149.95 13.8578L149.95 13.8578L149.828 14.076ZM148.036 13.068L147.91 13.2841L147.913 13.2855L148.036 13.068ZM145.74 10.828L145.519 10.9452L145.522 10.9506L145.74 10.828ZM145.768 4.948L145.981 5.07876L145.983 5.07662L145.768 4.948ZM147.756 2.96L147.631 2.74352L147.629 2.74477L147.756 2.96ZM153.188 2.988L153.057 3.20115L153.063 3.20447L153.188 2.988ZM155.176 4.976L154.96 5.10111L154.963 5.10675L155.176 4.976ZM152.572 10.044L152.822 10.044L152.822 10.041L152.572 10.044ZM152.544 7.748L152.294 7.748L152.294 7.75105L152.544 7.748ZM151.928 6.152L152.105 5.97522L152.105 5.97522L151.928 6.152ZM148.988 6.208L149.169 6.38084L149.172 6.37693L148.988 6.208ZM148.764 9.288L148.975 9.15378L148.975 9.15378L148.764 9.288ZM150.192 10.464L150.321 10.2494L150.311 10.2441L150.192 10.464ZM150.724 10.772L150.6 10.9891L150.609 10.9942L150.618 10.9985L150.724 10.772ZM151.62 11.248L151.493 11.4637L151.503 11.4689L151.62 11.248ZM152.46 11.696L152.342 11.9162L152.348 11.9196L152.46 11.696ZM152.936 11.948L152.798 12.156L152.806 12.1614L152.814 12.1661L152.936 11.948ZM155.148 13.88L154.944 14.0244L154.946 14.0267L155.148 13.88ZM155.204 19.536L154.989 19.4094L154.988 19.4109L155.204 19.536ZM153.216 21.552L153.343 21.7672L153.345 21.7664L153.216 21.552ZM150.472 22.03C149.508 22.03 148.629 21.7896 147.829 21.3096L147.572 21.7384C148.452 22.2664 149.42 22.53 150.472 22.53V22.03ZM147.834 21.3131C147.046 20.8114 146.411 20.1583 145.927 19.3514L145.498 19.6086C146.022 20.4817 146.712 21.1913 147.566 21.7349L147.834 21.3131ZM145.93 19.357C145.467 18.5374 145.234 17.6374 145.234 16.652H144.734C144.734 17.7199 144.987 18.7053 145.495 19.603L145.93 19.357ZM145.234 16.652V15.364H144.734V16.652H145.234ZM145.234 15.364C145.234 15.3559 145.236 15.3957 145.196 15.4358C145.156 15.4759 145.116 15.474 145.124 15.474V14.974C145.039 14.974 144.929 14.9955 144.842 15.0822C144.756 15.169 144.734 15.2788 144.734 15.364H145.234ZM145.124 15.474H148.26V14.974H145.124V15.474ZM148.26 15.474C148.253 15.474 148.236 15.4729 148.213 15.4635C148.189 15.4535 148.166 15.4368 148.149 15.4152C148.117 15.3753 148.122 15.344 148.122 15.364H148.622C148.622 15.2906 148.609 15.1893 148.539 15.1028C148.462 15.0057 148.353 14.974 148.26 14.974V15.474ZM148.122 15.364V16.652H148.622V15.364H148.122ZM148.122 16.652C148.122 17.3296 148.35 17.9221 148.804 18.4169L149.172 18.0791C148.805 17.6779 148.622 17.2064 148.622 16.652H148.122ZM148.808 18.4208C149.264 18.898 149.823 19.142 150.472 19.142V18.642C149.964 18.642 149.534 18.4567 149.169 18.0752L148.808 18.4208ZM150.472 19.142C151.125 19.142 151.685 18.8857 152.14 18.3889L151.772 18.0511C151.406 18.4503 150.977 18.642 150.472 18.642V19.142ZM152.14 18.3889C152.593 17.8957 152.822 17.3131 152.822 16.652H152.322C152.322 17.1856 152.141 17.6483 151.772 18.0511L152.14 18.3889ZM152.822 16.652C152.822 15.8313 152.283 15.1667 151.351 14.6421L151.106 15.0779C151.965 15.5613 152.322 16.0914 152.322 16.652H152.822ZM151.351 14.6421C151.052 14.4739 150.585 14.2124 149.95 13.8578L149.706 14.2942C150.341 14.6489 150.807 14.9101 151.106 15.0779L151.351 14.6421ZM149.95 13.8578C149.316 13.5033 148.719 13.1676 148.159 12.8505L147.913 13.2855C148.473 13.6031 149.071 13.9394 149.706 14.2942L149.95 13.8578ZM148.162 12.8519C147.168 12.2735 146.437 11.5569 145.958 10.7054L145.522 10.9506C146.051 11.8911 146.851 12.6679 147.91 13.2841L148.162 12.8519ZM145.961 10.7108C145.497 9.83574 145.262 8.84997 145.262 7.748H144.762C144.762 8.92337 145.013 9.99092 145.519 10.9452L145.961 10.7108ZM145.262 7.748C145.262 6.74477 145.503 5.85743 145.981 5.07875L145.555 4.81725C145.025 5.68124 144.762 6.66057 144.762 7.748H145.262ZM145.983 5.07662C146.466 4.2713 147.099 3.63882 147.883 3.17523L147.629 2.74477C146.771 3.25185 146.079 3.9447 145.554 4.81938L145.983 5.07662ZM147.881 3.17647C148.683 2.71311 149.545 2.482 150.472 2.482V1.982C149.458 1.982 148.509 2.23622 147.631 2.74353L147.881 3.17647ZM150.472 2.482C151.417 2.482 152.277 2.72189 153.057 3.20108L153.319 2.77492C152.457 2.24611 151.506 1.982 150.472 1.982V2.482ZM153.063 3.20447C153.865 3.66787 154.496 4.29902 154.96 5.10107L155.393 4.85093C154.885 3.97298 154.191 3.27879 153.313 2.77153L153.063 3.20447ZM154.963 5.10675C155.441 5.88615 155.682 6.76434 155.682 7.748H156.182C156.182 6.67832 155.919 5.70852 155.389 4.84524L154.963 5.10675ZM155.682 7.748V10.044H156.182V7.748H155.682ZM155.682 10.044C155.682 10.0428 155.683 9.99598 155.727 9.95122C155.772 9.90647 155.819 9.906 155.82 9.906V10.406C155.896 10.406 155.999 10.3869 156.081 10.3048C156.163 10.2227 156.182 10.1199 156.182 10.044H155.682ZM155.82 9.906H152.684V10.406H155.82V9.906ZM152.684 9.906C152.685 9.906 152.732 9.90647 152.777 9.95122C152.822 9.99598 152.822 10.0428 152.822 10.044H152.322C152.322 10.1199 152.341 10.2227 152.423 10.3048C152.506 10.3869 152.608 10.406 152.684 10.406V9.906ZM152.822 10.041L152.794 7.74495L152.294 7.75105L152.322 10.047L152.822 10.041ZM152.794 7.748C152.794 7.0374 152.569 6.4388 152.105 5.97522L151.751 6.32878C152.109 6.68653 152.294 7.15193 152.294 7.748H152.794ZM152.105 5.97522C151.649 5.51961 151.101 5.286 150.472 5.286V5.786C150.963 5.786 151.386 5.96305 151.751 6.32878L152.105 5.97522ZM150.472 5.286C149.82 5.286 149.259 5.54234 148.804 6.03907L149.172 6.37693C149.538 5.97766 149.967 5.786 150.472 5.786V5.286ZM148.808 6.03519C148.352 6.51133 148.122 7.08667 148.122 7.748H148.622C148.622 7.21466 148.803 6.76333 149.169 6.38081L148.808 6.03519ZM148.122 7.748C148.122 8.39901 148.26 8.96203 148.553 9.42222L148.975 9.15378C148.745 8.79263 148.622 8.32899 148.622 7.748H148.122ZM148.553 9.42222C148.847 9.88444 149.366 10.3015 150.073 10.6839L150.311 10.2441C149.637 9.87987 149.204 9.51289 148.975 9.15378L148.553 9.42222ZM150.064 10.6784C150.16 10.7359 150.339 10.8399 150.6 10.9891L150.848 10.5549C150.587 10.4055 150.412 10.3041 150.321 10.2496L150.064 10.6784ZM150.618 10.9985C150.89 11.1253 151.182 11.2801 151.493 11.4635L151.747 11.0325C151.424 10.8426 151.118 10.68 150.83 10.5455L150.618 10.9985ZM151.503 11.4689C151.82 11.6367 152.1 11.7858 152.342 11.9161L152.579 11.4759C152.335 11.3449 152.055 11.1952 151.737 11.0271L151.503 11.4689ZM152.348 11.9196C152.616 12.0533 152.758 12.1294 152.798 12.156L153.075 11.74C153.003 11.6919 152.827 11.6001 152.572 11.4724L152.348 11.9196ZM152.814 12.1661C153.719 12.6732 154.427 13.2934 154.944 14.0244L155.352 13.7356C154.787 12.9359 154.02 12.2682 153.058 11.7299L152.814 12.1661ZM154.946 14.0267C155.451 14.723 155.71 15.5929 155.71 16.652H156.21C156.21 15.5085 155.929 14.5304 155.351 13.7333L154.946 14.0267ZM155.71 16.652C155.71 17.6747 155.469 18.5918 154.989 19.4094L155.42 19.6625C155.948 18.7629 156.21 17.7573 156.21 16.652H155.71ZM154.988 19.4109C154.524 20.2138 153.892 20.8552 153.088 21.3376L153.345 21.7664C154.221 21.2408 154.914 20.5382 155.421 19.6611L154.988 19.4109ZM153.089 21.3368C152.308 21.798 151.438 22.03 150.472 22.03V22.53C151.522 22.53 152.481 22.2766 153.343 21.7672L153.089 21.3368Z" fill="#040032"/>
</g>
<defs>
<filter id="filter0_d" x="0.0825043" y="0.954002" width="158.128" height="24.576" filterUnits="userSpaceOnUse" color-interpolation-filters="sRGB">
<feFlood flood-opacity="0" result="BackgroundImageFix"/>
<feColorMatrix in="SourceAlpha" type="matrix" values="0 0 0 0 0 0 0 0 0 0 0 0 0 0 0 0 0 0 127 0"/>
<feOffset dy="1"/>
<feGaussianBlur stdDeviation="1"/>
<feColorMatrix type="matrix" values="0 0 0 0 0 0 0 0 0 0 0 0 0 0 0 0 0 0 0.25 0"/>
<feBlend mode="normal" in2="BackgroundImageFix" result="effect1_dropShadow"/>
<feBlend mode="normal" in="SourceGraphic" in2="effect1_dropShadow" result="shape"/>
</filter>
</defs>
</svg>
